<svg width="32" height="32" viewBox="0 0 32 32" fill="none" xmlns="http://www.w3.org/2000/svg">
<g clip-path="url(#clip0)">
<path fill-rule="evenodd" clip-rule="evenodd" d="M27.2505 8.83025C29.6906 8.83025 31.6687 6.85325 31.6687 4.41449C31.6687 1.97573 29.6906 -0.00128174 27.2505 -0.00128174C24.8105 -0.00128174 22.8325 1.97573 22.8325 4.41449C22.8325 6.85325 24.8105 8.83025 27.2505 8.83025Z" fill="#FF2D46"/>
<path fill-rule="evenodd" clip-rule="evenodd" d="M27.2505 20.4158C29.6906 20.4158 31.6687 18.4388 31.6687 16.0001C31.6687 13.5613 29.6906 11.5843 27.2505 11.5843C24.8105 11.5843 22.8325 13.5613 22.8325 16.0001C22.8325 18.4388 24.8105 20.4158 27.2505 20.4158Z" fill="#D53D5C"/>
<path fill-rule="evenodd" clip-rule="evenodd" d="M27.2505 32.0013C29.6906 32.0013 31.6687 30.0244 31.6687 27.5856C31.6687 25.1468 29.6906 23.1698 27.2505 23.1698C24.8105 23.1698 22.8325 25.1468 22.8325 27.5856C22.8325 30.0244 24.8105 32.0013 27.2505 32.0013Z" fill="#815EAD"/>
<path fill-rule="evenodd" clip-rule="evenodd" d="M16.0001 20.4158C18.4402 20.4158 20.4183 18.4388 20.4183 16.0001C20.4183 13.5613 18.4402 11.5843 16.0001 11.5843C13.5601 11.5843 11.5821 13.5613 11.5821 16.0001C11.5821 18.4388 13.5601 20.4158 16.0001 20.4158Z" fill="#AB4D85"/>
<path fill-rule="evenodd" clip-rule="evenodd" d="M16.0001 32.0011C18.4402 32.0011 20.4183 30.0241 20.4183 27.5853C20.4183 25.1466 18.4402 23.1696 16.0001 23.1696C13.5601 23.1696 11.5821 25.1466 11.5821 27.5853C11.5821 30.0241 13.5601 32.0011 16.0001 32.0011Z" fill="#576ED6"/>
<path fill-rule="evenodd" clip-rule="evenodd" d="M4.74941 32.0013C7.18946 32.0013 9.1675 30.0244 9.1675 27.5856C9.1675 25.1468 7.18946 23.1698 4.74941 23.1698C2.30936 23.1698 0.331299 25.1468 0.331299 27.5856C0.331299 30.0244 2.30936 32.0013 4.74941 32.0013Z" fill="#2388FF"/>
</g>
<defs>
<clipPath id="clip0">
<rect width="32" height="32" fill="white"/>
</clipPath>
</defs>
</svg>
