<svg width="108" height="108" viewBox="0 0 108 108" fill="none" xmlns="http://www.w3.org/2000/svg">
<path fill-rule="evenodd" clip-rule="evenodd" d="M92.9998 30C101.284 30 108 23.2843 108 15C108 6.71574 101.284 0 92.9998 0C84.7157 0 78 6.71574 78 15C78 23.2843 84.7157 30 92.9998 30Z" fill="#FF5025"/>
<path fill-rule="evenodd" clip-rule="evenodd" d="M92.9998 69C101.284 69 108 62.2844 108 54.0002C108 45.7156 101.284 39 92.9998 39C84.7157 39 78 45.7156 78 54.0002C78 62.2844 84.7157 69 92.9998 69Z" fill="#FF7A59"/>
<path fill-rule="evenodd" clip-rule="evenodd" d="M92.9998 108C101.284 108 108 101.284 108 93.0002C108 84.7156 101.284 78 92.9998 78C84.7157 78 78 84.7156 78 93.0002C78 101.284 84.7157 108 92.9998 108Z" fill="#FF8E72"/>
<path fill-rule="evenodd" clip-rule="evenodd" d="M53.9998 69C62.2843 69 69 62.2844 69 54.0002C69 45.7156 62.2843 39 53.9998 39C45.7157 39 39 45.7156 39 54.0002C39 62.2844 45.7157 69 53.9998 69Z" fill="#FF9C84"/>
<path fill-rule="evenodd" clip-rule="evenodd" d="M53.9998 108C62.2843 108 69 101.284 69 93C69 84.7159 62.2843 78 53.9998 78C45.7157 78 39 84.7159 39 93C39 101.284 45.7157 108 53.9998 108Z" fill="#FFB09C"/>
<path fill-rule="evenodd" clip-rule="evenodd" d="M15 107.917C23.2843 107.917 30 101.201 30 92.9172C30 84.6326 23.2843 77.917 15 77.917C6.71575 77.917 0 84.6326 0 92.9172C0 101.201 6.71575 107.917 15 107.917Z" fill="#FFD4C9"/>
</svg>
