<svg width="108" height="108" viewBox="0 0 108 108" fill="none" xmlns="http://www.w3.org/2000/svg">
<path d="M14.4861 11.5H55.514C63.2376 11.5 69.5 17.7716 69.5 25.5096V66.49C69.5 74.2282 63.2376 80.5 55.514 80.5H14.4861C6.76255 80.5 0.5 74.2282 0.5 66.49V25.5096C0.5 17.7716 6.76254 11.5 14.4861 11.5Z" fill="white" stroke="#DDEBF5"/>
<path d="M30.4972 23.073H10.307C8.57831 23.073 7.17694 24.4161 7.17694 26.073C7.17694 27.7298 8.57831 29.073 10.307 29.073H30.4972C32.2259 29.073 33.6273 27.7298 33.6273 26.073C33.6273 24.4161 32.2259 23.073 30.4972 23.073Z" fill="#1292EE"/>
<path d="M56.5365 23.073H40.2589C38.5302 23.073 37.1288 24.4161 37.1288 26.073C37.1288 27.7298 38.5302 29.073 40.2589 29.073H56.5365C58.2655 29.073 59.6669 27.7298 59.6669 26.073C59.6669 24.4161 58.2655 23.073 56.5365 23.073Z" fill="#DDEBF5"/>
<path d="M48.7546 32.9583H10.307C8.57831 32.9583 7.17694 34.3014 7.17694 35.9583C7.17694 37.6151 8.57831 38.9583 10.307 38.9583H48.7546C50.4836 38.9583 51.8849 37.6151 51.8849 35.9583C51.8849 34.3014 50.4836 32.9583 48.7546 32.9583Z" fill="#DDEBF5"/>
<path d="M16.1442 42.8433H10.307C8.57831 42.8433 7.17694 44.1864 7.17694 45.8433C7.17694 47.5001 8.57831 48.8433 10.307 48.8433H16.1442C17.8729 48.8433 19.2742 47.5001 19.2742 45.8433C19.2742 44.1864 17.8729 42.8433 16.1442 42.8433Z" fill="#1292EE"/>
<path d="M59.7502 42.8433H25.905C24.1764 42.8433 22.775 44.1864 22.775 45.8433C22.775 47.5001 24.1764 48.8433 25.905 48.8433H59.7502C61.4792 48.8433 62.8805 47.5001 62.8805 45.8433C62.8805 44.1864 61.4792 42.8433 59.7502 42.8433Z" fill="#DDEBF5"/>
<path d="M44.1522 52.7244H10.307C8.57831 52.7244 7.17694 54.0674 7.17694 55.7245C7.17694 57.3812 8.57831 58.7244 10.307 58.7244H44.1522C45.8808 58.7244 47.2822 57.3812 47.2822 55.7245C47.2822 54.0674 45.8808 52.7244 44.1522 52.7244Z" fill="#DDEBF5"/>
<path d="M23.6927 62.6096H10.307C8.57831 62.6096 7.17694 63.9527 7.17694 65.6094C7.17694 67.2665 8.57831 68.6096 10.307 68.6096H23.6927C25.4214 68.6096 26.8228 67.2665 26.8228 65.6094C26.8228 63.9527 25.4214 62.6096 23.6927 62.6096Z" fill="#1292EE"/>
<path d="M86.2355 28H59.7646C47.7444 28 38 37.7443 38 49.7645V76.2354C38 88.2557 47.7444 98 59.7646 98H86.2355C98.2557 98 108 88.2557 108 76.2354V49.7645C108 37.7443 98.2557 28 86.2355 28Z" fill="#1292EE"/>
<path d="M57.5921 66.5777L70.3165 54.289C71.9656 52.7212 72.9867 50.5214 72.9867 48.1192C72.9867 45.7423 71.9917 43.5677 70.3946 42L57.6706 54.289C56.0211 55.8565 55 58.0565 55 60.4587C55 62.861 55.9949 65.0104 57.5921 66.5777ZM88.4079 59.3967L75.6835 71.6857C74.034 73.2535 73.0129 75.4535 73.0129 77.8553C73.0129 80.2323 74.0078 82.4069 75.605 83.9747L88.3294 71.6857C89.9789 70.1179 91 67.9179 91 65.5161C91 63.1139 90.005 60.9645 88.4079 59.3967ZM88.3294 54.3143C89.9789 52.7465 91 50.5466 91 48.1445C91 45.7676 90.005 43.593 88.4079 42.0253L57.6706 71.6857C56.0211 73.2788 55 75.4534 55 77.8806C55 80.2575 55.9949 82.4322 57.5921 84L88.3294 54.3143Z" fill="white"/>
</svg>
