<svg width="48" height="48" viewBox="0 0 48 48" fill="none" xmlns="http://www.w3.org/2000/svg">
<path d="M19.4859 39.486C15.1474 43.8244 9.51925 46.6391 3.44562 47.508L2.88012 47.5889C1.4401 47.7949 0.205572 46.5607 0.41113 45.1206L0.491597 44.5569C1.35901 38.4801 4.17432 32.8487 8.51481 28.5082L34.7511 2.2719C36.2064 0.8166 38.1802 -0.000976584 40.2383 -0.000976562C42.2964 -0.000976541 44.2702 0.8166 45.7255 2.2719C47.1808 3.72719 47.9984 5.701 47.9984 7.7591C47.9984 9.8172 47.1808 11.791 45.7255 13.2463L19.4859 39.486Z" fill="#2388FF"/>
<path d="M45.7244 13.2463L34.75 2.27188C36.2053 0.816586 38.1791 -0.000991123 40.2372 -0.000991101C42.2953 -0.00099108 44.2691 0.816586 45.7244 2.27188C47.1797 3.72718 47.9973 5.70098 47.9973 7.75908C47.9973 9.81718 47.1797 11.791 45.7244 13.2463Z" fill="#80BAFF"/>
</svg>
