<svg width="108" height="108" viewBox="0 0 108 108" fill="none" xmlns="http://www.w3.org/2000/svg">
<path d="M36 108C45.936 108 54 99.936 54 90V72H36C26.064 72 18 80.064 18 90C18 99.936 26.064 108 36 108Z" fill="#0ACF83"/>
<path d="M18 54C18 44.064 26.064 36 36 36H54V72H36C26.064 72 18 63.936 18 54Z" fill="#A259FF"/>
<path d="M18 18C18 8.064 26.064 0 36 0H54V36H36C26.064 36 18 27.936 18 18Z" fill="#F24E1E"/>
<path d="M54 0H72C81.936 0 90 8.064 90 18C90 27.936 81.936 36 72 36H54V0Z" fill="#FF7262"/>
<path d="M90 54C90 63.936 81.936 72 72 72C62.064 72 54 63.936 54 54C54 44.064 62.064 36 72 36C81.936 36 90 44.064 90 54Z" fill="#1ABCFE"/>
</svg>
