<svg width="108" height="108" viewBox="0 0 108 108" fill="none" xmlns="http://www.w3.org/2000/svg">
<path fill-rule="evenodd" clip-rule="evenodd" d="M53.9998 69C62.2843 69 69 62.2844 69 54.0002C69 45.7156 62.2843 39 53.9998 39C45.7157 39 39 45.7156 39 54.0002C39 62.2844 45.7157 69 53.9998 69Z" fill="#AB4D85"/>
<path fill-rule="evenodd" clip-rule="evenodd" d="M53.9998 108C62.2843 108 69 101.284 69 93C69 84.7159 62.2843 78 53.9998 78C45.7157 78 39 84.7159 39 93C39 101.284 45.7157 108 53.9998 108Z" fill="#576ED6"/>
<path fill-rule="evenodd" clip-rule="evenodd" d="M15 107.917C23.2843 107.917 30 101.201 30 92.9173C30 84.6328 23.2843 77.9171 15 77.9171C6.71575 77.9171 0 84.6328 0 92.9173C0 101.201 6.71575 107.917 15 107.917Z" fill="#2D7EFF"/>
<rect x="14" y="93" width="1" height="1" fill="#3684FF"/>
</svg>
