<svg width="256" height="30" viewBox="0 0 256 30" fill="none" xmlns="http://www.w3.org/2000/svg">
<path fill-rule="evenodd" clip-rule="evenodd" d="M26.4779 8.3308C28.7784 8.3308 30.6433 6.46587 30.6433 4.16539C30.6433 1.86491 28.7784 0 26.4779 0C24.1774 0 22.3125 1.86491 22.3125 4.16539C22.3125 6.46587 24.1774 8.3308 26.4779 8.3308Z" fill="#FF5C33"/>
<path fill-rule="evenodd" clip-rule="evenodd" d="M26.4779 19.1802C28.7784 19.1802 30.6433 17.2286 30.6433 14.8211C30.6433 12.4136 28.7784 10.4619 26.4779 10.4619C24.1774 10.4619 22.3125 12.4136 22.3125 14.8211C22.3125 17.2286 24.1774 19.1802 26.4779 19.1802Z" fill="#FF7A59"/>
<path fill-rule="evenodd" clip-rule="evenodd" d="M26.4779 29.6413C28.7784 29.6413 30.6433 27.7765 30.6433 25.476C30.6433 23.1755 28.7784 21.3105 26.4779 21.3105C24.1774 21.3105 22.3125 23.1755 22.3125 25.476C22.3125 27.7765 24.1774 29.6413 26.4779 29.6413Z" fill="#FF8E72"/>
<path fill-rule="evenodd" clip-rule="evenodd" d="M15.8199 19.1802C18.2274 19.1802 20.1791 17.2286 20.1791 14.8211C20.1791 12.4136 18.2274 10.4619 15.8199 10.4619C13.4124 10.4619 11.4609 12.4136 11.4609 14.8211C11.4609 17.2286 13.4124 19.1802 15.8199 19.1802Z" fill="#FF9E87"/>
<path fill-rule="evenodd" clip-rule="evenodd" d="M15.8199 29.6413C18.2274 29.6413 20.1791 27.7765 20.1791 25.476C20.1791 23.1755 18.2274 21.3105 15.8199 21.3105C13.4124 21.3105 11.4609 23.1755 11.4609 25.476C11.4609 27.7765 13.4124 29.6413 15.8199 29.6413Z" fill="#FFB09C"/>
<path fill-rule="evenodd" clip-rule="evenodd" d="M5.1654 29.6413C7.46587 29.6413 9.3308 27.7765 9.3308 25.476C9.3308 23.1755 7.46587 21.3105 5.1654 21.3105C2.86491 21.3105 1 23.1755 1 25.476C1 27.7765 2.86491 29.6413 5.1654 29.6413Z" fill="#FFD4C9"/>
<path d="M43.2479 24.3629H47.0159V11.6458H43.2479V24.3629ZM45.0823 6.01855C43.9172 6.01855 43 6.86143 43 8.02652C43 9.1916 43.9172 10.0593 45.0823 10.0593C46.2474 10.0593 47.1894 9.1916 47.1894 8.02652C47.1894 6.86143 46.2474 6.01855 45.0823 6.01855ZM50.4378 11.6458V24.3629H54.2059V17.7441C54.2059 16.0832 55.0735 14.6702 56.7097 14.6702C58.0979 14.6702 58.9903 15.5378 58.9903 17.1987V24.3629H62.7583V16.6285C62.7583 13.3315 60.8743 11.3483 57.8252 11.3483C56.1147 11.3483 54.8752 11.9928 54.0571 13.282V11.6458H50.4378ZM72.6482 21.3386C70.9625 21.3386 69.6487 20.0495 69.6487 17.9671C69.6487 15.9592 70.9625 14.6702 72.6482 14.6702C74.2594 14.6702 75.598 15.984 75.598 17.9671C75.598 20.0247 74.2594 21.3386 72.6482 21.3386ZM69.4751 22.5781C70.3924 24.0902 72.2268 24.6604 73.4911 24.6604C76.7135 24.6604 79.3906 21.9336 79.3906 18.0167C79.3906 14.2239 76.8873 11.3483 73.4167 11.3483C72.0284 11.3483 70.5659 11.9185 69.7479 13.1828V6.6879H65.9798V24.3629H69.4751V22.5781ZM87.7111 11.3483C83.7447 11.3483 80.8939 14.2239 80.8939 17.992C80.8939 21.7352 83.7447 24.6604 87.7111 24.6604C91.6776 24.6604 94.5284 21.7352 94.5284 17.992C94.5284 14.2239 91.6776 11.3483 87.7111 11.3483ZM87.7111 14.6949C89.4218 14.6949 90.7103 16.0088 90.7103 17.992C90.7103 19.9751 89.4218 21.3138 87.7111 21.3138C86.0005 21.3138 84.7111 19.9751 84.7111 17.992C84.7111 16.0088 86.0005 14.6949 87.7111 14.6949ZM96.7932 11.6458V19.3802C96.7932 22.6773 98.6768 24.6604 101.726 24.6604C103.437 24.6604 104.676 24.0159 105.494 22.7268V24.3629H109.113V11.6458H105.345V18.2647C105.345 19.9256 104.502 21.3386 102.842 21.3386C101.453 21.3386 100.56 20.4709 100.56 18.81V11.6458H96.7932ZM112.533 11.6458V24.3629H116.301V17.7441C116.301 16.0832 117.169 14.6702 118.805 14.6702C120.193 14.6702 121.085 15.5378 121.085 17.1987V24.3629H124.853V16.6285C124.853 13.3315 122.97 11.3483 119.92 11.3483C118.21 11.3483 116.97 11.9928 116.152 13.282V11.6458H112.533ZM133.876 21.3386C132.265 21.3386 130.926 20.0247 130.926 17.9671C130.926 15.984 132.265 14.6702 133.876 14.6702C135.561 14.6702 136.875 15.9592 136.875 17.9671C136.875 20.0495 135.561 21.3386 133.876 21.3386ZM137.049 24.3629H140.544V6.6879H136.776V13.1828C135.958 11.9185 134.496 11.3483 133.107 11.3483C129.637 11.3483 127.133 14.2239 127.133 18.0167C127.133 21.9336 129.811 24.6604 133.033 24.6604C134.297 24.6604 136.132 24.0902 137.049 22.5781V24.3629Z" fill="#1F2F3F"/>
<path d="M153.087 11.3479C149.319 11.3479 146.543 14.2731 146.543 18.0163C146.543 21.7844 149.319 24.66 153.583 24.66C155.666 24.66 157.351 24.0651 158.963 22.5777L156.98 20.1482C156.31 20.8424 155.219 21.4621 153.806 21.4621C152.121 21.4621 150.633 20.6193 150.435 18.9088H158.913C159.012 18.4873 159.136 17.8181 159.136 17.223C159.136 13.7773 156.732 11.3479 153.087 11.3479ZM153.038 14.4219C154.352 14.4219 155.393 15.2399 155.468 16.5538V16.5785H150.386C150.559 15.1903 151.65 14.4219 153.038 14.4219ZM161.427 20.7432C161.427 23.4205 162.988 24.66 165.368 24.66C166.137 24.66 166.657 24.536 167.128 24.3377V21.239C166.805 21.363 166.509 21.3877 166.285 21.3877C165.318 21.3877 165.195 20.7432 165.195 20.0491V6.6875H161.427V20.7432ZM174.585 11.3479C170.817 11.3479 168.041 14.2731 168.041 18.0163C168.041 21.7844 170.817 24.66 175.081 24.66C177.163 24.66 178.849 24.0651 180.46 22.5777L178.477 20.1482C177.808 20.8424 176.717 21.4621 175.304 21.4621C173.618 21.4621 172.131 20.6193 171.932 18.9088H180.41C180.51 18.4873 180.633 17.8181 180.633 17.223C180.633 13.7773 178.229 11.3479 174.585 11.3479ZM174.535 14.4219C175.849 14.4219 176.891 15.2399 176.964 16.5538V16.5785H171.882C172.056 15.1903 173.147 14.4219 174.535 14.4219ZM183.073 11.6454V24.3625H186.841V17.7437C186.841 16.0828 187.708 14.6698 189.295 14.6698C190.683 14.6698 191.575 15.5374 191.575 17.1983V24.3625H195.343V17.7437C195.343 16.0828 196.211 14.6698 197.797 14.6698C199.186 14.6698 200.053 15.5374 200.053 17.1983V24.3625H203.821V16.6281C203.821 13.3311 201.962 11.3479 198.913 11.3479C196.756 11.3479 195.542 12.2899 194.624 13.579C193.756 12.166 192.369 11.3479 190.41 11.3479C188.749 11.3479 187.51 11.9924 186.692 13.2816V11.6454H183.073ZM212.616 11.3479C208.848 11.3479 206.072 14.2731 206.072 18.0163C206.072 21.7844 208.848 24.66 213.112 24.66C215.195 24.66 216.88 24.0651 218.492 22.5777L216.509 20.1482C215.839 20.8424 214.748 21.4621 213.335 21.4621C211.65 21.4621 210.162 20.6193 209.964 18.9088H218.443C218.542 18.4873 218.665 17.8181 218.665 17.223C218.665 13.7773 216.261 11.3479 212.616 11.3479ZM212.567 14.4219C213.881 14.4219 214.922 15.2399 214.997 16.5538V16.5785H209.915C210.088 15.1903 211.179 14.4219 212.567 14.4219ZM221.104 11.6454V24.3625H224.872V17.7437C224.872 16.0828 225.74 14.6698 227.376 14.6698C228.764 14.6698 229.657 15.5374 229.657 17.1983V24.3625H233.425V16.6281C233.425 13.3311 231.541 11.3479 228.492 11.3479C226.781 11.3479 225.542 11.9924 224.724 13.2816V11.6454H221.104ZM235.114 11.6454V14.6202H236.825V20.2227C236.825 23.0734 238.461 24.66 241.138 24.66C242.302 24.66 243.171 24.4369 243.79 24.1146V20.8672C243.22 21.239 242.65 21.3134 242.179 21.3134C241.212 21.3134 240.593 20.7928 240.593 19.6277V14.6202H243.443V11.6454H240.593V8.19964H236.948V11.6454H235.114ZM250.036 24.66C253.085 24.66 255.143 22.9495 255.143 20.7432C255.143 18.3386 253.308 17.6197 251.127 16.7521C249.243 16.0332 248.524 15.7853 248.524 15.2151C248.524 14.6202 249.218 14.2484 250.036 14.2484C251.226 14.2484 251.97 14.8433 252.44 15.6366L254.845 13.9013C254.052 12.3891 252.242 11.3479 250.135 11.3479C247.334 11.3479 245.053 12.8353 245.053 15.2151C245.053 17.2726 246.442 18.3138 248.995 19.1815C250.903 19.8508 251.672 20.0739 251.672 20.8424C251.672 21.4125 251.077 21.7348 250.061 21.7348C248.747 21.7348 247.78 20.9663 247.111 19.9004L244.632 21.7596C245.648 23.6188 247.681 24.66 250.036 24.66Z" fill="#FF5C33"/>
</svg>
