<svg width="1440" height="722" viewBox="0 0 1440 722" fill="none" xmlns="http://www.w3.org/2000/svg">
<g clip-path="url(#clip0_24_1696)">
<path d="M1672.53 794.522C1672.32 794.523 1672.12 794.42 1671.96 794.266L1604.2 724.868L1409.92 724.928C1409.66 724.929 1409.46 724.827 1409.3 724.621L856.459 5.27415L539.081 4.21882L37.1051 725.085C36.9514 725.291 36.7457 725.395 36.4882 725.396L-282.225 725.53C-282.637 725.531 -282.999 725.172 -283 724.76C-283.001 724.348 -282.642 723.986 -282.23 723.985L36.0707 723.852L538.047 2.9863C538.2 2.77974 538.406 2.67603 538.664 2.67513L856.814 3.72776C857.072 3.72686 857.278 3.82917 857.433 4.03464L1410.28 723.382L1604.5 723.322C1604.71 723.321 1604.91 723.424 1605.07 723.578L1673.09 793.232C1673.4 793.54 1673.4 794.004 1673.1 794.314C1672.94 794.418 1672.74 794.521 1672.53 794.522Z" fill="#EBEFF6"/>
<path d="M1694.77 555.873L-281.481 554.891C-281.893 554.892 -282.255 554.533 -282.257 554.121C-282.258 553.709 -281.847 553.296 -281.487 553.346L1694.77 554.328C1695.18 554.326 1695.54 554.686 1695.54 555.098C1695.54 555.51 1695.24 555.871 1694.77 555.873Z" fill="#EBEFF6"/>
<path d="M1695.34 438.748L-280.916 436.53C-281.328 436.532 -281.69 436.173 -281.691 435.761C-281.693 435.348 -281.333 434.987 -280.921 434.985L1695.34 437.203C1695.75 437.202 1696.11 437.561 1696.11 437.973C1696.11 438.385 1695.75 438.747 1695.34 438.748Z" fill="#EBEFF6"/>
<path d="M1695.71 352.734L-280.55 349.64C-280.962 349.642 -281.323 349.282 -281.325 348.87C-281.326 348.458 -280.967 348.096 -280.555 348.095L1695.71 351.189C1696.12 351.187 1696.48 351.546 1696.48 351.958C1696.48 352.422 1696.12 352.732 1695.71 352.734Z" fill="#EBEFF6"/>
<path d="M1696 288.557C1695.9 288.558 1695.74 288.507 1695.64 288.455L1692.55 286.921L-280.266 283.198C-280.678 283.199 -281.04 282.84 -281.042 282.428C-281.043 282.016 -280.684 281.654 -280.272 281.652L1692.69 285.427C1692.8 285.427 1692.95 285.478 1693.06 285.529L1696.31 287.166C1696.67 287.37 1696.82 287.833 1696.67 288.194C1696.57 288.401 1696.26 288.556 1696 288.557Z" fill="#EBEFF6"/>
<path d="M-216.242 786.024C-216.448 786.025 -216.602 785.974 -216.757 785.82C-217.068 785.512 -217.121 785.049 -216.813 784.738L-76.8454 630.456C-76.6915 630.301 -76.4858 630.197 -76.2798 630.196L1688.85 630.37C1689.06 630.369 1689.21 630.42 1689.37 630.574L1694.95 635.242C1695.26 635.498 1695.31 636.013 1695.05 636.323C1694.8 636.633 1694.28 636.686 1693.97 636.43L1688.65 631.916L-75.8623 631.74L-215.624 785.764C-215.83 785.92 -216.036 786.023 -216.242 786.024Z" fill="#EBEFF6"/>
<path d="M1252.81 792.639C1252.55 792.64 1252.29 792.486 1252.14 792.23L810.772 4.71259C810.565 4.35278 810.718 3.8887 811.077 3.68142C811.437 3.47415 811.901 3.62703 812.108 3.98684L1253.47 791.452C1253.68 791.812 1253.53 792.276 1253.17 792.483C1253.07 792.587 1252.96 792.639 1252.81 792.639Z" fill="#EBEFF6"/>
<path d="M1462.7 793.555C1462.44 793.556 1462.23 793.453 1462.08 793.248L1409.56 724.929L36.8488 725.446L-5.78984 786.629C-6.0461 786.99 -6.50944 787.043 -6.87069 786.838C-7.23212 786.582 -7.28527 786.119 -7.08051 785.758L35.7629 724.214C35.9167 724.007 36.1739 723.903 36.3799 723.903L1409.86 723.383C1410.12 723.382 1410.33 723.485 1410.48 723.69L1463.26 792.317C1463.52 792.676 1463.47 793.14 1463.11 793.399C1463 793.502 1462.85 793.554 1462.7 793.555Z" fill="#EBEFF6"/>
<path d="M1042.97 791.672C1042.66 791.673 1042.36 791.468 1042.25 791.16L765.344 4.45911C765.188 4.04762 765.392 3.63485 765.804 3.4789C766.215 3.32295 766.628 3.52754 766.784 3.93904L1043.69 790.639C1043.85 791.051 1043.64 791.464 1043.23 791.62C1043.13 791.672 1043.03 791.672 1042.97 791.672Z" fill="#EBEFF6"/>
<path d="M203.48 787.907C203.377 787.907 203.274 787.908 203.119 787.805C202.758 787.6 202.55 787.137 202.755 786.776L583.475 3.23977C583.68 2.87852 584.142 2.67088 584.504 2.87564C584.865 3.0804 585.073 3.54322 584.868 3.90447L204.199 787.492C204.046 787.75 203.789 787.906 203.48 787.907Z" fill="#EBEFF6"/>
<path d="M833.087 790.705C832.727 790.706 832.365 790.45 832.313 790.038L719.863 4.15431C719.81 3.74246 720.118 3.32933 720.53 3.27639C720.942 3.22345 721.355 3.53103 721.408 3.94289L833.857 789.878C833.91 790.29 833.602 790.703 833.191 790.756C833.139 790.705 833.139 790.705 833.087 790.705Z" fill="#EBEFF6"/>
<path d="M413.366 788.822C413.315 788.822 413.212 788.823 413.16 788.771C412.748 788.67 412.488 788.207 412.642 787.846L629.006 3.49286C629.108 3.08046 629.571 2.82132 629.932 2.97458C630.344 3.07615 630.603 3.53881 630.45 3.89988L414.085 788.305C413.983 788.614 413.675 788.821 413.366 788.822Z" fill="#EBEFF6"/>
<path d="M623.201 789.79L623.15 789.79C622.737 789.74 622.376 789.38 622.426 788.968L674.383 3.84951C674.434 3.4373 674.793 3.12703 675.205 3.12559C675.617 3.17566 675.979 3.53492 675.929 3.94714L623.971 789.066C623.973 789.478 623.613 789.788 623.201 789.79Z" fill="#EBEFF6"/>
<path d="M-220.69 87.2188L-279.354 87.0631C-279.766 87.0645 -280.128 86.7053 -280.13 86.2932C-280.131 85.8812 -279.772 85.5194 -279.36 85.518L-220.85 85.6743L-189.467 75.3667C-189.364 75.3663 -189.313 75.3147 -189.21 75.3143L-127.712 75.5117L-100.551 65.8884C-100.448 65.8365 -100.397 65.8364 -100.294 65.836L-40.9078 66.0408L-17.4529 57.0485C-17.3501 56.9966 -17.2471 56.9963 -17.1956 56.9961L40.2331 57.1562L60.3937 48.742C60.4966 48.6901 60.5481 48.6899 60.7026 48.6894L116.277 48.8559L133.504 40.967C133.607 40.9152 133.709 40.8633 133.813 40.9145L187.636 41.0871L202.238 33.6709C202.34 33.619 202.443 33.6187 202.598 33.5666L254.773 33.745L267.007 26.7492C267.11 26.6973 267.212 26.5939 267.367 26.6449L317.997 26.8287L328.121 20.2522C328.223 20.1488 328.326 20.1485 328.532 20.1478L377.669 20.2853L385.888 14.1275C386.042 14.0239 386.145 13.9721 386.351 13.9713L434.097 14.1137L446.933 2.63479C447.087 2.53125 447.241 2.42769 447.447 2.42697L538.561 2.72699C538.973 2.72555 539.335 3.08482 539.336 3.49686C539.337 3.90889 538.926 4.21936 538.566 4.27212L447.762 3.97102L434.925 15.45C434.771 15.5535 434.617 15.6056 434.411 15.6578L386.614 15.5156L378.395 21.6734C378.24 21.7769 378.138 21.8288 377.932 21.8295L328.744 21.6922L318.62 28.2687C318.518 28.372 318.415 28.3724 318.209 28.3731L267.578 28.1893L255.345 35.1852C255.242 35.237 255.139 35.2889 254.984 35.2895L202.86 35.0594L188.259 42.4756C188.156 42.5274 188.053 42.5793 187.899 42.5798L134.075 42.4072L116.849 50.2961C116.746 50.3479 116.643 50.3483 116.54 50.3487L60.9653 50.1821L40.8047 58.5963C40.7019 58.6482 40.5988 58.6485 40.4958 58.6489L-16.9843 58.489L-40.4393 67.4813C-40.5421 67.5331 -40.6451 67.5335 -40.6966 67.5337L-100.083 67.3289L-127.244 76.9522C-127.347 77.004 -127.398 77.0042 -127.501 77.0046L-189.102 76.8591L-220.484 87.1666C-220.535 87.2183 -220.638 87.2187 -220.69 87.2188Z" fill="#EBEFF6"/>
<path d="M1696.75 119.773C1696.65 119.773 1696.6 119.773 1696.49 119.722L1684.89 115.9L-279.479 110.395C-279.891 110.397 -280.253 110.037 -280.254 109.625C-280.256 109.213 -279.896 108.852 -279.484 108.85L1684.99 114.354C1685.09 114.354 1685.14 114.354 1685.25 114.405L1697 118.278C1697.42 118.431 1697.62 118.842 1697.47 119.255C1697.37 119.564 1697.06 119.771 1696.75 119.773Z" fill="#EBEFF6"/>
<path d="M1696.63 143.671C1696.53 143.672 1696.47 143.672 1696.37 143.621L1694.21 142.856L-279.59 137.59C-280.002 137.592 -280.364 137.233 -280.365 136.82C-280.367 136.408 -279.956 136.047 -279.596 136.045L1694.35 141.31C1694.46 141.31 1694.51 141.309 1694.61 141.361L1696.93 142.177C1697.35 142.33 1697.55 142.741 1697.4 143.154C1697.25 143.463 1696.94 143.67 1696.63 143.671Z" fill="#EBEFF6"/>
<path d="M1696 286.961L1692.75 286.972C1692.65 286.972 1692.49 286.921 1692.39 286.87L1208.07 45.7659L188.105 42.5791L-279.864 280.415C-280.224 280.622 -280.688 280.469 -280.895 280.058C-281.103 279.698 -280.95 279.234 -280.539 279.027L187.585 41.0873C187.687 41.0354 187.842 40.9834 187.945 40.983L1208.27 44.22C1208.37 44.2197 1208.53 44.2707 1208.63 44.3218L1692.95 285.375L1696.04 285.364C1696.45 285.362 1696.82 285.722 1696.82 286.134C1696.77 286.597 1696.41 286.959 1696 286.961Z" fill="#EBEFF6"/>
<path d="M1696.48 174.678L-279.735 169.73C-280.148 169.731 -280.509 169.372 -280.511 168.96C-280.512 168.548 -280.153 168.186 -279.741 168.185L1696.47 173.133C1696.89 173.131 1697.25 173.491 1697.25 173.903C1697.25 174.366 1696.94 174.676 1696.48 174.678Z" fill="#EBEFF6"/>
<path d="M1695.74 345.574C1695.63 345.575 1695.48 345.524 1695.38 345.473L1645.27 317.68L-234.627 314.405L-280.119 340.316C-280.478 340.523 -280.942 340.422 -281.15 340.011C-281.357 339.651 -281.256 339.187 -280.844 338.98L-235.199 312.965C-235.096 312.913 -235.044 312.861 -234.838 312.86L1645.47 316.134C1645.62 316.134 1645.73 316.185 1645.83 316.236L1696.09 344.131C1696.45 344.336 1696.61 344.799 1696.41 345.16C1696.25 345.418 1695.99 345.573 1695.74 345.574Z" fill="#EBEFF6"/>
<path d="M1696.36 212.895L-279.91 208.359C-280.322 208.361 -280.683 208.002 -280.685 207.59C-280.686 207.178 -280.379 206.764 -279.915 206.814L1696.3 211.35C1696.71 211.349 1697.07 211.708 1697.07 212.12C1697.13 212.532 1696.77 212.894 1696.36 212.895Z" fill="#EBEFF6"/>
<path d="M1695.42 417.425C1695.27 417.426 1695.11 417.375 1695.01 417.323L1655.57 392.636L-239.307 390.082L-280.418 416.751C-280.778 416.958 -281.242 416.857 -281.501 416.549C-281.708 416.189 -281.607 415.725 -281.298 415.466L-239.982 388.694C-239.879 388.59 -239.725 388.59 -239.57 388.589L1655.77 391.141C1655.93 391.141 1656.08 391.192 1656.19 391.243L1695.78 416.033C1696.14 416.238 1696.24 416.753 1696.04 417.114C1695.94 417.269 1695.68 417.424 1695.42 417.425Z" fill="#EBEFF6"/>
<path d="M1696.11 259.508L-280.157 255.436C-280.569 255.437 -280.931 255.078 -280.933 254.666C-280.934 254.254 -280.575 253.892 -280.163 253.891L1696.1 257.963C1696.51 257.961 1696.87 258.321 1696.88 258.733C1696.88 259.145 1696.57 259.506 1696.11 259.508Z" fill="#EBEFF6"/>
<path d="M1695.85 317.813L1645.42 317.731C1645.27 317.732 1645.16 317.681 1645.06 317.629L1140.98 38.0683L255.242 35.2371L-234.473 314.301C-234.576 314.353 -234.73 314.405 -234.833 314.406L-280.364 314.307C-280.776 314.308 -281.138 313.949 -281.139 313.537C-281.141 313.125 -280.781 312.763 -280.369 312.762L-235.044 312.861L254.67 33.7454C254.773 33.6935 254.876 33.6417 255.03 33.6411L1141.13 36.4711C1141.29 36.4706 1141.39 36.5217 1141.49 36.5729L1645.57 316.134L1695.79 316.216C1696.2 316.215 1696.56 316.574 1696.56 316.986C1696.62 317.449 1696.31 317.811 1695.85 317.813Z" fill="#EBEFF6"/>
<path d="M1696.83 98.9127C1696.78 98.9129 1696.68 98.9132 1696.63 98.8619L1676.93 92.7501L1614.4 92.5563C1614.3 92.5566 1614.25 92.5568 1614.15 92.5057L1582.54 82.109L1522.12 81.9078C1522.02 81.9082 1521.97 81.9084 1521.86 81.8572L1494.38 72.1672L1435.92 72.0107C1435.81 72.0111 1435.71 72.0114 1435.66 71.9601L1411.83 62.8754L1355.23 62.7124C1355.13 62.7128 1355.02 62.7132 1354.92 62.662L1334.34 54.184L1279.43 54.0151C1279.33 54.0155 1279.23 54.0159 1279.12 53.9647L1261.48 45.9915L1208.23 45.8169C1208.12 45.8172 1207.97 45.7663 1207.86 45.7151L1192.85 38.2478L1141.14 38.0678C1140.98 38.0683 1140.88 38.0172 1140.78 37.966L1128.08 30.9541L1077.86 30.7689C1077.71 30.7694 1077.56 30.7185 1077.45 30.6673L1066.87 24.0601L1018.04 23.9215C1017.89 23.9221 1017.73 23.8711 1017.58 23.7686L1008.91 17.5668L961.417 17.4235C961.211 17.4242 961.056 17.3733 960.901 17.2193L953.979 11.3719L907.727 11.2243C907.521 11.225 907.315 11.1227 907.16 10.9688L901.784 5.47648L856.768 5.32459C856.356 5.32603 855.994 4.96676 855.993 4.55472C855.991 4.14269 856.351 3.7809 856.763 3.77946L902.139 3.93008C902.345 3.92936 902.552 4.03165 902.707 4.18563L908.082 9.67791L954.283 9.82566C954.489 9.82494 954.644 9.87592 954.799 10.0299L961.721 15.8773L1009.21 16.0206C1009.36 16.02 1009.52 16.071 1009.67 16.1735L1018.35 22.3753L1067.17 22.5139C1067.33 22.5134 1067.48 22.5643 1067.59 22.6155L1078.17 29.2227L1128.39 29.4079C1128.54 29.4074 1128.64 29.4585 1128.75 29.5097L1141.44 36.5216L1193.1 36.7018C1193.21 36.7014 1193.36 36.7523 1193.46 36.8035L1208.48 44.2708L1261.68 44.4457C1261.79 44.4453 1261.89 44.4449 1261.99 44.4961L1279.63 52.4693L1334.49 52.6383C1334.59 52.638 1334.69 52.6376 1334.8 52.6888L1355.38 61.1668L1411.98 61.3297C1412.09 61.3294 1412.19 61.329 1412.24 61.3803L1436.07 70.465L1494.53 70.6215C1494.63 70.6212 1494.68 70.621 1494.78 70.6721L1522.27 80.3622L1582.69 80.5633C1582.79 80.5629 1582.84 80.5628 1582.94 80.6139L1614.55 91.0106L1677.08 91.2044C1677.13 91.2042 1677.23 91.2038 1677.29 91.2552L1697.14 97.3665C1697.55 97.468 1697.76 97.9309 1697.66 98.3433C1697.5 98.7043 1697.19 98.9114 1696.83 98.9127Z" fill="#EBEFF6"/>
<path d="M1696.86 92.835L1676.98 92.8014C1676.93 92.8015 1676.83 92.8019 1676.78 92.7506L1643.06 82.3098L1582.64 82.1086C1582.54 82.109 1582.48 82.1091 1582.38 82.058L1552.89 72.3235L1494.43 72.167C1494.32 72.1674 1494.27 72.1676 1494.17 72.1164L1468.49 63.0382L1411.88 62.8752C1411.78 62.8756 1411.68 62.8759 1411.63 62.8246L1389.3 54.3012L1334.44 54.1322C1334.34 54.1325 1334.24 54.1329 1334.13 54.0817L1314.79 46.1145L1261.59 45.9396C1261.48 45.94 1261.38 45.9404 1261.28 45.8892L1244.66 38.376L1193 38.1957C1192.9 38.1961 1192.75 38.1451 1192.64 38.094L1178.46 31.0358L1128.24 30.8506C1128.08 30.8511 1127.98 30.8 1127.88 30.7488L1115.9 24.095L1067.08 23.9564C1066.92 23.9569 1066.77 23.9059 1066.66 23.8548L1056.65 17.6062L1009.11 17.4631C1008.96 17.4636 1008.8 17.4126 1008.65 17.3102L1000.44 11.4157L954.185 11.2682C953.979 11.2689 953.824 11.2179 953.669 11.0639L947.108 5.5243L902.041 5.37256C901.629 5.374 901.267 5.01473 901.266 4.60269C901.264 4.19066 901.624 3.82887 902.036 3.82743L947.361 3.97826C947.567 3.97755 947.721 4.02849 947.876 4.18247L954.437 9.72214L1000.69 9.8697C1000.84 9.86916 1001 9.92012 1001.15 10.0226L1009.36 15.917L1056.85 16.0603C1057.01 16.0598 1057.16 16.1107 1057.26 16.1618L1067.28 22.4105L1116.1 22.5491C1116.26 22.5486 1116.36 22.5997 1116.47 22.6509L1128.44 29.3047L1178.66 29.49C1178.76 29.4896 1178.91 29.5406 1179.02 29.5917L1193.21 36.6499L1244.87 36.8301C1244.97 36.8297 1245.07 36.8294 1245.17 36.8805L1261.79 44.3938L1314.99 44.5686C1315.09 44.5682 1315.2 44.5679 1315.3 44.619L1334.64 52.5863L1389.5 52.7554C1389.6 52.755 1389.7 52.7546 1389.75 52.806L1412.09 61.3294L1468.69 61.4923C1468.79 61.492 1468.84 61.4918 1468.95 61.5429L1494.63 70.6212L1553.04 70.7778C1553.14 70.7775 1553.19 70.7773 1553.29 70.8284L1582.79 80.5629L1643.2 80.7641C1643.26 80.7639 1643.36 80.7635 1643.41 80.8149L1677.13 91.2557L1696.86 91.2898C1697.27 91.2884 1697.63 91.6477 1697.63 92.0597C1697.63 92.4718 1697.28 92.8335 1696.86 92.835Z" fill="#EBEFF6"/>
<path d="M1696.93 82.4822L1643.21 82.3092C1643.16 82.3094 1643.06 82.3098 1643 82.2584L1611.55 72.5307L1553.14 72.3741C1553.04 72.3744 1552.99 72.3746 1552.89 72.3235L1525.3 63.2519L1468.75 63.0888C1468.64 63.0891 1468.59 63.0893 1468.49 63.0382L1444.41 54.5209L1389.55 54.3518C1389.45 54.3522 1389.35 54.3526 1389.3 54.3012L1368.3 46.2882L1315.1 46.1134C1315 46.1137 1314.89 46.1141 1314.79 46.063L1296.63 38.5551L1244.97 38.3749C1244.87 38.3752 1244.77 38.3756 1244.66 38.3245L1229.03 31.2713L1178.82 31.0861C1178.71 31.0864 1178.56 31.0355 1178.46 30.9843L1165.09 24.3353L1116.27 24.1967C1116.11 24.1972 1116.01 24.1461 1115.9 24.095L1104.6 17.7993L1057.06 17.6562C1056.91 17.6567 1056.75 17.6058 1056.65 17.5546L1047.2 11.613L1000.95 11.4654C1000.8 11.466 1000.64 11.415 1000.49 11.3125L992.743 5.72554L947.675 5.57381C947.263 5.57524 946.902 5.21597 946.9 4.80394C946.899 4.3919 947.258 4.03011 947.67 4.02867L992.995 4.17951C993.15 4.17897 993.304 4.22993 993.459 4.3324L1001.2 9.91939L1047.46 10.067C1047.61 10.0665 1047.77 10.1174 1047.87 10.1686L1057.32 16.1102L1104.8 16.2534C1104.96 16.2529 1105.06 16.304 1105.16 16.3552L1116.47 22.6509L1165.29 22.7895C1165.4 22.7891 1165.55 22.8401 1165.65 22.8912L1179.02 29.5402L1229.24 29.7254C1229.34 29.7251 1229.44 29.7247 1229.54 29.7759L1245.17 36.829L1296.84 37.0092C1296.94 37.0089 1297.04 37.0085 1297.14 37.0596L1315.3 44.5675L1368.51 44.7423C1368.61 44.742 1368.71 44.7416 1368.76 44.7929L1389.6 52.8065L1444.45 52.9756C1444.56 52.9752 1444.61 52.975 1444.71 53.0262L1468.79 61.5434L1525.35 61.7066C1525.45 61.7062 1525.5 61.706 1525.6 61.7572L1553.19 70.8288L1611.6 70.9854C1611.65 70.9853 1611.75 70.9849 1611.8 71.0362L1643.26 80.7639L1696.87 80.9373C1697.29 80.9358 1697.65 81.2951 1697.65 81.7072C1697.7 82.119 1697.34 82.4808 1696.93 82.4822Z" fill="#EBEFF6"/>
<path d="M1696.92 80.5251C1696.87 80.5253 1696.77 80.5256 1696.72 80.4743L1669.96 72.6874L1611.6 72.5306C1611.55 72.5307 1611.45 72.5311 1611.4 72.4798L1581.9 63.3633L1525.35 63.2002C1525.25 63.2005 1525.2 63.2007 1525.09 63.1496L1499.21 54.6386L1444.41 54.4694C1444.3 54.4697 1444.25 54.4699 1444.15 54.4188L1421.51 46.4115L1368.36 46.2365C1368.25 46.2368 1368.15 46.2372 1368.1 46.1859L1348.35 38.6836L1296.69 38.5034C1296.58 38.5037 1296.48 38.5041 1296.38 38.453L1279.25 31.3535L1229.03 31.1683C1228.93 31.1687 1228.83 31.169 1228.72 31.1179L1213.92 24.4224L1165.09 24.2838C1164.99 24.2841 1164.83 24.2332 1164.73 24.1821L1152.09 17.891L1104.6 17.7478C1104.45 17.7483 1104.34 17.6972 1104.24 17.646L1093.51 11.7089L1047.26 11.5613C1047.1 11.5619 1046.95 11.5109 1046.84 11.4598L1037.86 5.82557L992.794 5.67383C992.382 5.67527 992.02 5.316 992.019 4.90396C992.017 4.49193 992.377 4.13014 992.789 4.1287L1038.11 4.27954C1038.27 4.279 1038.42 4.32994 1038.53 4.38108L1047.51 10.0153L1093.76 10.1629C1093.91 10.1623 1094.02 10.2135 1094.12 10.2646L1104.85 16.2017L1152.34 16.345C1152.45 16.3446 1152.6 16.3956 1152.7 16.4468L1165.34 22.7377L1214.17 22.8764C1214.27 22.876 1214.38 22.8756 1214.48 22.9268L1229.29 29.6223L1279.45 29.8077C1279.56 29.8073 1279.66 29.807 1279.76 29.8581L1296.89 36.9575L1348.5 37.1379C1348.6 37.1376 1348.7 37.1372 1348.75 37.1885L1368.51 44.6908L1421.66 44.8658C1421.76 44.8655 1421.81 44.8653 1421.92 44.9164L1444.56 52.9237L1499.36 53.0929C1499.46 53.0926 1499.51 53.0924 1499.62 53.1436L1525.5 61.6545L1582 61.8178C1582.05 61.8176 1582.16 61.8173 1582.21 61.8686L1611.7 70.9851L1670.06 71.1419C1670.11 71.1417 1670.21 71.1414 1670.26 71.1927L1697.12 78.9792C1697.54 79.0808 1697.74 79.5436 1697.64 79.956C1697.59 80.3167 1697.28 80.5238 1696.92 80.5251Z" fill="#EBEFF6"/>
<path d="M1696.95 72.7992L1670.06 72.7385C1670.01 72.7387 1669.91 72.7391 1669.86 72.6878L1638.51 63.5778L1582.01 63.4145C1581.96 63.4147 1581.85 63.415 1581.8 63.3637L1554.16 54.8073L1499.36 54.6381C1499.26 54.6384 1499.21 54.6386 1499.11 54.5875L1474.82 46.5859L1421.66 46.4109C1421.56 46.4113 1421.51 46.4115 1421.41 46.3604L1400.11 38.812L1348.5 38.6316C1348.4 38.6319 1348.29 38.6323 1348.24 38.5809L1329.62 31.4867L1279.46 31.3013C1279.35 31.3017 1279.25 31.302 1279.15 31.2509L1262.95 24.5603L1214.13 24.4217C1214.02 24.422 1213.92 24.4224 1213.82 24.3712L1199.84 18.0849L1152.35 17.9417C1152.25 17.942 1152.09 17.8911 1151.99 17.8399L1140.02 11.8556L1093.77 11.708C1093.61 11.7086 1093.51 11.6574 1093.4 11.6063L1083.24 5.9762L1038.17 5.82449C1037.76 5.82593 1037.4 5.46666 1037.4 5.05462C1037.39 4.64259 1037.8 4.28062 1038.17 4.27936L1083.44 4.43034C1083.59 4.4298 1083.7 4.48096 1083.8 4.5321L1093.97 10.1622L1140.22 10.3097C1140.32 10.3094 1140.48 10.3604 1140.58 10.4115L1152.55 16.3958L1200.04 16.5391C1200.14 16.5387 1200.24 16.5384 1200.35 16.5895L1214.33 22.8758L1263.1 23.0146C1263.2 23.0142 1263.31 23.0139 1263.41 23.065L1279.61 29.7556L1329.77 29.9411C1329.88 29.9407 1329.98 29.9403 1330.03 29.9917L1348.65 37.0859L1400.26 37.2663C1400.36 37.2659 1400.41 37.2657 1400.52 37.3169L1421.81 44.8653L1474.97 45.0403C1475.07 45.0399 1475.12 45.0397 1475.23 45.0909L1499.51 53.0924L1554.26 53.2618C1554.31 53.2616 1554.42 53.2613 1554.47 53.3126L1582.11 61.869L1638.61 62.0323C1638.66 62.0321 1638.76 62.0318 1638.81 62.0831L1670.16 71.1931L1696.94 71.2541C1697.36 71.2527 1697.72 71.6119 1697.72 72.024C1697.72 72.4875 1697.41 72.7976 1696.95 72.7992Z" fill="#EBEFF6"/>
<path d="M1697.02 64.2491C1696.97 64.2493 1696.87 64.2497 1696.82 64.1983L1695.11 63.7407L1638.61 63.5774C1638.56 63.5776 1638.46 63.578 1638.41 63.5266L1609.02 54.9764L1554.27 54.8069C1554.22 54.8071 1554.11 54.8075 1554.06 54.7562L1528.13 46.7604L1474.97 46.5854C1474.87 46.5858 1474.82 46.586 1474.72 46.5348L1451.82 38.9919L1400.21 38.8116C1400.11 38.8119 1400.06 38.8121 1399.95 38.761L1379.89 31.6718L1329.73 31.4864C1329.62 31.4867 1329.52 31.4871 1329.47 31.4358L1311.88 24.75L1263.11 24.6112C1263 24.6116 1262.9 24.6119 1262.8 24.5608L1247.48 18.2277L1199.99 18.0844C1199.89 18.0847 1199.78 18.0851 1199.68 18.034L1186.42 12.0541L1140.17 11.9066C1140.07 11.9069 1139.91 11.856 1139.81 11.8048L1128.46 6.12735L1083.39 5.97565C1082.98 5.97709 1082.62 5.61782 1082.62 5.20578C1082.62 4.79375 1082.98 4.43196 1083.39 4.43052L1128.66 4.5815C1128.76 4.58114 1128.92 4.63211 1129.02 4.68326L1140.37 10.3607L1186.62 10.5083C1186.73 10.5079 1186.83 10.5076 1186.93 10.5587L1200.19 16.5385L1247.68 16.6818C1247.78 16.6814 1247.89 16.6811 1247.99 16.7322L1263.31 23.0654L1312.08 23.2041C1312.19 23.2038 1312.29 23.2034 1312.34 23.2547L1329.93 29.9405L1380.09 30.126C1380.2 30.1256 1380.25 30.1254 1380.35 30.1765L1400.41 37.2657L1452.02 37.4461C1452.12 37.4457 1452.18 37.4456 1452.28 37.4967L1475.17 45.0395L1528.33 45.2145C1528.38 45.2144 1528.48 45.214 1528.53 45.2653L1554.47 53.2611L1609.22 53.4305C1609.27 53.4303 1609.37 53.43 1609.43 53.4813L1638.81 62.0316L1695.26 62.195C1695.31 62.1949 1695.42 62.1945 1695.47 62.2458L1697.22 62.7548C1697.63 62.8564 1697.89 63.2675 1697.74 63.6801C1697.64 64.0409 1697.33 64.248 1697.02 64.2491Z" fill="#EBEFF6"/>
<path d="M1697.02 63.7856L1695.22 63.7919C1695.17 63.7921 1695.06 63.7924 1695.01 63.7411L1663.87 55.1969L1609.12 55.0275C1609.07 55.0277 1608.97 55.0281 1608.92 54.9767L1581.28 46.9354L1528.18 46.7602C1528.13 46.7604 1528.02 46.7608 1527.97 46.7094L1503.53 39.172L1451.92 38.9916C1451.82 38.992 1451.77 38.9922 1451.67 38.941L1430.11 31.857L1380 31.6715C1379.89 31.6718 1379.84 31.672 1379.74 31.6208L1360.76 24.8884L1311.99 24.7496C1311.88 24.75 1311.78 24.7504 1311.73 24.699L1295.12 18.3704L1247.63 18.2271C1247.53 18.2275 1247.43 18.2278 1247.32 18.1767L1232.83 12.2012L1186.58 12.0536C1186.48 12.054 1186.37 12.0543 1186.27 12.0032L1173.73 6.32987L1128.67 6.17817C1128.25 6.17961 1127.89 5.82033 1127.89 5.4083C1127.89 4.99626 1128.2 4.68616 1128.66 4.63303L1173.88 4.7842C1173.99 4.78384 1174.09 4.7835 1174.19 4.83464L1186.73 10.5079L1232.98 10.6555C1233.08 10.6551 1233.19 10.6548 1233.29 10.7059L1247.83 16.7328L1295.27 16.8762C1295.37 16.8758 1295.48 16.8755 1295.53 16.9268L1312.14 23.2555L1360.91 23.3943C1361.01 23.3939 1361.07 23.3937 1361.17 23.4448L1380.15 30.1773L1430.26 30.3629C1430.36 30.3625 1430.42 30.3623 1430.52 30.4135L1452.07 37.4975L1503.68 37.6778C1503.73 37.6777 1503.84 37.6773 1503.89 37.7286L1528.33 45.2661L1581.43 45.4412C1581.48 45.4411 1581.58 45.4407 1581.64 45.492L1609.27 53.5334L1664.02 53.7028C1664.07 53.7026 1664.18 53.7022 1664.23 53.7536L1695.37 62.2977L1697.07 62.2918C1697.48 62.2903 1697.84 62.6496 1697.84 63.0616C1697.79 63.4224 1697.43 63.7842 1697.02 63.7856Z" fill="#EBEFF6"/>
<path d="M1697.04 55.2872L1664.03 55.1964C1663.97 55.1966 1663.87 55.197 1663.82 55.1456L1634.59 47.1098L1581.49 46.9347C1581.44 46.9349 1581.33 46.9352 1581.28 46.8839L1555.3 39.3519L1503.74 39.1713C1503.69 39.1715 1503.58 39.1718 1503.53 39.1205L1480.48 31.9903L1430.37 31.8046C1430.27 31.805 1430.21 31.8052 1430.11 31.7541L1409.74 25.0265L1361.02 24.8875C1360.92 24.8879 1360.86 24.8881 1360.76 24.8369L1342.82 18.5129L1295.33 18.3697C1295.22 18.37 1295.12 18.3704 1295.07 18.3191L1279.34 12.2964L1233.09 12.1488C1232.98 12.1492 1232.88 12.1495 1232.78 12.0984L1219.06 6.42919L1173.99 6.27749C1173.58 6.27893 1173.22 5.91965 1173.22 5.50762C1173.21 5.09558 1173.57 4.68229 1173.99 4.73235L1219.21 4.88352C1219.31 4.88316 1219.41 4.88282 1219.52 4.93396L1233.24 10.6031L1279.44 10.7509C1279.54 10.7505 1279.64 10.7502 1279.7 10.8015L1295.43 16.8242L1342.91 16.9674C1343.02 16.9671 1343.07 16.9669 1343.17 17.0181L1361.12 23.342L1409.84 23.481C1409.94 23.4806 1410 23.4804 1410.1 23.5316L1430.47 30.2592L1480.58 30.4448C1480.63 30.4446 1480.74 30.4442 1480.79 30.4955L1503.84 37.6258L1555.39 37.8064C1555.44 37.8062 1555.55 37.8058 1555.6 37.8571L1581.58 45.3892L1634.69 45.5644C1634.74 45.5642 1634.84 45.5638 1634.89 45.6152L1664.12 53.6509L1697.04 53.7421C1697.45 53.7406 1697.81 54.0999 1697.81 54.5119C1697.81 54.924 1697.45 55.2858 1697.04 55.2872Z" fill="#EBEFF6"/>
<path d="M1697.07 49.673C1697.02 49.6732 1696.92 49.6736 1696.87 49.6737L1687.74 47.2848L1634.69 47.1095C1634.64 47.1097 1634.54 47.11 1634.49 47.0587L1606.96 39.4805L1555.4 39.3C1555.35 39.3002 1555.24 39.3005 1555.19 39.2492L1530.7 32.124L1480.59 31.9384C1480.54 31.9385 1480.43 31.9389 1480.38 31.8876L1458.62 25.1649L1409.9 25.0259C1409.8 25.0263 1409.74 25.0264 1409.64 24.9753L1390.41 18.6043L1342.97 18.4609C1342.87 18.4612 1342.82 18.4614 1342.71 18.4103L1325.69 12.3921L1279.49 12.2443C1279.39 12.2447 1279.29 12.245 1279.24 12.1937L1264.33 6.52867L1219.26 6.37696C1218.85 6.3784 1218.49 6.01913 1218.49 5.60709C1218.49 5.19506 1218.85 4.83327 1219.26 4.83183L1264.43 4.98317C1264.53 4.98281 1264.64 4.98247 1264.69 5.0338L1279.59 10.6988L1325.79 10.8466C1325.9 10.8462 1325.95 10.846 1326.05 10.8972L1343.07 16.9154L1390.5 17.0588C1390.61 17.0585 1390.66 17.0583 1390.76 17.1094L1410 23.4804L1458.72 23.6194C1458.77 23.6192 1458.87 23.6188 1458.93 23.6702L1480.68 30.3929L1530.8 30.5785C1530.85 30.5783 1530.95 30.578 1531.01 30.6293L1555.5 37.7545L1607.05 37.935C1607.1 37.9349 1607.21 37.9345 1607.26 37.9858L1634.79 45.564L1687.84 45.7393C1687.89 45.7392 1687.99 45.7388 1688.05 45.7386L1697.27 48.1272C1697.69 48.2287 1697.95 48.6399 1697.84 49.0523C1697.74 49.4646 1697.38 49.6719 1697.07 49.673Z" fill="#EBEFF6"/>
<path d="M1697.07 47.3038L1687.79 47.2847C1687.74 47.2848 1687.64 47.2852 1687.59 47.2854L1658.51 39.7126L1607.01 39.5319C1606.96 39.5321 1606.85 39.5324 1606.8 39.4811L1580.82 32.3611L1530.75 32.1753C1530.7 32.1755 1530.6 32.1758 1530.55 32.1245L1507.4 25.4066L1458.67 25.2677C1458.62 25.2679 1458.52 25.2683 1458.47 25.2169L1437.9 18.8506L1390.46 18.7071C1390.36 18.7075 1390.3 18.7077 1390.2 18.6566L1371.95 12.6427L1325.75 12.4949C1325.64 12.4953 1325.59 12.4955 1325.49 12.4443L1309.35 6.73208L1264.33 6.5802C1263.92 6.58163 1263.56 6.22236 1263.56 5.81033C1263.56 5.39829 1263.97 4.98482 1264.33 5.03506L1309.5 5.1864C1309.6 5.18605 1309.65 5.18585 1309.75 5.237L1325.9 10.9492L1372.1 11.097C1372.2 11.0966 1372.25 11.0965 1372.35 11.1476L1390.61 17.1615L1438.04 17.3049C1438.1 17.3048 1438.2 17.3044 1438.25 17.3557L1458.82 23.722L1507.55 23.861C1507.6 23.8608 1507.7 23.8604 1507.75 23.9118L1530.9 30.6296L1580.97 30.8154C1581.02 30.8152 1581.12 30.8149 1581.17 30.8662L1607.16 37.9862L1658.66 38.167C1658.71 38.1668 1658.82 38.1664 1658.87 38.1662L1687.94 45.739L1697.11 45.7585C1697.52 45.7571 1697.89 46.1163 1697.89 46.5284C1697.84 46.9921 1697.48 47.3024 1697.07 47.3038Z" fill="#EBEFF6"/>
<path d="M1697.09 39.8355L1658.62 39.7123C1658.56 39.7125 1658.46 39.7128 1658.41 39.713L1630.98 32.598L1580.92 32.4122C1580.87 32.4124 1580.77 32.4127 1580.71 32.3614L1556.17 25.6484L1507.5 25.5093C1507.45 25.5095 1507.35 25.5098 1507.3 25.4585L1485.44 19.0967L1438 18.9532C1437.95 18.9534 1437.84 18.9538 1437.79 18.9025L1418.3 12.8929L1372.1 12.7451C1372 12.7455 1371.95 12.7457 1371.84 12.6945L1354.52 6.98643L1309.5 6.83455C1309.09 6.83599 1308.73 6.47672 1308.73 6.06468C1308.73 5.65264 1309.09 5.29085 1309.5 5.28942L1354.67 5.44076C1354.77 5.4404 1354.82 5.44024 1354.93 5.49138L1372.25 11.1994L1418.45 11.3472C1418.5 11.347 1418.61 11.3467 1418.66 11.398L1438.15 17.4076L1485.58 17.551C1485.64 17.5508 1485.74 17.5505 1485.79 17.6018L1507.65 23.9636L1556.32 24.1028C1556.38 24.1026 1556.48 24.1022 1556.53 24.1535L1581.07 30.8666L1631.13 31.0523C1631.19 31.0522 1631.29 31.0518 1631.34 31.0516L1658.77 38.1666L1697.14 38.2902C1697.55 38.2887 1697.91 38.648 1697.91 39.06C1697.86 39.4723 1697.55 39.8339 1697.09 39.8355Z" fill="#EBEFF6"/>
<path d="M1697.13 36.642C1697.08 36.6422 1697.03 36.6424 1696.92 36.6428L1681.15 32.7319L1631.09 32.5461C1631.04 32.5463 1630.93 32.5467 1630.88 32.5469L1605 25.787L1556.33 25.6479C1556.28 25.6481 1556.17 25.6484 1556.12 25.5971L1532.92 19.2399L1485.54 19.0963C1485.49 19.0965 1485.38 19.0969 1485.33 19.0455L1464.61 13.0403L1418.46 12.8924C1418.41 12.8925 1418.3 12.8929 1418.25 12.8416L1399.74 7.13763L1354.72 6.98571C1354.31 6.98715 1353.95 6.62788 1353.95 6.21584C1353.95 5.80381 1354.2 5.44238 1354.72 5.44058L1399.84 5.59213C1399.89 5.59196 1399.99 5.59158 1400.04 5.64291L1418.55 11.3469L1464.7 11.4948C1464.76 11.4946 1464.86 11.4943 1464.91 11.5456L1485.64 17.5508L1533.02 17.6945C1533.07 17.6943 1533.18 17.6939 1533.23 17.7453L1556.43 24.1024L1605.1 24.2415C1605.15 24.2413 1605.25 24.241 1605.31 24.2408L1631.18 31.0006L1681.25 31.1864C1681.3 31.1862 1681.35 31.1861 1681.45 31.1857L1697.33 35.0962C1697.74 35.1978 1698 35.6089 1697.9 36.0213C1697.8 36.3822 1697.49 36.6408 1697.13 36.642Z" fill="#EBEFF6"/>
<path d="M1697.12 32.7792L1681.25 32.7316C1681.2 32.7317 1681.15 32.7319 1681.05 32.7323L1653.78 25.9773L1605.11 25.8382C1605.05 25.8383 1604.95 25.8387 1604.9 25.8389L1580.41 19.4862L1533.03 19.3426C1532.98 19.3428 1532.87 19.3432 1532.82 19.2918L1510.86 13.2394L1464.71 13.0915C1464.66 13.0916 1464.55 13.092 1464.5 13.0407L1444.81 7.34082L1399.79 7.18894C1399.38 7.19038 1399.02 6.83111 1399.02 6.41907C1399.02 6.00704 1399.38 5.64525 1399.79 5.64381L1444.91 5.79533C1444.96 5.79515 1445.06 5.79481 1445.11 5.84614L1464.81 11.546L1510.96 11.6939C1511.01 11.6937 1511.11 11.6933 1511.16 11.7447L1533.12 17.7971L1580.51 17.9407C1580.56 17.9405 1580.66 17.9402 1580.72 17.94L1605.2 24.2927L1653.88 24.4318C1653.93 24.4316 1653.98 24.4315 1654.08 24.4311L1681.35 31.1861L1697.16 31.2339C1697.58 31.2325 1697.94 31.5917 1697.94 32.0038C1697.89 32.416 1697.58 32.7776 1697.12 32.7792Z" fill="#EBEFF6"/>
<path d="M1697.2 26.0833C1697.15 26.0834 1697.15 26.0834 1697.2 26.0833L1653.88 25.9254C1653.83 25.9256 1653.78 25.9258 1653.67 25.9261L1627.85 19.5267L1580.51 19.3829C1580.46 19.3831 1580.36 19.3834 1580.31 19.3836L1557.06 13.3356L1510.91 13.1877C1510.86 13.1879 1510.76 13.1882 1510.7 13.1369L1489.82 7.38972L1444.86 7.23766C1444.45 7.2391 1444.09 6.87983 1444.08 6.46779C1444.08 6.05576 1444.44 5.69397 1444.85 5.69253L1489.92 5.84423C1489.97 5.84405 1490.08 5.84368 1490.13 5.895L1511.01 11.6422L1557.16 11.7901C1557.21 11.79 1557.31 11.7896 1557.36 11.7894L1580.61 17.8374L1627.95 17.9812C1628 17.981 1628.05 17.9808 1628.15 17.9805L1653.98 24.3799L1697.19 24.5381C1697.6 24.5367 1697.97 24.896 1697.97 25.308C1697.92 25.7202 1697.61 26.0818 1697.2 26.0833Z" fill="#EBEFF6"/>
<path d="M1697.19 24.7956C1697.14 24.7958 1697.09 24.796 1696.99 24.7964L1675.29 19.6701L1627.95 19.5263C1627.9 19.5265 1627.85 19.5267 1627.75 19.527L1603.26 13.4834L1557.16 13.3353C1557.11 13.3354 1557.01 13.3358 1556.96 13.336L1534.94 7.59276L1489.98 7.44067C1489.57 7.4421 1489.2 7.08283 1489.2 6.6708C1489.2 6.25876 1489.56 5.89697 1489.97 5.89553L1535.04 6.04727C1535.09 6.04709 1535.2 6.04673 1535.25 6.04655L1557.26 11.7898L1603.36 11.9379C1603.41 11.9377 1603.46 11.9375 1603.56 11.9372L1628.05 17.9808L1675.38 18.1246C1675.43 18.1244 1675.49 18.1242 1675.54 18.1241L1697.34 23.25C1697.75 23.3515 1698.01 23.7627 1697.91 24.1751C1697.86 24.5873 1697.5 24.7946 1697.19 24.7956Z" fill="#EBEFF6"/>
<path d="M1697.17 19.7482L1675.39 19.6697C1675.34 19.6699 1675.29 19.6701 1675.23 19.6703L1649.56 13.6308L1603.47 13.4827C1603.41 13.4828 1603.36 13.483 1603.26 13.4834L1580.06 7.74429L1535.1 7.59223C1534.69 7.59366 1534.32 7.23439 1534.32 6.82236C1534.32 6.41032 1534.63 6.04871 1535.09 6.04709L1580.11 6.19898C1580.16 6.1988 1580.21 6.19861 1580.31 6.19826L1603.51 11.9373L1649.61 12.0855C1649.66 12.0853 1649.71 12.0851 1649.76 12.0849L1675.43 18.1244L1697.17 18.2031C1697.58 18.2017 1697.94 18.5609 1697.94 18.973C1697.95 19.4365 1697.64 19.7466 1697.17 19.7482Z" fill="#EBEFF6"/>
<path d="M1697.21 14.0826C1697.16 14.0827 1697.1 14.0829 1697.05 14.0831L1695.71 13.7787L1649.61 13.6306C1649.56 13.6308 1649.51 13.631 1649.46 13.6312L1625.08 7.8962L1580.17 7.74392C1579.75 7.74536 1579.39 7.38609 1579.39 6.97405C1579.39 6.56202 1579.75 6.20023 1580.16 6.19879L1625.18 6.3507C1625.23 6.35052 1625.28 6.35034 1625.33 6.35016L1649.71 12.0851L1695.81 12.2332C1695.86 12.233 1695.91 12.2329 1695.96 12.2327L1697.41 12.5367C1697.82 12.6383 1698.08 13.0494 1697.98 13.4618C1697.88 13.8742 1697.57 14.0813 1697.21 14.0826Z" fill="#EBEFF6"/>
<path d="M1697.21 13.7735L1695.76 13.7785C1695.71 13.7787 1695.66 13.7789 1695.61 13.7791L1670.04 8.04826L1625.13 7.89602C1624.72 7.89746 1624.36 7.53819 1624.35 7.12615C1624.35 6.71412 1624.71 6.35233 1625.12 6.35089L1670.14 6.50277C1670.19 6.50259 1670.24 6.50241 1670.29 6.50223L1695.86 12.2331L1697.2 12.2284C1697.61 12.2269 1697.97 12.5862 1697.98 12.9982C1697.98 13.4103 1697.67 13.7719 1697.21 13.7735Z" fill="#EBEFF6"/>
<path d="M1694.97 510.651C1694.82 510.651 1694.67 510.6 1694.51 510.498L1669.31 492.404L-245.548 490.796L-280.84 517.342C-281.199 517.6 -281.663 517.551 -281.922 517.191C-282.181 516.831 -282.131 516.368 -281.771 516.109L-246.274 489.408C-246.12 489.305 -246.017 489.304 -245.811 489.252L1669.62 490.858C1669.77 490.858 1669.93 490.909 1670.08 491.011L1695.48 509.258C1695.85 509.515 1695.9 509.978 1695.64 510.339C1695.49 510.546 1695.23 510.65 1694.97 510.651Z" fill="#EBEFF6"/>
<path d="M1695.54 392.651L1655.83 392.583C1655.68 392.584 1655.52 392.533 1655.42 392.482L1077.66 30.7696L318.569 28.3204L-239.102 389.927C-239.205 390.03 -239.359 390.031 -239.514 390.031L-280.718 389.969C-281.13 389.971 -281.492 389.611 -281.493 389.199C-281.495 388.787 -281.187 388.374 -280.723 388.424L-239.777 388.487L317.894 26.8806C317.997 26.7772 318.203 26.7765 318.306 26.7761L1077.86 29.2237C1078.01 29.2232 1078.17 29.2742 1078.27 29.3253L1656.03 391.089L1695.54 391.157C1695.95 391.156 1696.31 391.515 1696.31 391.927C1696.31 392.339 1695.95 392.649 1695.54 392.651Z" fill="#EBEFF6"/>
<path d="M-238.346 1.57603L-278.984 1.46036C-279.396 1.46179 -279.757 1.10252 -279.759 0.690486C-279.76 0.27845 -279.401 -0.0833396 -278.989 -0.0847778L-238.351 0.0308939C-237.939 0.0294556 -237.577 0.388728 -237.576 0.800764C-237.574 1.2643 -237.882 1.57441 -238.346 1.57603Z" fill="#EBEFF6"/>
<path d="M-240.313 13.3776L-279.046 13.2552C-279.458 13.2567 -279.819 12.8974 -279.821 12.4854C-279.822 12.0733 -279.463 11.7115 -279.051 11.7101L-240.422 11.8328L-192.666 0.231962C-192.614 0.231782 -192.563 0.231602 -192.459 0.231243L-100.779 0.529285C-100.367 0.527846 -100.006 0.887119 -100.004 1.29915C-100.003 1.71119 -100.362 2.02148 -100.774 2.07442L-192.403 1.7762L-240.159 13.377C-240.159 13.377 -240.262 13.3774 -240.313 13.3776Z" fill="#EBEFF6"/>
<path d="M1694.02 724.812L1604.56 724.867C1604.35 724.868 1604.15 724.765 1603.99 724.611L907.469 11.1222L488.316 9.70105L-75.7087 631.482C-75.8626 631.637 -76.0681 631.792 -76.2743 631.741L-254.276 631.745L-281.386 655.995C-281.694 656.254 -282.209 656.256 -282.468 655.947C-282.778 655.639 -282.728 655.124 -282.42 654.866L-255.053 630.408C-254.899 630.305 -254.745 630.201 -254.539 630.2L-76.5887 630.197L487.436 8.46799C487.59 8.31293 487.744 8.20939 488.002 8.20849L907.825 9.62733C908.031 9.62661 908.237 9.7289 908.392 9.88287L1604.91 723.372L1694.07 723.318C1694.48 723.317 1694.84 723.676 1694.84 724.088C1694.85 724.5 1694.49 724.81 1694.02 724.812Z" fill="#EBEFF6"/>
<path d="M-242.482 26.4674L-279.103 26.3377C-279.515 26.3391 -279.877 25.9799 -279.878 25.5678C-279.88 25.1558 -279.52 24.794 -279.108 24.7926L-242.591 24.9226L-216.707 18.2911C-216.655 18.2909 -216.552 18.2906 -216.501 18.2904L-166.901 18.4778L-143.797 12.2166C-143.745 12.2164 -143.694 12.1647 -143.591 12.1643L-95.3817 12.3051L-74.8005 6.36167C-74.749 6.36149 -74.646 6.36112 -74.5946 6.30943L19.2486 6.59992L36.3287 0.97776C36.7402 0.821809 37.1531 1.07789 37.3091 1.48939C37.465 1.90088 37.2089 2.3138 36.7974 2.46975L19.6661 8.14362C19.5631 8.14398 19.5117 8.19565 19.4087 8.19601L-74.486 7.90573L-95.0673 13.8491C-95.1188 13.8493 -95.2217 13.9012 -95.2732 13.9014L-143.482 13.7606L-166.586 20.0219C-166.638 20.022 -166.689 20.0222 -166.792 20.0741L-216.392 19.8867L-242.276 26.5182C-242.379 26.4671 -242.431 26.4672 -242.482 26.4674Z" fill="#EBEFF6"/>
<path d="M1695.07 492.418L1669.57 492.404C1669.42 492.404 1669.26 492.353 1669.11 492.251L1017.84 23.8707L378.343 21.7766L-245.343 490.641C-245.497 490.745 -245.651 490.797 -245.806 490.797L-281.19 490.766C-281.602 490.768 -281.964 490.408 -281.965 489.996C-281.967 489.584 -281.607 489.222 -281.195 489.221L-246.069 489.253L377.618 20.3885C377.772 20.2849 377.926 20.2329 378.081 20.2323L1018.09 22.3247C1018.24 22.3241 1018.4 22.3751 1018.55 22.4776L1669.87 490.857L1695.11 490.872C1695.52 490.871 1695.89 491.23 1695.89 491.642C1695.84 492.054 1695.53 492.416 1695.07 492.418Z" fill="#EBEFF6"/>
<path d="M-244.955 41.2065L-279.154 41.1199C-279.566 41.1213 -279.928 40.762 -279.93 40.35C-279.931 39.938 -279.572 39.5762 -279.16 39.5747L-245.063 39.6617L-217.585 32.2006C-217.534 32.2004 -217.483 32.1487 -217.379 32.1484L-164.895 32.3257L-140.506 25.2874C-140.455 25.2872 -140.352 25.2353 -140.301 25.2351L-89.3614 25.4179L-67.8039 18.8015C-67.7524 18.8013 -67.6494 18.8009 -67.598 18.7493L-18.101 18.937L0.934059 12.69C1.03707 12.6896 1.08841 12.6379 1.19142 12.6375L49.2976 12.7787L82.0659 1.17866C82.1687 1.1268 82.2202 1.1266 82.3232 1.12624L173.746 1.42518C174.158 1.42374 174.52 1.78301 174.521 2.19505C174.522 2.60709 174.112 2.91755 173.751 2.97031L82.4316 2.67101L49.6634 14.271C49.5606 14.3229 49.5091 14.3231 49.4061 14.3234L1.29983 14.1823L-17.7353 20.4294C-17.8383 20.4297 -17.8898 20.4299 -17.9926 20.4818L-67.4896 20.294L-89.0472 26.9104C-89.0987 26.9106 -89.2017 26.911 -89.253 26.9626L-140.192 26.7799L-164.581 33.8182C-164.632 33.8184 -164.735 33.8703 -164.787 33.8705L-217.271 33.6931L-244.749 41.1543C-244.8 41.206 -244.903 41.2063 -244.955 41.2065Z" fill="#EBEFF6"/>
<path d="M-247.729 57.8008L-279.251 57.7048C-279.663 57.7063 -280.025 57.347 -280.026 56.935C-280.028 56.5229 -279.617 56.2125 -279.256 56.1597L-247.889 56.2562L-218.612 47.8102C-218.561 47.81 -218.458 47.7582 -218.407 47.758L-162.626 47.9238L-136.85 40.005C-136.798 40.0049 -136.695 40.0045 -136.644 39.9528L-82.6144 40.1248L-59.9782 32.6805C-59.8752 32.6802 -59.8238 32.6285 -59.7208 32.6281L-7.33954 32.8058L12.4654 25.7835C12.5682 25.7316 12.6712 25.7313 12.7227 25.7311L63.5589 25.9142L80.8415 19.3127C80.9444 19.2608 80.9959 19.2607 81.0989 19.2603L130.493 19.3969L145.459 13.1641C145.562 13.1122 145.665 13.1118 145.768 13.1115L193.771 13.2529L206.678 7.33632C206.781 7.28446 206.884 7.28408 206.987 7.28372L300.521 7.57529L310.339 1.97848C310.699 1.7712 311.163 1.87258 311.37 2.28389C311.578 2.64371 311.476 3.10761 311.065 3.31506L301.093 9.01543C300.99 9.06729 300.836 9.11934 300.733 9.1197L207.198 8.82813L194.394 14.7444C194.291 14.7963 194.188 14.7966 194.085 14.797L146.082 14.6555L131.116 20.8884C131.013 20.9402 130.91 20.9406 130.807 20.941L81.4133 20.8044L64.1306 27.4058C64.0278 27.4577 63.9246 27.4065 63.8733 27.4582L13.0372 27.2751L-6.76779 34.2975C-6.87062 34.3493 -6.92214 34.3495 -7.02515 34.3499L-59.4064 34.1722L-82.0427 41.6164C-82.1457 41.6168 -82.1972 41.617 -82.3 41.6688L-136.329 41.4969L-162.209 49.4675C-162.26 49.4677 -162.363 49.5195 -162.414 49.5197L-218.195 49.3539L-247.472 57.7999C-247.575 57.8003 -247.678 57.8006 -247.729 57.8008Z" fill="#EBEFF6"/>
<path d="M-279.36 85.4149C-279.669 85.416 -279.979 85.2111 -280.083 84.8509C-280.188 84.4392 -279.983 84.0265 -279.572 83.8705L-251.12 75.1184C-251.068 75.1182 -250.966 75.0663 -250.914 75.0661L-189.365 75.2633L-160.092 65.6327C-159.989 65.6324 -159.938 65.5807 -159.835 65.5803L-100.397 65.7849L-74.9851 56.7858C-74.8823 56.7339 -74.7793 56.7336 -74.7277 56.7334L-17.2475 56.8933L4.76725 48.4726C4.87008 48.4207 4.9731 48.4204 5.02461 48.4202L60.6506 48.5866L79.5769 40.6917C79.6798 40.6399 79.7828 40.6395 79.8858 40.6391L133.761 40.8116L149.959 33.3899C150.062 33.338 150.165 33.2861 150.268 33.3373L202.495 33.5155L216.273 26.5142C216.376 26.4624 216.479 26.4105 216.634 26.4099L267.315 26.5936L278.881 20.0121C278.984 19.9602 279.138 19.9596 279.241 19.9078L328.429 20.0451L337.987 13.8312C338.09 13.7278 338.244 13.7272 338.399 13.7267L386.196 13.8689L393.953 8.02173C394.107 7.91818 394.261 7.86615 394.416 7.86561L487.59 8.15844L492.515 2.73321C492.823 2.4231 493.286 2.36996 493.597 2.67791C493.907 2.98586 493.96 3.44924 493.652 3.75934L488.47 9.44299C488.316 9.59804 488.058 9.65045 487.904 9.70249L394.627 9.41002L386.87 15.2572C386.716 15.3607 386.562 15.4128 386.407 15.4133L338.559 15.2713L329.001 21.4853C328.898 21.5886 328.743 21.5892 328.589 21.5897L279.349 21.4526L267.784 28.0341C267.681 28.0859 267.578 28.1378 267.424 28.1383L216.742 27.9547L202.963 34.956C202.86 35.0079 202.757 35.0597 202.603 35.0603L150.376 34.882L134.178 42.3038C134.075 42.3557 133.972 42.356 133.869 42.3564L79.9942 42.1839L61.0679 50.0788C60.9651 50.1306 60.9136 50.1308 60.7591 50.1313L5.13299 49.965L-16.8818 58.3856C-16.9846 58.4375 -17.0876 58.4379 -17.1391 58.4381L-74.6193 58.2782L-100.031 67.2772C-100.134 67.3291 -100.186 67.3293 -100.289 67.3296L-159.726 67.1251L-188.999 76.7557C-189.102 76.756 -189.205 76.7564 -189.256 76.8081L-250.806 76.6109L-279.103 85.414C-279.206 85.4144 -279.257 85.4146 -279.36 85.4149Z" fill="#EBEFF6"/>
<path d="M-250.908 76.6628L-279.34 76.556C-279.752 76.5574 -280.113 76.1982 -280.115 75.7861C-280.116 75.3741 -279.757 75.0123 -279.345 75.0108L-251.068 75.1182L-219.735 65.4804C-219.684 65.4802 -219.581 65.4798 -219.53 65.4281L-160.04 65.6325L-132.671 56.6266C-132.568 56.6262 -132.517 56.5746 -132.414 56.5742L-74.9337 56.7341L-51.1162 48.3071C-51.0134 48.2553 -50.9619 48.2551 -50.8589 48.2547L4.76719 48.4211L25.4447 40.5202C25.5475 40.4683 25.599 40.4681 25.702 40.4677L79.6284 40.64L97.4748 33.2125C97.5776 33.1607 97.6806 33.1603 97.7836 33.1599L150.062 33.338L165.334 26.3315C165.437 26.2796 165.54 26.2278 165.643 26.2789L216.376 26.4624L229.384 19.8758C229.487 19.8239 229.641 19.7719 229.744 19.7715L278.984 19.9087L289.881 13.69C289.984 13.6382 290.138 13.5861 290.241 13.5858L338.09 13.7278L355.922 2.1799C356.025 2.07653 356.179 2.07599 356.333 2.07545L447.499 2.37529C447.911 2.37385 448.272 2.73312 448.274 3.14516C448.275 3.55719 447.916 3.86748 447.504 3.92042L356.545 3.61986L338.713 15.1677C338.61 15.2711 338.456 15.3232 338.301 15.2722L290.401 15.1304L279.504 21.349C279.401 21.4009 279.247 21.4529 279.144 21.4533L229.853 21.3163L216.845 27.9029C216.742 27.9547 216.639 28.0066 216.485 28.0071L165.752 27.8237L150.479 34.8302C150.376 34.882 150.273 34.8824 150.17 34.8827L97.892 34.7047L80.0456 42.1322C79.9428 42.1841 79.8398 42.1845 79.7368 42.1848L25.8104 42.0125L5.13293 49.9135C5.0301 49.9653 4.92707 49.9657 4.87557 49.9659L-50.802 49.7997L-74.6194 58.2266C-74.7222 58.2785 -74.7737 58.2787 -74.8768 58.2791L-132.408 58.1193L-159.778 67.1252C-159.881 67.1256 -159.932 67.1773 -160.035 67.1777L-219.524 66.9733L-250.857 76.6111C-250.754 76.6622 -250.805 76.6624 -250.908 76.6628Z" fill="#EBEFF6"/>
<path d="M1694.47 631.947L1688.91 631.966C1688.7 631.967 1688.55 631.916 1688.39 631.762L961.211 17.3212L434.875 15.6046L-254.071 631.538C-254.225 631.641 -254.431 631.694 -254.585 631.746L-281.831 631.738C-282.243 631.739 -282.605 631.38 -282.606 630.968C-282.608 630.556 -282.248 630.194 -281.836 630.193L-254.899 630.202L433.994 14.2686C434.148 14.165 434.303 14.0615 434.509 14.0608L961.463 15.7752C961.669 15.7745 961.824 15.8254 961.979 15.9794L1689.16 630.369L1694.47 630.35C1694.88 630.349 1695.24 630.708 1695.24 631.12C1695.24 631.532 1694.88 631.945 1694.47 631.947Z" fill="#EBEFF6"/>
<path d="M1697.24 8.10785L1670.15 7.99642C1669.73 7.99786 1669.37 7.63858 1669.37 7.22655C1669.37 6.81451 1669.73 6.40122 1670.14 6.45129L1697.23 6.56272C1697.64 6.56128 1698.01 6.92055 1698.01 7.33259C1698.01 7.74462 1697.7 8.10623 1697.24 8.10785Z" fill="#EBEFF6"/>
<path d="M1696.79 115.91L1685.05 115.899C1684.94 115.899 1684.89 115.9 1684.79 115.848L1614.25 92.6083L-220.587 87.2185L-279.183 106.531C-279.595 106.687 -280.008 106.431 -280.164 106.02C-280.32 105.608 -280.064 105.195 -279.652 105.039L-220.952 85.7261C-220.849 85.7257 -220.798 85.6741 -220.695 85.6737L1614.35 91.0113C1614.45 91.011 1614.5 91.0108 1614.6 91.0619L1685.14 114.302L1696.78 114.313C1697.2 114.311 1697.56 114.671 1697.56 115.083C1697.56 115.598 1697.2 115.908 1696.79 115.91Z" fill="#EBEFF6"/>
<path d="M1696.8 103.96L-279.418 98.2914C-279.83 98.2928 -280.192 97.9336 -280.194 97.5215C-280.195 97.1095 -279.836 96.7992 -279.424 96.7463L1696.79 102.415C1697.21 102.414 1697.57 102.773 1697.57 103.185C1697.57 103.597 1697.26 103.959 1696.8 103.96Z" fill="#EBEFF6"/>
<path d="M1696.63 142.847L1694.31 142.855C1694.21 142.856 1694.15 142.856 1694.05 142.805L1521.91 81.96L-127.449 77.0559L-279.305 130.842C-279.716 130.998 -280.129 130.794 -280.285 130.382C-280.441 129.971 -280.236 129.558 -279.825 129.402L-127.867 75.5637C-127.764 75.5118 -127.712 75.5116 -127.609 75.5113L1522.06 80.4144C1522.17 80.414 1522.22 80.4138 1522.32 80.465L1694.46 141.31L1696.62 141.302C1697.03 141.301 1697.39 141.66 1697.4 142.072C1697.4 142.536 1697.09 142.846 1696.63 142.847Z" fill="#EBEFF6"/>
<path d="M1696.73 128.838L-279.536 123.478C-279.948 123.479 -280.31 123.12 -280.312 122.708C-280.313 122.296 -279.954 121.934 -279.542 121.933L1696.68 127.344C1697.09 127.343 1697.45 127.702 1697.45 128.114C1697.5 128.526 1697.14 128.836 1696.73 128.838Z" fill="#EBEFF6"/>
<path d="M1696.52 171.33C1696.42 171.33 1696.31 171.331 1696.26 171.279L1661.4 158.01L-263.57 153.037L-279.412 159.119C-279.823 159.275 -280.236 159.07 -280.392 158.659C-280.548 158.247 -280.343 157.834 -279.932 157.679L-263.935 151.545C-263.832 151.493 -263.729 151.493 -263.678 151.493L1661.5 156.464C1661.6 156.464 1661.7 156.463 1661.75 156.515L1696.77 169.835C1697.18 169.988 1697.39 170.451 1697.24 170.812C1697.14 171.173 1696.83 171.329 1696.52 171.33Z" fill="#EBEFF6"/>
<path d="M-279.002 10.9888C-279.362 10.9901 -279.672 10.7336 -279.777 10.3735C-279.881 9.9618 -279.625 9.54887 -279.213 9.44443L-263.054 5.73117C-263.002 5.73099 -262.951 5.73081 -262.899 5.73063L-168.798 6.02019L-146.825 0.380951C-146.414 0.276504 -146.001 0.532607 -145.896 0.944283C-145.792 1.35596 -146.048 1.76889 -146.46 1.87333L-168.536 7.51293C-168.587 7.51311 -168.639 7.5648 -168.742 7.51365L-262.842 7.22406L-278.951 10.9372C-278.899 10.9885 -278.95 10.9887 -279.002 10.9888Z" fill="#EBEFF6"/>
<path d="M-262.842 7.22406L-279.015 7.17752C-279.427 7.17896 -279.789 6.81969 -279.791 6.40765C-279.792 5.99561 -279.433 5.63382 -279.021 5.63239L-262.951 5.67931L-238.506 0.031437C-238.454 0.0312572 -238.403 0.0310737 -238.351 0.0308939L-192.46 0.179723C-192.048 0.178285 -191.686 0.537557 -191.684 0.949593C-191.683 1.36163 -192.042 1.72342 -192.454 1.72486L-238.243 1.57567L-262.688 7.22354C-262.739 7.22372 -262.791 7.22388 -262.842 7.22406Z" fill="#EBEFF6"/>
<path d="M1696.58 158.093L1661.5 158.009C1661.4 158.01 1661.3 158.01 1661.24 157.959L1435.76 72.0113L-40.5936 67.5333L-263.415 152.985C-263.518 153.037 -263.621 153.038 -263.673 153.038L-279.639 152.991C-280.051 152.992 -280.413 152.633 -280.415 152.221C-280.416 151.809 -280.108 151.396 -279.645 151.445L-263.833 151.493L-41.0109 66.0411C-40.908 65.9893 -40.805 65.9889 -40.7535 65.9887L1435.86 70.4658C1435.96 70.4654 1436.07 70.4651 1436.12 70.5164L1661.6 156.464L1696.52 156.548C1696.93 156.547 1697.29 156.906 1697.29 157.318C1697.35 157.73 1696.99 158.091 1696.58 158.093Z" fill="#EBEFF6"/>
<path d="M-279.064 22.7837C-279.424 22.785 -279.734 22.5286 -279.839 22.1684C-279.943 21.7567 -279.687 21.3438 -279.275 21.2393L-266.41 18.1041C-266.358 18.1039 -266.307 18.1038 -266.204 18.1034L-216.604 18.2908L-192.109 12.0247C-192.058 12.0245 -192.006 12.0243 -191.903 12.0239L-143.694 12.1647L-100.934 0.581316C-100.882 0.581136 -100.779 0.529284 -100.728 0.529105L-9.09934 0.827295C-8.6873 0.825857 -8.32553 1.18513 -8.32409 1.59716C-8.32265 2.0092 -8.68192 2.37099 -9.09396 2.37243L-100.62 2.07388L-143.38 13.6572C-143.431 13.6574 -143.534 13.7093 -143.586 13.7095L-191.846 13.5689L-216.341 19.835C-216.392 19.8352 -216.444 19.8869 -216.547 19.8357L-266.147 19.6484L-278.909 22.7317C-278.961 22.7834 -279.012 22.7836 -279.064 22.7837Z" fill="#EBEFF6"/>
<path d="M-266.25 19.6487L-279.075 19.5905C-279.487 19.5919 -279.849 19.2326 -279.85 18.8206C-279.852 18.4086 -279.492 18.0468 -279.08 18.0453L-266.358 18.1039L-240.525 11.8332C-240.473 11.833 -240.37 11.8326 -240.319 11.8324L-192.058 11.973L-168.901 6.02057C-168.85 6.02039 -168.747 6.02003 -168.695 6.01985L-74.6976 6.3098L-55.1453 0.679012C-54.7337 0.574565 -54.3209 0.779144 -54.1649 1.19064C-54.0605 1.60232 -54.2651 2.01508 -54.6766 2.17104L-74.3317 7.85368C-74.3832 7.85386 -74.4862 7.85424 -74.5375 7.90592L-168.587 7.56463L-191.743 13.517C-191.795 13.5172 -191.846 13.5174 -191.949 13.5178L-240.21 13.3772L-266.044 19.648C-266.095 19.6482 -266.147 19.6484 -266.25 19.6487Z" fill="#EBEFF6"/>
<path d="M1696.38 203.727C1696.27 203.727 1696.17 203.728 1696.07 203.677L1669.76 192.798L-269.421 188.184L-279.553 192.392C-279.965 192.548 -280.377 192.395 -280.585 191.983C-280.741 191.572 -280.588 191.159 -280.176 190.952L-269.89 186.641C-269.788 186.589 -269.685 186.589 -269.582 186.588L1669.91 191.252C1670.01 191.252 1670.12 191.252 1670.22 191.303L1696.68 202.232C1697.09 202.385 1697.25 202.848 1697.09 203.261C1696.94 203.571 1696.68 203.726 1696.38 203.727Z" fill="#EBEFF6"/>
<path d="M1696.44 192.859L1669.97 192.797C1669.86 192.798 1669.76 192.798 1669.66 192.747L1355.02 62.7132L40.5991 58.7L-269.267 188.081C-269.37 188.133 -269.473 188.133 -269.576 188.133L-279.826 188.118C-280.238 188.119 -280.6 187.76 -280.601 187.348C-280.602 186.936 -280.243 186.574 -279.831 186.573L-269.736 186.589L40.1818 57.2079C40.2846 57.156 40.3876 57.1556 40.4906 57.1553L1355.17 61.1675C1355.27 61.1671 1355.38 61.1668 1355.48 61.2179L1670.12 191.252L1696.43 191.314C1696.85 191.313 1697.21 191.672 1697.21 192.084C1697.21 192.548 1696.85 192.858 1696.44 192.859Z" fill="#EBEFF6"/>
<path d="M-279.121 35.8662C-279.482 35.8675 -279.792 35.611 -279.896 35.3024C-280 34.8907 -279.744 34.4778 -279.332 34.3733L-270.224 32.0238C-270.173 32.0236 -270.07 32.0233 -270.018 32.0231L-217.482 32.2002L-191.6 25.1567C-191.548 25.1565 -191.445 25.1561 -191.394 25.1045L-140.403 25.287L-117.404 18.6656C-117.352 18.6654 -117.249 18.6135 -117.198 18.6134L-67.7009 18.8011L-47.2752 12.5492C-47.2237 12.549 -47.1209 12.4972 -47.0693 12.497L1.08838 12.6379L19.1459 6.7033C19.2489 6.70295 19.3003 6.65124 19.4033 6.65088L113.144 6.94173L127.803 1.32802C128.214 1.17207 128.627 1.37666 128.783 1.78816C128.939 2.19965 128.734 2.61239 128.323 2.76834L113.509 8.43412C113.406 8.48598 113.355 8.48615 113.252 8.48651L19.4602 8.19584L1.40261 14.1305C1.2996 14.1308 1.24829 14.1825 1.14528 14.1829L-47.0124 14.0419L-67.4381 20.2938C-67.4896 20.294 -67.5925 20.3459 -67.644 20.3461L-117.192 20.1585L-140.192 26.7799C-140.244 26.7801 -140.346 26.832 -140.398 26.8321L-191.389 26.6496L-217.168 33.6928C-217.22 33.693 -217.322 33.7448 -217.374 33.745L-269.91 33.5679L-278.915 35.8655C-279.018 35.8659 -279.07 35.866 -279.121 35.8662Z" fill="#EBEFF6"/>
<path d="M-270.013 33.5167L-279.129 33.497C-279.541 33.4985 -279.903 33.1392 -279.905 32.7272C-279.906 32.3151 -279.599 31.902 -279.135 31.9519L-270.121 31.9719L-242.694 24.9745C-242.642 24.9743 -242.591 24.9742 -242.488 24.9738L-191.497 25.1563L-167.055 18.5299C-167.004 18.5297 -166.901 18.4778 -166.849 18.4776L-117.301 18.6137L-95.5362 12.3572C-95.4847 12.357 -95.3818 12.3051 -95.3303 12.3049L-47.1726 12.4459L-9.40844 0.828379C-9.35693 0.828199 -9.2541 0.776348 -9.2026 0.776168L82.323 1.07475C82.735 1.07331 83.0968 1.43258 83.0983 1.84462C83.0997 2.25665 82.7404 2.61844 82.3284 2.61988L-9.09418 2.32094L-46.8584 13.9384C-46.9099 13.9386 -47.0127 13.9905 -47.0642 13.9906L-95.2219 13.8497L-116.987 20.1063C-117.038 20.1064 -117.141 20.1583 -117.192 20.1585L-166.741 20.0224L-191.183 26.6489C-191.234 26.6491 -191.286 26.7007 -191.389 26.7011L-242.431 26.5188L-269.858 33.5677C-269.858 33.5162 -269.961 33.5165 -270.013 33.5167Z" fill="#EBEFF6"/>
<path d="M-279.173 50.4938C-279.534 50.4951 -279.843 50.2901 -279.896 49.9298C-280.001 49.5181 -279.744 49.1052 -279.333 49.0007L-274.393 47.6444C-274.342 47.6442 -274.29 47.5925 -274.187 47.5921L-218.355 47.7578L-190.879 39.8331C-190.828 39.8329 -190.776 39.7812 -190.673 39.7809L-136.592 39.9527L-112.359 32.5028C-112.308 32.5027 -112.257 32.451 -112.154 32.4506L-59.7208 32.6281L-38.3708 25.6004C-38.2677 25.6 -38.2164 25.5484 -38.1134 25.548L12.7742 25.7309L31.499 19.1244C31.6018 19.0725 31.6534 19.0724 31.7564 19.072L81.1502 19.2086L97.5068 12.9194C97.6096 12.8675 97.7127 12.8672 97.7642 12.867L145.819 13.0083L173.591 1.42571C173.694 1.37385 173.797 1.3735 173.9 1.37314L265.271 1.67223C265.683 1.67079 266.045 2.03007 266.046 2.4421C266.048 2.85414 265.689 3.21593 265.277 3.21737L173.957 2.96959L146.185 14.5522C146.082 14.604 145.979 14.6044 145.876 14.6048L97.8213 14.4635L81.4646 20.7527C81.3618 20.8045 81.2588 20.8049 81.2073 20.8051L31.762 20.6686L13.0372 27.2751C12.9343 27.327 12.8828 27.3272 12.7798 27.3276L-38.1078 27.1446L-59.4064 34.1722C-59.5094 34.1725 -59.5608 34.2242 -59.6638 34.2246L-112.097 34.0471L-136.329 41.4969C-136.381 41.4971 -136.484 41.4974 -136.535 41.5491L-190.616 41.3773L-218.092 49.302C-218.144 49.3022 -218.247 49.3541 -218.298 49.3543L-274.13 49.1886L-278.967 50.4931C-279.07 50.4935 -279.122 50.4937 -279.173 50.4938Z" fill="#EBEFF6"/>
<path d="M-274.285 49.1376L-279.229 49.1034C-279.641 49.1048 -280.003 48.7456 -280.005 48.3335C-280.006 47.9215 -279.647 47.5597 -279.235 47.5583L-274.393 47.5929L-245.166 39.6621C-245.115 39.6619 -245.012 39.61 -244.96 39.6099L-190.879 39.7816L-164.998 32.3261C-164.947 32.3259 -164.844 32.3255 -164.792 32.2738L-112.308 32.4511L-89.4644 25.4182C-89.4129 25.418 -89.3101 25.3662 -89.2586 25.366L-38.3709 25.5489L-18.204 18.9374C-18.101 18.937 -18.0497 18.8853 -17.9467 18.885L31.4988 19.0729L49.1948 12.8305C49.2976 12.7787 49.3491 12.7785 49.4521 12.7781L97.5068 12.9194L112.989 6.9938C113.092 6.94193 113.144 6.94174 113.247 6.94138L206.884 7.23259L219.122 1.62732C219.534 1.47137 219.946 1.62445 220.154 1.98427C220.31 2.39576 220.157 2.80834 219.797 3.01561L207.404 8.67291C207.301 8.72477 207.198 8.72515 207.095 8.72551L113.406 8.43448L97.9239 14.3601C97.8211 14.4119 97.7181 14.4123 97.6666 14.4125L49.6118 14.2712L31.9159 20.5136C31.8131 20.5654 31.7616 20.5656 31.6586 20.566L-17.787 20.3781L-37.9539 26.9896C-38.0569 26.99 -38.1082 27.0416 -38.2112 27.042L-89.1504 26.8593L-111.994 33.8922C-112.046 33.8924 -112.148 33.9443 -112.2 33.9444L-164.684 33.7671L-190.513 41.3255C-190.565 41.3257 -190.668 41.326 -190.719 41.3777L-244.852 41.2061L-274.079 49.1369C-274.13 49.1371 -274.182 49.1373 -274.285 49.1376Z" fill="#EBEFF6"/>
<path d="M1696.2 242.202C1696.1 242.202 1695.99 242.203 1695.89 242.152L1679.95 234.945L-276.536 230.649L-279.724 232.103C-280.135 232.259 -280.548 232.106 -280.755 231.746C-280.911 231.334 -280.758 230.922 -280.398 230.714L-277.056 229.209C-276.953 229.157 -276.798 229.157 -276.747 229.156L1680.1 233.399C1680.2 233.399 1680.31 233.399 1680.41 233.45L1696.45 240.708C1696.87 240.861 1697.02 241.324 1696.82 241.736C1696.77 241.994 1696.51 242.201 1696.2 242.202Z" fill="#EBEFF6"/>
<path d="M1696.23 234.991L1680.11 234.944C1680 234.945 1679.9 234.945 1679.8 234.894L1279.28 54.0157L116.694 50.3481L-276.381 230.597C-276.484 230.649 -276.639 230.65 -276.69 230.65L-279.986 230.661C-280.398 230.663 -280.76 230.304 -280.762 229.892C-280.763 229.48 -280.404 229.118 -279.992 229.116L-276.85 229.105L116.174 48.8563C116.277 48.8044 116.38 48.8041 116.483 48.8037L1279.43 52.4185C1279.53 52.4181 1279.63 52.4178 1279.74 52.4689L1680.25 233.347L1696.17 233.395C1696.58 233.393 1696.94 233.753 1696.94 234.165C1697 234.628 1696.64 234.99 1696.23 234.991Z" fill="#EBEFF6"/>
<path d="M-219.421 67.0244C-219.473 67.0246 -219.473 67.0246 -219.421 67.0244L-278.962 66.8202L-279.013 66.8204C-279.425 66.9248 -279.838 66.7203 -279.993 66.3088C-280.098 65.8971 -279.893 65.4843 -279.482 65.3284L-279.328 65.2763C-279.276 65.2762 -279.173 65.2243 -279.122 65.2241L-219.581 65.4283L-190.255 56.4156C-190.203 56.4154 -190.1 56.3635 -190.049 56.3634L-132.517 56.5231L-106.897 48.0898C-106.794 48.0895 -106.743 48.0377 -106.64 48.0374L-50.9621 48.2036L-28.585 40.2967C-28.4822 40.2448 -28.4307 40.2447 -28.3277 40.2443L25.5987 40.4166L45.0417 32.9835C45.1445 32.9316 45.1958 32.8799 45.299 32.9311L97.6288 33.109L114.395 26.0973C114.498 26.0454 114.601 26.045 114.704 26.0447L165.488 26.2279L179.887 19.6365C179.99 19.5847 180.093 19.5843 180.196 19.5839L229.487 19.7209L241.775 13.4974C241.877 13.4456 241.98 13.3937 242.135 13.3932L290.035 13.535L300.367 7.62735C300.47 7.57548 300.572 7.52361 300.727 7.52307L394.107 7.81518L401.453 2.27849C401.812 2.01971 402.276 2.06959 402.535 2.42922C402.793 2.78886 402.744 3.25256 402.384 3.51134L394.833 9.20326C394.678 9.30681 394.524 9.35888 394.37 9.35942L300.938 9.06749L290.606 14.9751C290.504 15.027 290.349 15.079 290.246 15.0794L242.295 14.9378L230.007 21.1613C229.904 21.2131 229.801 21.265 229.646 21.2655L180.356 21.1285L165.957 27.7199C165.854 27.7718 165.803 27.772 165.648 27.7725L114.864 27.5893L98.1492 34.6523C98.0464 34.7042 97.9434 34.7045 97.8404 34.7049L45.5106 34.527L26.0677 41.9601C25.9648 42.012 25.9134 42.0121 25.8104 42.0125L-28.1676 41.8404L-50.493 49.7986C-50.5959 49.8505 -50.6474 49.8506 -50.7504 49.851L-106.428 49.6848L-132.1 58.1183C-132.203 58.1186 -132.254 58.1188 -132.357 58.1706L-189.889 58.011L-219.215 67.0237C-219.318 67.0241 -219.37 67.0242 -219.421 67.0244Z" fill="#EBEFF6"/>
<path d="M-279.116 66.8208L-279.322 66.8215C-279.734 66.8229 -280.096 66.4637 -280.097 66.0516C-280.099 65.6396 -279.74 65.2778 -279.328 65.2763L-279.276 65.2762L-248.044 56.2568C-247.992 56.2566 -247.941 56.2049 -247.838 56.2045L-190.255 56.3641L-162.781 47.9243C-162.729 47.9242 -162.626 47.8723 -162.575 47.8721L-106.846 48.0381L-82.769 40.1253C-82.666 40.125 -82.6147 40.0733 -82.5117 40.0729L-28.5337 40.245L-7.49412 32.8064C-7.39129 32.7545 -7.3398 32.7543 -7.23679 32.7539L45.093 32.9318L63.4043 25.9147C63.5071 25.8628 63.5586 25.8627 63.6616 25.8623L114.446 26.0456L130.287 19.4491C130.39 19.3973 130.493 19.3969 130.596 19.3965L179.938 19.5334L193.565 13.3052C193.668 13.2533 193.771 13.2529 193.874 13.2526L241.826 13.3942L264.654 1.82893C264.756 1.77707 264.911 1.72502 265.014 1.72466L356.282 2.02414C356.694 2.0227 357.056 2.38197 357.057 2.79401C357.058 3.20605 356.699 3.56784 356.287 3.56927L265.225 3.26907L242.397 14.8344C242.294 14.8862 242.191 14.8866 242.037 14.9387L194.085 14.797L180.458 21.0252C180.355 21.077 180.201 21.0776 180.149 21.0778L130.807 20.941L114.967 27.5374C114.864 27.5893 114.761 27.5896 114.658 27.59L63.8215 27.4069L45.5103 34.424C45.4074 34.4759 45.3559 34.4761 45.2529 34.4764L-7.12837 34.2987L-28.168 41.7374C-28.2708 41.7893 -28.3223 41.7894 -28.4253 41.7898L-82.4032 41.6177L-106.48 49.5305C-106.583 49.5309 -106.635 49.531 -106.737 49.5829L-162.466 49.4169L-189.941 57.8566C-189.992 57.8568 -190.095 57.9087 -190.146 57.9089L-247.73 57.7493L-278.962 66.7687C-278.962 66.8202 -279.013 66.8204 -279.116 66.8208Z" fill="#EBEFF6"/>
</g>
<defs>
<clipPath id="clip0_24_1696">
<rect width="1440" height="722" fill="white"/>
</clipPath>
</defs>
</svg>
