<svg width="102" height="37" viewBox="0 0 102 37" fill="none" xmlns="http://www.w3.org/2000/svg">
<mask id="mask0_5046_58548" style="mask-type:luminance" maskUnits="userSpaceOnUse" x="0" y="0" width="102" height="37">
<path d="M0 0H102V37H0V0Z" fill="white"/>
</mask>
<g mask="url(#mask0_5046_58548)">
<path d="M101.289 14.8143C100.548 13.1477 99.3347 11.7366 97.8 10.7568C96.2654 9.77693 94.4774 9.2716 92.6587 9.30368C90.81 9.30346 89.0014 9.84522 87.4554 10.8624C85.9094 11.8795 84.6933 13.3278 83.9566 15.029C83.4573 16.1741 83.2433 17.3907 83.2433 18.6074C83.2238 19.8594 83.4564 21.1025 83.9271 22.2622C84.3978 23.4219 85.0971 24.4744 85.9829 25.3565C86.8687 26.2386 87.9229 26.9322 89.0823 27.3957C90.2416 27.8593 91.4823 28.0832 92.73 28.0542C93.9919 28.0494 95.2404 27.7941 96.4035 27.3027C97.5665 26.8114 98.621 26.0938 99.5063 25.1915C100.434 24.2611 101.147 23.0445 101.646 21.8279H96.7244C96.3509 22.3974 95.8655 22.8844 95.2979 23.2592C94.5955 23.6441 93.815 23.8636 93.0156 23.9013C92.2161 23.9389 91.4186 23.7937 90.6834 23.4765C89.9481 23.1594 89.2944 22.6786 88.7716 22.0706C88.2488 21.4627 87.8706 20.7434 87.6657 19.9671H101.931L102.074 19.323C102.213 17.784 101.968 16.2345 101.361 14.8143H101.289ZM87.523 16.6751C87.978 15.7036 88.6992 14.8821 89.6024 14.3067C90.5055 13.7313 91.5532 13.4257 92.623 13.4257C93.6929 13.4257 94.7406 13.7313 95.6437 14.3067C96.5469 14.8821 97.2681 15.7036 97.723 16.6751H87.523Z" fill="#000080"/>
<path d="M24.6084 36.9999V26.408C26.3656 27.5742 28.4597 28.1203 30.5604 27.9602C32.6612 27.8001 34.649 26.9429 36.2105 25.5238C37.772 24.1048 38.8183 22.2046 39.1843 20.1229C39.5504 18.0412 39.2154 15.8965 38.2322 14.027C37.229 12.165 35.6358 10.6916 33.7046 9.83971C31.7733 8.98787 29.6142 8.8062 27.5685 9.32343C25.5228 9.84066 23.7074 11.0273 22.4091 12.6957C21.1108 14.3641 20.4039 16.419 20.4 18.5357V37.0715H24.6084V36.9999ZM29.8867 13.2398C30.6698 13.2469 31.4417 13.4264 32.148 13.7657C32.8543 14.1049 33.4778 14.5956 33.9744 15.2031C34.471 15.8105 34.8286 16.52 35.022 17.2813C35.2154 18.0427 35.2399 18.8373 35.0937 19.6092C34.885 20.6447 34.3723 21.5939 33.6217 22.3348C32.871 23.0757 31.9166 23.5744 30.8813 23.7668C29.8459 23.9591 28.7768 23.8364 27.8115 23.4144C26.8462 22.9923 26.0288 22.2902 25.4643 21.3984C24.9495 20.5945 24.661 19.6659 24.6295 18.7109C24.5979 17.7559 24.8245 16.8102 25.2851 15.9739C25.7457 15.1376 26.4233 14.4419 27.246 13.9605C28.0686 13.4792 29.0058 13.2302 29.958 13.2398H29.8867ZM14.4797 18.1063C14.4797 20.0386 13.9804 21.4699 13.0531 22.5434C12.4003 23.1801 11.5863 23.6256 10.6993 23.8316C9.89684 23.9705 9.07659 23.9705 8.27413 23.8316C7.41818 23.6169 6.63357 23.116 5.99161 22.5434C4.99301 21.3984 4.49371 19.967 4.49371 18.1063V9.01733H0V18.3926C0 21.4699 0.927273 23.9032 2.71049 25.5492C4.42238 27.1237 6.63357 27.9109 9.41539 28.0541H9.55804C12.4112 27.9109 14.551 27.1237 16.2629 25.5492C18.0462 23.9032 18.9734 21.4699 18.9734 18.3926V9.0889H14.4797V18.1063Z" fill="#33CC99"/>
<path d="M52.0673 14.8857C51.4956 14.2307 50.7948 13.7017 50.009 13.3321C49.2233 12.9626 48.3697 12.7605 47.5022 12.7387C46.361 12.8818 45.719 13.0965 45.3624 13.5975C45.2138 13.7592 45.1043 13.953 45.0424 14.164C44.9806 14.375 44.968 14.5975 45.0057 14.8141C45.2197 15.8161 46.4323 16.0308 47.1456 16.2455L51.0687 17.2474C52.3233 17.5243 53.4663 18.1725 54.3498 19.1081C55.1604 20.0085 55.5946 21.1873 55.5624 22.4002C55.5959 23.2112 55.4237 24.0175 55.062 24.7434C54.7002 25.4694 54.1606 26.0914 53.4939 26.5511C52.0673 27.553 50.2841 27.9824 47.9302 27.9824C46.5036 27.9824 45.0771 27.7677 43.6505 27.2667C42.6519 26.8373 41.7246 26.1932 40.94 25.406L40.6547 25.1197L40.2267 24.5472L43.3652 22.3286C44.4174 23.4116 45.7964 24.116 47.2883 24.3325C48.8575 24.4756 50.5694 24.2609 50.8547 22.4718C50.8547 20.8973 49.4281 20.611 48.3582 20.3963C48.3582 20.3963 42.7232 19.3228 41.368 17.5337C40.6225 16.6559 40.2174 15.5379 40.2267 14.3847C40.2267 13.6691 40.4407 12.9534 40.726 12.2377C41.4393 11.0927 42.5806 10.1623 43.8645 9.73289C45.0771 9.23192 46.361 9.01722 47.7162 9.01722C50.0701 9.01722 53.2085 9.73289 55.2057 12.7387L52.0673 14.8857ZM77.5316 -0.000183105V10.6633C75.7806 9.4845 73.6881 8.92465 71.5846 9.07214C69.4811 9.21964 67.4866 10.0661 65.916 11.4777C64.3454 12.8894 63.2884 14.7858 62.9118 16.8675C62.5352 18.9491 62.8606 21.0973 63.8365 22.9727C64.8367 24.8296 66.4236 26.3002 68.3478 27.1534C70.2719 28.0065 72.4241 28.1938 74.4659 27.6857C76.5077 27.1777 78.3233 26.0031 79.6271 24.3467C80.931 22.6904 81.6491 20.6462 81.6687 18.5356V-0.000183105H77.5316ZM72.2533 23.8315C71.4642 23.8349 70.6842 23.6631 69.9691 23.3284C69.254 22.9937 68.6216 22.5045 68.1171 21.8957C67.6126 21.2869 67.2486 20.5738 67.0511 19.8072C66.8537 19.0407 66.8277 18.2399 66.975 17.4621C67.1734 16.4214 67.6784 15.4644 68.4246 14.7148C69.1709 13.9651 70.1241 13.4573 71.161 13.2569C72.198 13.0565 73.271 13.1728 74.2414 13.5908C75.2118 14.0087 76.0349 14.7091 76.6043 15.6014C77.1315 16.396 77.4348 17.3188 77.4821 18.2722C77.5295 19.2256 77.3191 20.1741 76.8733 21.0174C76.4275 21.8607 75.7628 22.5674 74.9495 23.0628C74.1362 23.5582 73.2047 23.8238 72.2533 23.8315ZM58.9862 1.50272C58.5906 1.49703 58.1979 1.56999 57.8306 1.71739C57.4634 1.86479 57.1288 2.08371 56.8463 2.36152C56.5423 2.6582 56.303 3.01489 56.1434 3.40907C55.9838 3.80325 55.9074 4.22635 55.919 4.65165C55.9153 5.45175 56.2223 6.22184 56.775 6.79866C57.375 7.38874 58.1817 7.71926 59.0218 7.71926C59.862 7.71926 60.6687 7.38874 61.2687 6.79866C61.8475 6.23341 62.1807 5.46191 62.1959 4.65165C62.2062 4.22921 62.1296 3.80918 61.971 3.41773C61.8124 3.02628 61.5751 2.6718 61.274 2.37637C60.9729 2.08095 60.6143 1.85092 60.2207 1.70061C59.8271 1.5503 59.4069 1.48294 58.9862 1.50272ZM57.0603 10.2339V27.1236H61.1973V10.2339H56.989H57.0603Z" fill="#000080"/>
</g>
</svg>
