<svg width="163" height="26" viewBox="0 0 163 26" fill="none" xmlns="http://www.w3.org/2000/svg">
<path d="M10.3787 18.7924C10.5782 18.5903 10.7029 18.565 10.9274 18.7671C11.9998 19.8535 13.0722 20.9652 14.1446 22.0264C14.3691 22.2285 14.3691 22.3801 14.1446 22.5823C13.0722 23.6434 11.9998 24.7298 10.9523 25.8163C10.7278 26.0436 10.6031 26.0689 10.3787 25.8415C9.30623 24.7551 8.23379 23.6687 7.16136 22.5823C6.96184 22.3801 6.96184 22.2538 7.16136 22.0517C7.311 21.9253 7.4357 21.7737 7.56041 21.6474L10.3787 18.7924Z" fill="#242C46"/>
<path d="M1.9238 4.56804C-0.669996 8.38318 -0.645053 13.3353 2.02356 17.1252C2.32285 17.5546 2.69695 17.9589 3.04612 18.3631C4.29313 17.0998 5.49029 15.8871 6.71233 14.6491C4.6423 12.5015 4.6423 9.04008 6.76224 6.91777C8.88215 4.77017 12.3239 4.77017 14.4438 6.91777C16.464 8.96431 16.5638 12.1983 14.7431 14.3459C14.7182 14.447 14.6933 14.5481 14.6184 14.6238C15.8654 15.8871 17.0626 17.0998 18.2847 18.3379C18.4093 18.2115 18.534 18.0853 18.6338 17.9842C20.9034 15.685 23.148 13.3858 25.4425 11.1119C25.7169 10.8339 25.6919 10.6823 25.4425 10.4045C23.0483 8.02947 20.7039 5.62922 18.3345 3.25422C17.9355 2.84997 17.4865 2.47098 17.0127 2.11726C12.274 -1.49575 5.31566 -0.358784 1.9238 4.56804Z" fill="#2E76B5"/>
<path d="M35.3564 13.0252V12.9926C35.3564 8.17855 38.9531 4.24274 44.0912 4.24274C47.2382 4.24274 49.1329 5.31614 50.6743 6.84492L48.3301 9.57723C47.0456 8.40624 45.7289 7.65811 44.0591 7.65811C41.2331 7.65811 39.21 10.0326 39.21 12.9275V12.9601C39.21 15.855 41.201 18.2945 44.0591 18.2945C45.9858 18.2945 47.1419 17.5139 48.4585 16.3104L50.8028 18.7174C49.0686 20.5715 47.174 21.7425 43.9306 21.7425C39.0173 21.71 35.3564 17.8717 35.3564 13.0252Z" fill="#242C46"/>
<path d="M55.6542 4.50317H68.2745V7.82097H59.3151V11.2689H67.2148V14.5867H59.3151V18.1321H68.3709V21.4499H55.6221V4.50317H55.6542Z" fill="#242C46"/>
<path d="M73.5405 4.50317H81.2155C83.335 4.50317 85.0048 5.12119 86.0967 6.22713C87.0279 7.17042 87.5418 8.50404 87.5418 10.0979V10.1304C87.5418 12.8627 86.0967 14.5867 83.9451 15.3673L88.0234 21.4174H83.7203L80.1237 15.9854H77.2335V21.4174H73.5405V4.50317ZM80.9586 12.7326C82.7569 12.7326 83.7845 11.7568 83.7845 10.3256V10.293C83.7845 8.69921 82.6927 7.88602 80.8944 7.88602H77.2335V12.7651H80.9586V12.7326Z" fill="#242C46"/>
<path d="M96.6271 7.91855H91.5532V4.50317H105.426V7.91855H100.352V21.4174H96.6271V7.91855Z" fill="#242C46"/>
<path d="M110.31 4.50317H113.971V21.4499H110.278V4.50317H110.31Z" fill="#242C46"/>
<path d="M120.07 4.50317H132.819V7.88602H123.763V11.4966H131.727V14.8794H123.763V21.4499H120.07V4.50317Z" fill="#242C46"/>
<path d="M137.833 4.50317H141.526V21.4499H137.833V4.50317Z" fill="#2E76B5"/>
<path d="M147.585 4.50317H154.104C159.371 4.50317 163 8.14624 163 12.9278V12.9603C163 17.7418 159.371 21.4174 154.104 21.4174H147.585V4.50317ZM151.278 7.8535V18.0671H154.136C157.155 18.0671 159.178 16.0179 159.178 13.0253V12.9928C159.178 10.0003 157.155 7.88602 154.136 7.88602H151.278V7.8535Z" fill="#2E76B5"/>
</svg>
