<svg width="180" height="34" viewBox="0 0 180 34" fill="none" xmlns="http://www.w3.org/2000/svg">
<path d="M38.4266 30.8428C38.3898 30.8431 38.3532 30.8358 38.3193 30.8211C38.2854 30.8065 38.2548 30.7849 38.2295 30.7577C38.2042 30.7307 38.1847 30.6985 38.1722 30.6633C38.1598 30.6282 38.1547 30.5908 38.1571 30.5535C38.1605 30.5037 38.1776 30.4558 38.2062 30.4151L46.4595 18.4922L36.0481 3.42816C36.0203 3.38699 36.0039 3.33901 36.0006 3.28925C35.9973 3.23948 36.0073 3.18972 36.0295 3.14518C36.0524 3.10117 36.0868 3.0644 36.129 3.03889C36.1711 3.01338 36.2194 3.00012 36.2686 3.00054H41.1406C41.1856 2.99762 41.2308 3.0065 41.2716 3.02632C41.3123 3.04614 41.3474 3.07625 41.3733 3.11374L49.2479 14.4708L57.0946 3.11374C57.1196 3.07818 57.1526 3.04929 57.1911 3.02958C57.2294 3.00986 57.272 2.9999 57.3151 3.00054H62.159C62.2084 3.00003 62.2569 3.01333 62.2992 3.03896C62.3416 3.0646 62.3762 3.10156 62.3991 3.14581C62.4217 3.19016 62.4318 3.23996 62.4285 3.28977C62.425 3.33957 62.408 3.38745 62.3795 3.42816L43.5098 30.7139C43.485 30.7498 43.452 30.7792 43.4136 30.7995C43.3751 30.8197 43.3325 30.8303 43.2893 30.8302L38.4266 30.8428ZM66.5528 30.9214C66.0843 30.9186 65.6165 30.8851 65.1524 30.8208C59.9296 30.1542 56.278 25.8498 56.278 20.3631C56.278 14.367 60.6934 9.84241 66.5497 9.84241C72.1172 9.84241 76.1755 14.2443 76.2345 20.275C76.242 20.6947 76.2275 21.1146 76.191 21.5327L76.1258 22.0798C76.1196 22.1462 76.0891 22.2079 76.0403 22.2527C75.9914 22.2976 75.9278 22.3222 75.862 22.3219H60.9107L60.948 22.4508C61.2644 23.7226 62 24.847 63.0334 25.6378C64.0667 26.4286 65.3357 26.8383 66.6304 26.7993C68.658 26.7993 70.2976 25.9849 71.0149 24.6235C71.0374 24.5799 71.0714 24.5434 71.1129 24.518C71.1545 24.4925 71.2022 24.4789 71.2508 24.4789H75.4582C75.5011 24.479 75.5432 24.4897 75.5811 24.5099C75.6189 24.5302 75.6513 24.5595 75.6756 24.5952C75.7014 24.6298 75.7182 24.6703 75.7247 24.7131C75.7312 24.7559 75.7271 24.7996 75.7129 24.8404L75.6042 25.1549C74.5702 28.2174 71.7601 30.3303 68.0898 30.8145C67.5802 30.883 67.0668 30.9187 66.5528 30.9214ZM66.4069 13.9582C63.2737 14.0179 61.538 16.2441 60.9542 18.3098L60.917 18.4419H71.6452L71.6173 18.3162C71.0179 15.6341 69.1331 14.0086 66.5838 13.9645H66.4069V13.9582ZM86.8012 31C86.0628 31.0006 85.3255 30.9406 84.5966 30.8208C81.0071 30.2328 78.6969 28.1577 77.9516 24.8153C77.9425 24.7755 77.9425 24.7341 77.9516 24.6943C77.9608 24.6545 77.9788 24.6174 78.0045 24.5857C78.0296 24.5533 78.0616 24.5272 78.0982 24.5092C78.1348 24.4912 78.1749 24.482 78.2156 24.482H82.1405C82.1927 24.482 82.2437 24.4975 82.2873 24.5266C82.331 24.5556 82.3651 24.597 82.3858 24.6455C83.0596 26.2176 84.5314 26.9597 86.8789 26.9597C89.3008 26.9597 90.931 26.0164 90.931 24.6014C90.931 23.108 89.2667 22.696 88.5494 22.5892L84.4227 21.8723C79.3862 21.0799 78.3243 18.2878 78.3243 16.0837C78.3243 12.3107 81.5877 9.76381 86.4442 9.76381C89.7201 9.76381 93.7257 11.1158 94.8528 14.8544C94.9572 15.1955 95.0444 15.5416 95.1136 15.8919C95.1199 15.931 95.1177 15.971 95.1069 16.009C95.0962 16.047 95.0773 16.0823 95.0516 16.112C95.0269 16.1429 94.9957 16.1679 94.9602 16.1848C94.9246 16.2017 94.8859 16.2101 94.8466 16.2095H91.0552C91.0002 16.2095 90.9464 16.1923 90.9015 16.1603C90.8564 16.1282 90.8223 16.0827 90.8037 16.0303C90.7059 15.7688 90.5821 15.518 90.4342 15.282C89.5927 14.0243 87.8539 13.7098 86.4534 13.7098C84.2178 13.7098 82.7273 14.5776 82.7273 15.8668C82.7273 16.2504 82.7273 17.4074 85.5405 17.8414L89.158 18.4702C93.2258 19.1431 95.2875 21.146 95.2875 24.4191C95.2875 27.7709 92.94 30.1542 89.0028 30.7987C88.2756 30.9264 87.5393 30.9937 86.8012 31ZM102.982 30.4467C102.928 30.4453 102.876 30.4279 102.832 30.3965C102.787 30.3652 102.753 30.3214 102.734 30.2706L95.4552 10.6945C95.4404 10.6536 95.4356 10.6097 95.4409 10.5665C95.4464 10.5233 95.4618 10.482 95.4863 10.4461C95.5102 10.4091 95.543 10.3788 95.5814 10.3579C95.62 10.3371 95.663 10.3263 95.7067 10.3266H99.9328C99.9878 10.3266 100.042 10.3438 100.087 10.3759C100.132 10.408 100.166 10.4534 100.184 10.5059L104.531 22.6174L108.568 10.5121C108.587 10.4582 108.62 10.4114 108.666 10.3781C108.711 10.3449 108.766 10.3269 108.823 10.3266H112.108C112.164 10.3277 112.218 10.346 112.263 10.3792C112.308 10.4124 112.341 10.4588 112.359 10.5121L116.39 22.608L120.814 10.5216C120.833 10.4691 120.868 10.4238 120.913 10.3917C120.957 10.3597 121.012 10.3424 121.066 10.3423H125.264C125.307 10.342 125.35 10.3525 125.389 10.3727C125.428 10.393 125.462 10.4225 125.486 10.4587C125.511 10.495 125.527 10.537 125.532 10.5807C125.537 10.6246 125.531 10.669 125.516 10.7102L118.237 30.2831C118.217 30.3344 118.183 30.3786 118.138 30.4099C118.094 30.4414 118.04 30.4585 117.985 30.4592H114.685C114.629 30.4587 114.575 30.4406 114.53 30.4073C114.485 30.374 114.451 30.3273 114.434 30.2737L110.484 18.3884L106.516 30.2737C106.498 30.3276 106.463 30.3745 106.418 30.4078C106.372 30.441 106.317 30.459 106.261 30.4592H102.982V30.4467ZM135.369 30.9151C134.919 30.9143 134.471 30.8827 134.027 30.8208C128.959 30.1322 125.137 25.636 125.137 20.3568C125.137 14.5588 129.726 9.83927 135.369 9.83612C137.303 9.81729 139.206 10.3384 140.868 11.3422L141.022 11.4365V10.4744C141.023 10.4024 141.053 10.3337 141.103 10.2831C141.154 10.2325 141.222 10.2041 141.293 10.204H145.174C145.21 10.2037 145.244 10.2105 145.277 10.224C145.31 10.2375 145.339 10.2574 145.364 10.2825C145.388 10.3077 145.408 10.3376 145.422 10.3706C145.435 10.4035 145.442 10.4388 145.441 10.4744V30.2485C145.442 30.2842 145.435 30.3194 145.422 30.3524C145.408 30.3854 145.388 30.4153 145.364 30.4405C145.339 30.4657 145.31 30.4855 145.277 30.499C145.244 30.5125 145.21 30.5193 145.174 30.5189H141.293C141.257 30.5195 141.223 30.5128 141.189 30.4996C141.157 30.4862 141.127 30.4663 141.102 30.4411C141.077 30.416 141.057 30.3859 141.043 30.3529C141.03 30.3199 141.022 30.2844 141.022 30.2485V29.3053L140.868 29.3996C139.635 30.1527 138.26 30.6327 136.831 30.8082C136.346 30.8756 135.857 30.9114 135.369 30.9151ZM135.723 13.9959C134.077 14.0183 132.509 14.7007 131.36 15.8933C130.211 17.0857 129.577 18.6911 129.596 20.3568C129.577 22.0493 130.215 23.6817 131.372 24.9034C131.935 25.4936 132.611 25.9621 133.358 26.2805C134.106 26.5988 134.909 26.7603 135.72 26.7552C136.755 26.7687 137.779 26.5276 138.702 26.0529C139.626 25.5782 140.422 24.8837 141.022 24.0292V16.7189C140.423 15.8649 139.627 15.1711 138.704 14.6968C137.781 14.2226 136.757 13.982 135.723 13.9959ZM148.869 30.5221C148.798 30.522 148.731 30.4936 148.679 30.443C148.629 30.3924 148.6 30.3237 148.599 30.2517V10.4775C148.599 10.405 148.628 10.3355 148.678 10.2842C148.73 10.2329 148.798 10.2041 148.869 10.204H152.751C152.822 10.2048 152.89 10.234 152.94 10.2852C152.99 10.3364 153.018 10.4055 153.018 10.4775V12.1157L153.186 11.9773C154.891 10.5761 157.026 9.82013 159.222 9.83927H159.843C159.914 9.83934 159.982 9.86776 160.032 9.91837C160.084 9.96897 160.112 10.0377 160.113 10.1097V13.9079C160.113 13.9785 160.086 14.0464 160.037 14.0969C159.988 14.1475 159.922 14.1767 159.853 14.1783L159.256 14.194C158.003 14.2213 156.776 14.5659 155.688 15.1965C154.6 15.8269 153.686 16.7232 153.027 17.8037V30.2517C153.027 30.2873 153.021 30.3226 153.007 30.3556C152.994 30.3885 152.975 30.4184 152.95 30.4436C152.924 30.4688 152.895 30.4887 152.863 30.5022C152.83 30.5156 152.795 30.5224 152.76 30.5221H148.869ZM170.316 30.9151C169.862 30.9131 169.407 30.8816 168.957 30.8208C163.708 30.1668 160.045 25.8655 160.045 20.3568C160.045 14.3606 164.46 9.83927 170.316 9.83612C175.884 9.83612 179.942 14.2381 179.998 20.2718C180.006 20.6915 179.991 21.1114 179.955 21.5296L179.893 22.0829C179.885 22.1495 179.854 22.211 179.805 22.2556C179.755 22.3003 179.692 22.325 179.626 22.3251H164.674L164.711 22.4571C165.441 25.136 167.621 26.8024 170.394 26.8024C172.419 26.8024 174.058 25.9912 174.776 24.6329C174.798 24.5893 174.832 24.5529 174.874 24.5274C174.916 24.5019 174.963 24.4883 175.011 24.4883H179.219C179.262 24.4884 179.304 24.4988 179.342 24.5188C179.38 24.5387 179.413 24.5676 179.438 24.6029C179.462 24.6382 179.479 24.6791 179.485 24.722C179.492 24.765 179.487 24.8088 179.474 24.8498L179.368 25.1643C178.34 28.2016 175.439 30.3712 171.795 30.8239C171.304 30.8858 170.811 30.9174 170.316 30.9182V30.9151ZM170.235 13.9582C167.069 13.9582 165.308 16.2032 164.714 18.3036L164.678 18.4357H175.406L175.374 18.3098C174.754 15.5838 172.847 13.9582 170.235 13.9582Z" fill="#2A313F"/>
<path d="M28.8955 4.87949C28.8381 4.8241 28.7617 4.79264 28.6819 4.79152H28.6536C28.6094 4.796 28.5667 4.80979 28.5282 4.83199C28.4898 4.85419 28.4565 4.88431 28.4305 4.92033L9.56091 31.8918C9.53638 31.9283 9.5198 31.9695 9.51222 32.0128C9.50465 32.0561 9.50625 32.1005 9.51693 32.1432C9.52874 32.1858 9.5494 32.2254 9.57755 32.2595C9.6057 32.2936 9.6407 32.3214 9.6803 32.3411C11.9639 33.4397 14.4666 34.0068 17.0007 33.9999C20.3756 34.0009 23.6744 32.997 26.4767 31.1162C29.2789 29.2355 31.4576 26.5629 32.7352 23.4393C34.0128 20.3156 34.3314 16.8823 33.6504 13.5769C32.9694 10.2715 31.3195 7.24375 28.9113 4.87949H28.8955ZM9.79654 5.69005L16.0268 14.5685L16.275 14.2134L24.6698 2.23104C24.6937 2.19446 24.7096 2.15331 24.7166 2.11022C24.7237 2.06713 24.7217 2.02304 24.7108 1.98076C24.6998 1.9385 24.6802 1.89897 24.6532 1.8647C24.6261 1.83044 24.5921 1.8022 24.5535 1.78177C21.9551 0.487543 19.0682 -0.119222 16.1686 0.0193757C13.269 0.157974 10.4532 1.03731 7.99001 2.57348C7.92114 2.61955 7.87325 2.69096 7.85677 2.77215C7.8403 2.85335 7.85657 2.93778 7.90204 3.00704L9.79654 5.69005ZM10.2678 22.7778L13.1928 18.6055L8.9891 12.6363L4.42721 6.12674C4.40091 6.08818 4.36584 6.0564 4.32489 6.03401C4.28393 6.01162 4.23824 5.99926 4.19158 5.99794C4.14673 5.99838 4.10249 6.00842 4.06186 6.0274C4.02121 6.04636 3.98509 6.07381 3.95594 6.1079C1.18695 9.41909 -0.217664 13.6601 0.0274274 17.9696C0.272518 22.2789 2.14894 26.3335 5.2755 29.3093C5.33265 29.3628 5.40771 29.3932 5.486 29.3942H5.51427C5.55834 29.3909 5.60107 29.3777 5.6392 29.3553C5.67732 29.333 5.70983 29.3022 5.7342 29.2654L10.2678 22.7778Z" fill="#29ABE2"/>
</svg>
