<svg width="122" height="38" viewBox="0 0 122 38" fill="none" xmlns="http://www.w3.org/2000/svg">
<path d="M73.8411 29.0678C73.1006 29.0678 72.4858 28.4723 72.4858 27.7245V10.2893C72.4858 9.55532 73.0866 8.94598 73.8411 8.94598C74.5956 8.94598 75.1963 9.54147 75.1963 10.2893V27.7245C75.1824 28.4585 74.5816 29.0678 73.8411 29.0678Z" fill="#3B51C7"/>
<path d="M99.9937 1.3433C99.9937 0.609331 99.3929 0 98.6385 0C97.898 0 97.2832 0.595482 97.2832 1.3433V27.7247C97.2832 28.4587 97.884 29.068 98.6385 29.068C99.3789 29.068 99.9937 28.4725 99.9937 27.7247V1.3433Z" fill="#3B51C7"/>
<path d="M69.4096 8.94613H66.5594V1.3433C66.5594 0.609331 65.9586 0 65.2041 0C64.4497 0 63.8489 0.595482 63.8489 1.3433V8.94613H60.2302C59.4898 8.94613 58.875 9.54161 58.875 10.2894C58.875 11.0234 59.4758 11.6327 60.2302 11.6327H63.8489V27.7385C63.8489 28.4725 64.4497 29.0818 65.2041 29.0818C65.9586 29.0818 66.5594 28.4864 66.5594 27.7385V11.6189H69.4096C70.1501 11.6189 70.7648 11.0234 70.7648 10.2756C70.7648 9.54161 70.1501 8.94613 69.4096 8.94613Z" fill="#3B51C7"/>
<path d="M55.9538 8.94598C52.5308 8.94598 49.457 10.4693 47.3892 12.8651V10.2893C47.3892 9.55532 46.7884 8.94598 46.034 8.94598C45.2935 8.94598 44.6787 9.54147 44.6787 10.2893V27.7245C44.6787 28.4585 45.2795 29.0678 46.034 29.0678C46.7745 29.0678 47.3892 28.4723 47.3892 27.7245V20.1079C47.3892 15.4271 51.2314 11.6187 55.9538 11.6187C56.6943 11.6187 57.309 11.0233 57.309 10.2754C57.309 9.54147 56.7083 8.94598 55.9538 8.94598Z" fill="#3B51C7"/>
<path d="M73.8418 5.49774C74.8603 5.49774 75.6861 4.67932 75.6861 3.66974C75.6861 2.66017 74.8603 1.84174 73.8418 1.84174C72.8233 1.84174 71.9976 2.66017 71.9976 3.66974C71.9976 4.67932 72.8233 5.49774 73.8418 5.49774Z" fill="#EB591F"/>
<path d="M117.811 26.4644C118.59 26.4644 119.222 25.8382 119.222 25.0657C119.222 24.2932 118.59 23.667 117.811 23.667C117.032 23.667 116.4 24.2932 116.4 25.0657C116.4 25.8382 117.032 26.4644 117.811 26.4644Z" fill="#3B51C7"/>
<path d="M40.7293 9.01495C40.0028 9.01495 39.402 9.61044 39.402 10.3306V12.297C37.5438 10.2752 34.8752 9.01495 31.9132 9.01495C26.2407 9.01495 21.7559 13.6127 21.7559 19.0828C21.7559 24.636 26.3106 29.1507 31.9132 29.1507C34.8752 29.1507 37.5577 27.8766 39.416 25.8686V27.835C39.416 28.5552 40.0167 29.1507 40.7433 29.1507C41.4698 29.1507 42.0706 28.5552 42.0706 27.835V10.3306C42.0566 9.59659 41.4698 9.01495 40.7293 9.01495ZM31.9132 26.5056C27.7776 26.5056 24.4105 23.1681 24.4105 19.0689C24.4105 14.9698 27.7776 11.6323 31.9132 11.6323C36.0488 11.6323 39.416 14.9698 39.416 19.0689C39.402 23.1681 36.0488 26.5056 31.9132 26.5056Z" fill="#3B51C7"/>
<path d="M111.856 8.95966C106.086 8.95966 101.727 13.5851 101.727 19.1244C101.727 23.459 105.206 29.0399 111.842 29.0399C112.779 29.0399 113.938 28.7907 114.581 28.5691C115.266 28.3198 115.643 27.5859 115.419 26.9073C115.182 26.2149 114.427 25.8548 113.743 26.0764C113.687 26.0902 112.904 26.3949 111.856 26.4087C108.14 26.478 105.136 23.5698 104.549 20.44H120.673C121.399 20.44 122 19.8445 122 19.1244C121.986 13.862 117.99 8.95966 111.856 8.95966ZM111.856 11.5909C115.573 11.5909 118.647 14.2913 119.233 17.8088H104.493C105.066 14.2913 108.14 11.5909 111.856 11.5909Z" fill="#3B51C7"/>
<path d="M92.883 24.1516C91.3741 25.7026 89.5997 26.4228 87.2664 26.4228C83.1448 26.4228 79.7777 23.0991 79.7777 19C79.7777 14.6931 83.4103 11.5772 87.2664 11.5772C89.6137 11.5772 91.4579 12.3804 92.883 13.8483C93.386 14.3746 94.2383 14.3884 94.7552 13.876C95.2861 13.3775 95.3001 12.5327 94.7832 12.0204C92.8551 10.04 90.3402 8.94598 87.2664 8.94598C81.2307 8.94598 77.123 13.8483 77.123 19C77.123 24.5394 81.6778 29.054 87.2664 29.054C90.3122 29.054 92.7712 28.043 94.7832 25.9796C95.2861 25.4534 95.2722 24.6225 94.7552 24.1239C94.2383 23.6115 93.4 23.6254 92.883 24.1516Z" fill="#3B51C7"/>
<path d="M5.38965 27.7384C6.169 27.7384 6.80078 27.1122 6.80078 26.3397C6.80078 25.5673 6.169 24.941 5.38965 24.941C4.6103 24.941 3.97852 25.5673 3.97852 26.3397C3.97852 27.1122 4.6103 27.7384 5.38965 27.7384Z" fill="#3B51C7"/>
<path d="M10.7581 9.00127C7.60055 8.80739 4.69446 10.0676 2.71049 12.2003V10.3169C2.71049 9.58291 2.10971 8.97357 1.35525 8.97357C0.614752 8.97357 0 9.56906 0 10.3169V36.6567C0 37.3907 0.60078 38 1.35525 38C2.09574 38 2.71049 37.4046 2.71049 36.6567V24.5255C2.71049 24.5255 2.71049 18.7368 2.72446 18.5568C2.97595 14.4991 6.51077 11.4109 10.5905 11.6602C14.6842 11.9095 17.7998 15.4131 17.5483 19.4569C17.2968 23.5145 13.762 26.6027 9.68232 26.3535H9.57055C8.83005 26.2981 8.18736 26.852 8.13147 27.586C8.07559 28.3199 8.63445 28.957 9.37495 29.0124C9.41686 29.0124 9.47275 29.0124 9.51466 29.0262C15.0893 29.3724 19.8956 25.1486 20.2449 19.6231C20.5941 14.1114 16.3328 9.33363 10.7581 9.00127Z" fill="#3B51C7"/>
</svg>
