<svg width="238" height="22" viewBox="0 0 238 22" fill="none" xmlns="http://www.w3.org/2000/svg">
<path fill-rule="evenodd" clip-rule="evenodd" d="M0 19.1392L1.25545 17.9862C3.37365 19.9312 5.09518 20.5379 7.94027 20.5379C11.6461 20.5379 13.9964 18.8972 13.9964 16.071C13.9964 14.796 13.5651 13.7323 12.7072 13.0343C11.8474 12.3652 11.2197 12.153 9.29985 11.8794L6.55194 11.4839C4.76694 11.241 3.34192 10.6947 2.34827 9.90184C1.09083 8.934 0.495833 7.59576 0.495833 5.92529C0.495833 2.30795 3.30721 0 7.80937 0C10.7209 0 12.5694 0.72961 14.5923 2.33959L13.4331 3.4033C11.9774 2.21674 10.5216 1.39593 7.71021 1.39593C4.30086 1.39593 2.2491 3.12876 2.2491 5.86293C2.2491 7.10905 2.64577 8.0499 3.47282 8.68831C4.29987 9.32672 5.65448 9.84322 6.98133 10.0256L9.52892 10.3895C11.7463 10.6947 12.739 11.0586 13.7317 11.8189C15.0207 12.7905 15.7823 14.2785 15.7823 16.0115C15.7823 19.6566 12.739 21.9962 7.84111 21.9962C4.33259 21.9962 2.14993 21.115 0 19.1392ZM34.4049 21.9962C29.6737 21.9962 26.3327 19.0182 26.3327 14.796V0.186125H28.1177V14.5838C28.1177 18.1676 30.6335 20.5398 34.4049 20.5398C38.1761 20.5398 40.692 18.1695 40.692 14.5838V0.186125H42.477V14.7969C42.477 19.0202 39.1351 21.9972 34.4029 21.9972L34.4049 21.9962ZM63.6491 21.8102H54.7153V0.186125H63.3844C67.2876 0.186125 70.1981 2.25212 70.1981 5.8378C70.1981 8.0862 68.8098 9.99956 66.5289 10.6994C69.0766 11.4886 70.565 13.4336 70.565 15.9239C70.565 19.7842 67.8181 21.8185 63.6511 21.8185L63.6491 21.8102ZM63.185 1.63976H56.5021V10.0256H63.185C66.0311 10.0256 68.4131 8.81022 68.4131 5.83316C68.4131 2.85608 66.0331 1.63976 63.185 1.63976ZM63.4499 11.4839C66.6598 11.4839 68.778 13.1544 68.778 15.9193C68.778 18.6841 66.6598 20.3547 63.4499 20.3547H56.5021V11.4839H63.4499ZM88.0948 22C84.5861 22 82.4035 21.1187 80.2536 19.1429L81.509 17.99C83.6272 19.9349 85.3488 20.5417 88.1938 20.5417C91.8997 20.5417 94.2489 18.901 94.2489 16.0747C94.2489 14.7997 93.8187 13.736 92.9599 13.0381C92.0981 12.3689 91.4724 12.1568 89.5504 11.8832L86.8045 11.4876C85.0195 11.2447 83.5966 10.6985 82.6028 9.90557C81.3444 8.934 80.7494 7.59576 80.7494 5.92529C80.7494 2.30795 83.5609 0 88.06 0C90.9715 0 92.82 0.72961 94.8421 2.33959L93.6858 3.4033C92.2309 2.21674 90.7732 1.39593 87.9608 1.39593C84.5535 1.39593 82.5067 3.12783 82.5067 5.86293C82.5067 7.10905 82.9033 8.0499 83.7304 8.68831C84.5574 9.32672 85.912 9.84322 87.2369 10.0256L89.7864 10.3895C92.0018 10.6947 92.9945 11.0586 93.9882 11.8189C95.2773 12.7905 96.04 14.2785 96.04 16.0115C96.04 19.6566 92.9945 21.9962 88.0986 21.9962L88.0948 22ZM115.552 12.6425H108.702V21.8138H106.917V0.186125H115.554C119.62 0.186125 122.667 2.46429 122.667 6.41572C122.667 10.3672 119.622 12.6435 115.554 12.6435L115.552 12.6425ZM115.354 1.64348C118.596 1.64348 120.878 3.16319 120.878 6.41479C120.878 9.66641 118.597 11.1843 115.354 11.1843H108.702V1.63976L115.354 1.64348ZM133.082 21.8138V0.186125H134.867V20.3547H147.371V21.8138H133.082ZM171.162 21.8138L169.112 16.5577H158.122L156.069 21.8138H154.15L162.82 0.186125H164.406L173.075 21.8185L171.162 21.8138ZM163.614 2.36844L168.544 15.0994H158.684L163.614 2.36844ZM188.39 21.9962C184.885 21.9962 182.701 21.115 180.548 19.1392L181.807 17.9862C183.925 19.9312 185.644 20.5379 188.491 20.5379C192.196 20.5379 194.54 18.8972 194.54 16.071C194.54 14.796 194.109 13.7323 193.251 13.0343C192.391 12.3652 191.762 12.153 189.844 11.8794L187.096 11.4839C185.311 11.241 183.887 10.6947 182.894 9.90184C181.638 8.92935 181.04 7.59389 181.04 5.92342C181.044 2.30795 183.855 0 188.358 0C191.269 0 193.118 0.72961 195.141 2.33959L193.983 3.4033C192.526 2.21674 191.071 1.39593 188.259 1.39593C184.85 1.39593 182.8 3.12783 182.8 5.86293C182.8 7.10905 183.197 8.0499 184.023 8.68831C184.851 9.32672 186.206 9.84322 187.531 10.0256L190.079 10.3895C192.295 10.6947 193.288 11.0586 194.279 11.8189C195.569 12.7905 196.331 14.2785 196.331 16.0115C196.331 19.6566 193.288 21.9962 188.39 21.9962ZM221.274 21.8102V11.6328H208.999V21.8138H207.214V0.186125H208.999V10.1773H221.274V0.186125H223.059V21.8138L221.274 21.8102ZM234.132 7.21979C231.993 7.21979 230.258 5.62935 230.258 3.66573C230.258 1.70211 231.99 0.110744 234.132 0.110744C236.274 0.110744 238 1.70118 238 3.66573C238 5.63028 236.266 7.21979 234.132 7.21979ZM234.132 0.533249C232.28 0.533249 230.761 1.96548 230.761 3.66573C230.761 5.36599 232.279 6.79357 234.132 6.79357C235.986 6.79357 237.497 5.3604 237.497 3.66201C237.497 1.96362 235.978 0.533249 234.132 0.533249ZM235.156 5.62934L234.097 3.99052H233.391V5.62934H232.908V1.69187H234.279C234.988 1.69187 235.605 2.18324 235.605 2.84958C235.605 3.43121 235.199 3.80439 234.632 3.95143L235.712 5.62656L235.156 5.62934ZM234.225 2.09297H233.391V3.59687H234.225C234.74 3.59687 235.127 3.28232 235.127 2.85237C235.127 2.42242 234.74 2.09763 234.225 2.09763V2.09297Z" fill="black"/>
</svg>
