<svg width="248" height="65" viewBox="0 0 248 65" fill="none" xmlns="http://www.w3.org/2000/svg">
<path d="M14.6786 28.4081C14.6786 29.3621 14.4941 30.2208 14.1194 30.9729C13.7504 31.7305 13.2527 32.3758 12.632 32.9203C12.0113 33.4646 11.3067 33.8968 10.5183 34.2222C9.72984 34.5477 8.90224 34.7498 8.04669 34.8228C7.61052 34.8619 7.15199 34.8677 6.67669 34.8396C6.20137 34.8115 5.6981 34.7217 5.16129 34.5646C5.27312 34.2952 5.40173 34.0145 5.54713 33.7172C5.68692 33.4197 5.86028 33.1503 6.06158 32.8978C6.26289 32.6452 6.49215 32.4376 6.74938 32.2692C7.0066 32.0952 7.29738 31.9943 7.62171 31.955C8.01873 31.9157 8.39339 31.7978 8.73449 31.5958C9.0756 31.3937 9.37755 31.1355 9.63478 30.8213C9.89201 30.507 10.0933 30.1367 10.2499 29.7213C10.4009 29.3004 10.4791 28.8627 10.4791 28.4025C10.4791 27.9087 10.3841 27.4428 10.194 27.0106C10.0038 26.5842 9.72984 26.2025 9.37755 25.8827C9.02527 25.5571 8.60587 25.299 8.11938 25.1081C7.63289 24.9174 7.09608 24.822 6.50333 24.822C6.23493 24.822 6.01125 24.8276 5.83232 24.8388C5.65337 24.8499 5.47444 24.8557 5.30667 24.8669C5.13333 24.8781 4.95438 24.895 4.76427 24.923C4.57414 24.9511 4.35606 24.9734 4.10442 24.996V43.1119H0V22.5378C0.760493 22.4031 1.43711 22.2909 2.02984 22.2067C2.617 22.1225 3.1594 22.0551 3.64589 22.0046C4.13238 21.9597 4.6021 21.926 5.06064 21.9037C5.51917 21.8869 6.00566 21.8755 6.51452 21.8755C7.67762 21.8755 8.75127 22.0272 9.74102 22.3358C10.7308 22.6445 11.5919 23.0765 12.3245 23.6378C13.057 24.199 13.633 24.8837 14.0523 25.6862C14.4661 26.4887 14.6786 27.3979 14.6786 28.4081Z" fill="black"/>
<path d="M26.2915 38.3578L24.7761 42.9149H20.75L28.2039 22.0772H32.2077L39.6616 42.9149H35.4342L30.2952 27.4086L30.0659 26.3481L29.8088 27.4649L27.3819 34.8896L27.0408 35.462L27.4713 35.406H29.6354C30.0549 35.406 30.4126 35.5013 30.7203 35.6921C31.0223 35.883 31.2906 36.1243 31.5199 36.4106C31.7492 36.6967 31.9448 37.0166 32.107 37.3701C32.2693 37.7237 32.3978 38.0549 32.4929 38.3578H26.2915Z" fill="black"/>
<path d="M63.2589 28.2677C63.2589 29.4126 63.0018 30.406 62.4873 31.2478C61.9729 32.0897 61.2907 32.7687 60.4295 33.285L59.6298 33.5993C59.7082 33.6384 59.8088 33.6891 59.9431 33.7452C60.0772 33.8013 60.1834 33.8631 60.2561 33.9192C60.8265 34.4186 61.2738 35.0078 61.5981 35.6814C61.9226 36.3604 62.2021 37.0957 62.4425 37.8868C62.683 38.6782 62.9178 39.52 63.1583 40.4067C63.3988 41.299 63.7231 42.197 64.1424 43.1173H59.9431C59.6019 42.3934 59.3278 41.6133 59.1322 40.7828C58.9308 39.9521 58.7183 39.144 58.4891 38.3583C58.2598 37.5726 57.9914 36.8487 57.6894 36.1808C57.3876 35.513 56.9681 34.9687 56.4312 34.5477C56.0342 34.587 55.6093 34.5926 55.162 34.5645C54.7146 34.5365 54.2449 34.4467 53.7472 34.2895C53.8591 34.0201 53.9877 33.7396 54.133 33.4421C54.2728 33.1446 54.4461 32.8696 54.6475 32.6115C54.8487 32.3533 55.078 32.1401 55.3353 31.9662C55.5925 31.7922 55.8833 31.6912 56.2076 31.6519C56.6046 31.6126 56.9793 31.5059 57.3204 31.3207C57.6615 31.1411 57.9634 30.8999 58.2207 30.6024C58.4779 30.3049 58.6792 29.9569 58.8358 29.5585C58.9867 29.16 59.0651 28.728 59.0651 28.2677C59.0651 27.7683 58.9588 27.3137 58.7518 26.8927C58.5394 26.4719 58.2598 26.1072 57.9075 25.8041C57.5553 25.4954 57.1359 25.2596 56.6494 25.0856C56.1629 24.9118 55.6428 24.8276 55.0948 24.8276C54.8265 24.8276 54.6028 24.8332 54.4238 24.8444C54.2449 24.8555 54.0659 24.8611 53.8982 24.8725C53.7248 24.8837 53.5458 24.9004 53.3558 24.9286C53.1656 24.9567 52.9476 24.979 52.6959 25.0016V43.1173H48.5859V22.5378C49.3463 22.4031 50.0229 22.2908 50.6158 22.2066C51.203 22.1225 51.7453 22.0551 52.2317 22.0046C52.7183 21.9597 53.1881 21.926 53.6466 21.9037C54.105 21.8867 54.5916 21.8755 55.1004 21.8755C56.2244 21.8755 57.2812 22.0214 58.271 22.3077C59.2608 22.5939 60.1275 23.0093 60.8712 23.5536C61.6149 24.0979 62.2021 24.7658 62.627 25.5571C63.0409 26.354 63.2589 27.2519 63.2589 28.2677Z" fill="black"/>
<path d="M77.9087 38.3578L76.3933 42.9149H72.3672L79.8211 22.0772H83.8193L91.2732 42.9149H87.0458L81.9068 27.4086L81.6777 26.3481L81.4204 27.4649L78.9935 34.8896L78.6524 35.462L79.0829 35.406H81.2526C81.6721 35.406 82.0298 35.5013 82.3374 35.6921C82.6395 35.883 82.9078 36.1243 83.1371 36.4106C83.3664 36.6967 83.562 37.0166 83.7241 37.3701C83.8864 37.7237 84.0149 38.0549 84.1101 38.3578H77.9087Z" fill="black"/>
<path d="M108.199 40.3172C109.284 40.3172 110.224 40.087 111.012 39.6325C111.801 39.1723 112.455 38.5718 112.969 37.8254C113.484 37.0791 113.858 36.2373 114.099 35.3001C114.339 34.3627 114.457 33.4199 114.457 32.4659C114.457 31.3378 114.311 30.2996 114.015 29.3399C113.719 28.3859 113.254 27.5609 112.628 26.8763C111.996 26.1915 111.191 25.6528 110.207 25.2599C109.223 24.8671 108.043 24.6707 106.673 24.6707C106.293 24.6707 105.896 24.6875 105.482 24.7268C105.074 24.7661 104.649 24.8222 104.207 24.9008V42.9267H100.203V22.4651C101.478 22.1958 102.669 22.005 103.771 21.8927C104.872 21.7749 105.845 21.7187 106.684 21.7187C108.585 21.7187 110.285 21.9601 111.784 22.4483C113.277 22.9366 114.546 23.6381 115.581 24.5528C116.621 25.4732 117.409 26.59 117.952 27.9201C118.494 29.2501 118.768 30.7598 118.768 32.4659C118.768 33.9756 118.511 35.3898 117.996 36.7086C117.482 38.0275 116.777 39.1723 115.883 40.1489C114.988 41.1254 113.914 41.8886 112.667 42.4442C111.42 42.9997 110.073 43.2747 108.624 43.2747C108.356 43.2747 108.116 43.2691 107.897 43.2635C107.679 43.2523 107.445 43.2298 107.199 43.1905C106.952 43.1512 106.679 43.1063 106.388 43.0446C106.091 42.9886 105.734 42.9044 105.314 42.7865C105.426 42.5396 105.571 42.2702 105.739 41.9839C105.912 41.6978 106.108 41.4284 106.337 41.1814C106.567 40.9346 106.829 40.7269 107.137 40.5641C107.445 40.4013 107.797 40.3172 108.199 40.3172Z" fill="black"/>
<path d="M136.496 43.3252C134.84 43.3252 133.375 43.0446 132.1 42.4945C130.826 41.939 129.746 41.1814 128.857 40.2161C127.974 39.2508 127.303 38.1115 126.844 36.7927C126.386 35.4739 126.156 34.0428 126.156 32.4939C126.156 31.001 126.391 29.5979 126.855 28.2792C127.319 26.9603 127.996 25.8098 128.885 24.8277C129.769 23.8456 130.848 23.0711 132.128 22.5042C133.403 21.9431 134.863 21.6568 136.496 21.6568C138.358 21.6568 139.946 21.9824 141.249 22.6333C142.552 23.2844 143.62 24.1262 144.447 25.1701C145.275 26.2139 145.873 27.3756 146.248 28.6663C146.617 29.9571 146.807 31.2311 146.807 32.4939C146.807 33.9081 146.578 35.2662 146.119 36.5625C145.661 37.8646 145.001 39.0151 144.134 40.014C143.267 41.0186 142.194 41.8211 140.908 42.4217C139.622 43.0277 138.151 43.3252 136.496 43.3252ZM136.496 24.6144C135.506 24.6144 134.639 24.8277 133.895 25.243C133.152 25.664 132.531 26.2364 132.028 26.9603C131.524 27.6898 131.144 28.526 130.887 29.4858C130.63 30.4397 130.501 31.4444 130.501 32.4939C130.501 33.4871 130.63 34.4581 130.887 35.4008C131.144 36.3494 131.524 37.1912 132.028 37.9263C132.531 38.6615 133.157 39.2564 133.895 39.7053C134.639 40.1543 135.506 40.3789 136.496 40.3789C137.273 40.3789 138.028 40.1992 138.749 39.8513C139.47 39.4978 140.108 38.987 140.662 38.3192C141.215 37.6513 141.657 36.8263 141.987 35.8555C142.322 34.8789 142.484 33.7621 142.484 32.5051C142.484 31.3769 142.345 30.3332 142.071 29.3679C141.797 28.4025 141.4 27.5721 140.885 26.8761C140.371 26.1802 139.744 25.6302 139.001 25.2262C138.268 24.8108 137.429 24.6144 136.496 24.6144Z" fill="black"/>
<path d="M158.367 42.9093H154L159.654 33.5932C159.827 33.8402 160.022 34.1657 160.251 34.5697C160.481 34.9682 160.665 35.406 160.81 35.8717C160.951 36.3376 161.028 36.8258 161.04 37.3308C161.051 37.836 160.928 38.3129 160.683 38.7507L158.367 42.9093ZM154.312 22.0772H158.825L162.337 28.9296L162.622 29.8163L162.851 28.9296L166.364 22.0772H170.848L164.653 32.3697L171.161 42.9149H166.732L154.312 22.0772Z" fill="black"/>
<path fill-rule="evenodd" clip-rule="evenodd" d="M237.539 55.4755C250.159 42.781 250.159 22.2127 237.539 9.51811C234.787 6.75135 230.297 6.75135 227.545 9.51811C224.795 12.2849 224.795 16.8026 227.545 19.5751C234.635 26.7079 234.635 38.2858 227.545 45.4244C220.455 52.5572 208.941 52.5572 201.851 45.4244C198.294 41.8438 196.527 37.1744 196.527 32.4996C196.527 16.9878 207.33 4.01265 221.769 0.785693C219.499 0.280605 217.123 0 214.701 0C196.858 0 182.391 14.5465 182.391 32.4996C182.391 36.6638 183.174 40.828 184.762 44.7396C188.196 52.9389 194.403 59.1626 202.125 62.4626C208.662 65.1283 215.378 65.6615 221.764 64.2135C227.545 62.9116 233.047 59.9933 237.539 55.4755Z" fill="#3CC1CA"/>
</svg>
