<svg width="129" height="33" viewBox="0 0 129 33" fill="none" xmlns="http://www.w3.org/2000/svg">
<path fill-rule="evenodd" clip-rule="evenodd" d="M21.0875 0V15.4613C21.0875 19.9147 18.8496 22.065 15.2264 22.065C11.5358 22.065 9.3338 19.9147 9.3338 15.4613V8.21221L9.32975 8.21472V0L0 9.26751H7.50328L4.66412 10.8084V15.9448C4.66412 19.2476 5.63814 21.8026 7.6165 23.5833C9.59739 25.364 12.1285 26.2531 15.2264 26.2531C18.3249 26.2531 20.8284 25.364 22.8048 23.5833C24.7829 21.8026 25.7518 19.2476 25.7518 15.9448V0H21.0875Z" fill="#5E707D"/>
<path fill-rule="evenodd" clip-rule="evenodd" d="M51.6406 25.8458V0H54.5485V23.1753H65.2641V25.8458H51.6406Z" fill="#9FB3BD"/>
<path fill-rule="evenodd" clip-rule="evenodd" d="M81.2369 14.6836C81.2369 13.1633 80.6764 11.8662 79.5568 10.7898C78.4372 9.71294 77.0912 9.15779 75.5255 9.15779C73.8092 9.15779 72.3151 9.71294 71.0833 10.7898C69.8538 11.8662 69.185 13.1633 69.0706 14.6836H81.2369ZM66.125 16.5756C66.125 13.5713 67.0199 11.1594 68.7723 9.34309C70.5227 7.52675 72.7998 6.60125 75.5255 6.60125C78.0986 6.60125 80.1535 7.48883 81.7578 9.30718C83.3639 11.0879 84.1853 13.2746 84.1853 15.9094C84.1853 16.3169 84.1853 16.7227 84.1494 17.0953H68.8843C69.0349 21.2098 71.6802 23.8422 75.5996 23.8422C78.1772 23.8422 79.7049 23.0262 81.3876 21.2475L83.2158 23.0262C81.2369 25.2169 78.6955 26.3267 75.5996 26.3267C72.7998 26.3267 70.4861 25.4376 68.7362 23.6951C66.9795 21.9518 66.125 19.618 66.125 16.7227V16.5756ZM100.23 21.766C101.574 20.3554 102.245 18.6171 102.245 16.502C102.245 14.3869 101.574 12.6464 100.23 11.2732C98.9222 9.86283 97.2484 9.15879 95.2298 9.15879C93.2916 9.15879 91.6853 9.86283 90.3797 11.2732C89.112 12.6464 88.4774 14.3869 88.4774 16.502C88.4774 18.6171 89.112 20.3554 90.3797 21.766C91.6853 23.1389 93.2916 23.8412 95.2298 23.8412C97.2484 23.8412 98.9222 23.1389 100.23 21.766ZM101.91 9.93841V7.1569H104.672V21.6545C104.672 23.2885 105.044 23.9903 106.09 23.9903C106.388 23.9903 106.722 23.9549 107.059 23.9168V25.994C106.61 26.1795 106.013 26.2908 105.307 26.2908C104.485 26.2908 103.81 26.1035 103.326 25.7715C102.617 25.2164 102.173 24.3248 102.059 23.1012C100.641 25.2899 98.3634 26.4002 95.2298 26.4002C92.5802 26.4002 90.3056 25.4727 88.4774 23.5828C86.6471 21.6924 85.7156 19.3212 85.7156 16.502C85.7156 13.6826 86.6471 11.3467 88.4774 9.45733C90.3056 7.56491 92.5802 6.60175 95.2298 6.60175C98.628 6.60175 100.827 8.0485 101.91 9.93841ZM122.172 21.7667C123.516 20.3559 124.187 18.6171 124.187 16.502C124.187 14.3869 123.516 12.6464 122.172 11.2732C120.862 9.86233 119.188 9.15779 117.167 9.15779C115.229 9.15779 113.622 9.86233 112.319 11.2732C111.049 12.6464 110.414 14.3869 110.414 16.502C110.414 18.6171 111.049 20.3559 112.319 21.7667C113.622 23.1394 115.229 23.8422 117.167 23.8422C119.188 23.8422 120.862 23.1394 122.172 21.7667ZM123.852 9.93791V0H126.612V21.6555C126.612 23.2891 126.982 23.9913 128.028 23.9913C128.326 23.9913 128.663 23.9549 128.997 23.9178V25.9945C128.551 26.1795 127.951 26.2913 127.245 26.2913C126.426 26.2913 125.751 26.1045 125.266 25.772C124.559 25.2169 124.115 24.3253 124.003 23.1017C122.585 25.2904 120.306 26.4005 117.167 26.4005C114.517 26.4005 112.245 25.4732 110.414 23.5833C108.586 21.6932 107.652 19.3212 107.652 16.502C107.652 13.6826 108.586 11.3467 110.414 9.45683C112.245 7.56441 114.517 6.60125 117.167 6.60125C120.568 6.60125 122.771 8.048 123.852 9.93791Z" fill="#9FB3BD"/>
<path fill-rule="evenodd" clip-rule="evenodd" d="M35.282 12.419C34.1655 13.4979 33.6029 14.8685 33.6029 16.5001C33.6029 18.1316 34.1655 19.5023 35.282 20.5812C36.3645 21.6531 37.7441 22.2102 39.3525 22.2102C40.9591 22.2102 42.2647 21.6531 43.3418 20.5812C44.3927 19.5023 44.912 18.1316 44.912 16.5001C44.912 14.8685 44.3927 13.4979 43.3418 12.419C42.2647 11.3468 40.9591 10.7899 39.3525 10.7899C37.7441 10.7899 36.3645 11.3468 35.282 12.419ZM33.941 23.1395V33.0001H29.4619V12.7936C29.4619 11.1974 29.0907 10.6044 28.0792 10.6044C27.8192 10.6044 27.4825 10.6428 27.1484 10.6779V7.08292C27.6327 6.89812 28.3754 6.78438 29.3444 6.78438C30.4314 6.78438 31.2874 6.97169 31.9607 7.37719C32.7858 7.93434 33.3062 8.6768 33.4912 9.63945C34.7973 7.67573 36.9614 6.7088 39.9492 6.7088C42.597 6.7088 44.8339 7.63605 46.6687 9.52622C48.4601 11.4224 49.354 13.7206 49.354 16.5001C49.354 19.2796 48.4601 21.5795 46.6687 23.4343C44.8339 25.3242 42.597 26.2532 39.9492 26.2532C36.9253 26.2532 34.6459 24.9162 33.941 23.1395Z" fill="#5E707D"/>
</svg>
