<svg width="160" height="38" viewBox="0 0 160 38" fill="none" xmlns="http://www.w3.org/2000/svg">
<path d="M56.9349 10.3545H60.0524V24.2403C60.0524 25.624 59.706 26.842 59.0132 27.8944C58.3205 28.9468 57.3604 29.7556 56.1332 30.3208C54.9258 30.9054 53.56 31.1978 52.0359 31.1978C50.3138 31.1978 48.7699 30.8762 47.4041 30.2331C46.0581 29.5899 45.0981 28.7324 44.5241 27.6605L47.1962 26.1404C47.5129 26.7641 48.0969 27.2903 48.948 27.719C49.8189 28.1478 50.8779 28.3621 52.1249 28.3621C53.5303 28.3621 54.6784 27.9821 55.5691 27.222C56.4796 26.462 56.9349 25.4681 56.9349 24.2403V23.2171C56.2421 23.8797 55.4404 24.4059 54.5299 24.7957C53.6392 25.166 52.7089 25.3511 51.739 25.3511C50.2544 25.3511 48.948 25.0198 47.8198 24.3572C46.6915 23.6751 45.8107 22.7591 45.1773 21.6093C44.5636 20.44 44.2568 19.1342 44.2568 17.692C44.2568 16.2499 44.5636 14.9441 45.1773 13.7748C45.8107 12.6055 46.6915 11.6895 47.8198 11.0269C48.948 10.3448 50.2544 10.0037 51.739 10.0037C52.7089 10.0037 53.6392 10.1986 54.5299 10.5884C55.4404 10.9587 56.2421 11.4849 56.9349 12.167V10.3545ZM52.1249 22.3986C53.0157 22.3986 53.8272 22.1939 54.5596 21.7847C55.292 21.3754 55.866 20.8102 56.2817 20.0892C56.7171 19.3681 56.9349 18.5593 56.9349 17.6628C56.9349 16.7663 56.7171 15.9673 56.2817 15.2657C55.866 14.5446 55.292 13.9892 54.5596 13.5994C53.8272 13.1901 53.0157 12.9855 52.1249 12.9855C51.2342 12.9855 50.4227 13.1901 49.6903 13.5994C48.9777 13.9892 48.4136 14.5446 47.9979 15.2657C47.5822 15.9868 47.3744 16.7956 47.3744 17.692C47.3744 18.5885 47.5822 19.3973 47.9979 20.1184C48.4136 20.8395 48.9777 21.4047 49.6903 21.8139C50.4227 22.2037 51.2342 22.3986 52.1249 22.3986Z" fill="#16131C"/>
<path d="M75.4034 10.3545H78.5209V30.8177H75.4034V23.1879C74.7106 23.87 73.9089 24.4059 72.9984 24.7957C72.1077 25.166 71.1773 25.3511 70.2074 25.3511C68.7229 25.3511 67.4165 25.0198 66.2882 24.3572C65.16 23.6751 64.2791 22.7494 63.6457 21.5801C63.0321 20.4107 62.7253 19.105 62.7253 17.6628C62.7253 16.2206 63.0321 14.9149 63.6457 13.7456C64.2791 12.5762 65.16 11.6603 66.2882 10.9976C67.4165 10.335 68.7229 10.0037 70.2074 10.0037C71.1773 10.0037 72.1077 10.1986 72.9984 10.5884C73.9089 10.9587 74.7106 11.4849 75.4034 12.167V10.3545ZM70.5637 22.3693C71.4545 22.3693 72.266 22.1745 72.9984 21.7847C73.7506 21.3754 74.3345 20.82 74.7502 20.1184C75.1856 19.3973 75.4034 18.5885 75.4034 17.692C75.4034 16.7956 75.1856 15.9868 74.7502 15.2657C74.3345 14.5251 73.7506 13.9502 72.9984 13.5409C72.266 13.1317 71.4545 12.927 70.5637 12.927C69.673 12.927 68.8614 13.1317 68.1291 13.5409C67.4165 13.9502 66.8524 14.5154 66.4367 15.2365C66.0408 15.9575 65.8429 16.7663 65.8429 17.6628C65.8429 18.5593 66.0408 19.3681 66.4367 20.0892C66.8524 20.7908 67.4165 21.3462 68.1291 21.7554C68.8614 22.1647 69.673 22.3693 70.5637 22.3693Z" fill="#16131C"/>
<path d="M91.5877 10.3545H94.7053V24.9711H91.5877V23.5094C91.0533 24.0551 90.4298 24.5034 89.7172 24.8542C89.0244 25.1855 88.2722 25.3511 87.4607 25.3511C86.5897 25.3511 85.699 25.1757 84.7885 24.8249C83.8978 24.4546 83.1258 23.8018 82.4726 22.8663C81.8194 21.9308 81.4928 20.6738 81.4928 19.0952V10.3545H84.6103V19.0952C84.6103 20.3425 84.9567 21.239 85.6495 21.7847C86.3621 22.3304 87.1935 22.6032 88.1436 22.6032C89.0739 22.6032 89.8755 22.2816 90.5485 21.6385C91.2413 20.9954 91.5877 19.9527 91.5877 18.5106V10.3545Z" fill="#16131C"/>
<path d="M105.035 9.97449C106.48 9.97449 107.766 10.3253 108.895 11.0269C110.023 11.709 110.904 12.6444 111.537 13.8333C112.17 15.0026 112.487 16.2888 112.487 17.692C112.487 17.9259 112.448 18.2962 112.368 18.8029H100.373C100.631 19.9722 101.185 20.9077 102.036 21.6093C102.907 22.3109 104.005 22.6617 105.332 22.6617C106.143 22.6617 106.915 22.4863 107.648 22.1355C108.4 21.7847 108.954 21.3267 109.31 20.7615L111.745 22.1647C111.072 23.1781 110.181 23.9674 109.073 24.5326C107.964 25.0783 106.697 25.3511 105.272 25.3511C103.689 25.3511 102.283 25.0198 101.056 24.3572C99.8487 23.6946 98.9085 22.7786 98.2355 21.6093C97.5823 20.44 97.2557 19.1245 97.2557 17.6628C97.2557 16.2206 97.5823 14.9149 98.2355 13.7456C98.9085 12.5762 99.8289 11.6603 100.997 10.9976C102.184 10.3155 103.53 9.97449 105.035 9.97449ZM109.518 16.3765C109.36 15.2267 108.875 14.3205 108.063 13.6579C107.271 12.9952 106.262 12.6639 105.035 12.6639C104.184 12.6639 103.402 12.8393 102.689 13.1901C101.977 13.5214 101.412 13.9794 100.997 14.5641C100.581 15.1293 100.363 15.7334 100.344 16.3765H109.518Z" fill="#16131C"/>
<path d="M125.193 10.3545H128.311V24.9711H125.193V23.5094C124.659 24.0551 124.035 24.5034 123.322 24.8542C122.63 25.1855 121.878 25.3511 121.066 25.3511C120.195 25.3511 119.304 25.1757 118.394 24.8249C117.503 24.4546 116.731 23.8018 116.078 22.8663C115.425 21.9308 115.098 20.6738 115.098 19.0952V10.3545H118.216V19.0952C118.216 20.3425 118.562 21.239 119.255 21.7847C119.967 22.3304 120.799 22.6032 121.749 22.6032C122.679 22.6032 123.481 22.2816 124.154 21.6385C124.847 20.9954 125.193 19.9527 125.193 18.5106V10.3545Z" fill="#16131C"/>
<path d="M138.64 9.97449C140.085 9.97449 141.372 10.3253 142.5 11.0269C143.628 11.709 144.509 12.6444 145.142 13.8333C145.776 15.0026 146.092 16.2888 146.092 17.692C146.092 17.9259 146.053 18.2962 145.974 18.8029H133.979C134.236 19.9722 134.79 20.9077 135.641 21.6093C136.512 22.3109 137.611 22.6617 138.937 22.6617C139.748 22.6617 140.52 22.4863 141.253 22.1355C142.005 21.7847 142.559 21.3267 142.916 20.7615L145.35 22.1647C144.677 23.1781 143.786 23.9674 142.678 24.5326C141.57 25.0783 140.303 25.3511 138.878 25.3511C137.294 25.3511 135.889 25.0198 134.661 24.3572C133.454 23.6946 132.514 22.7786 131.841 21.6093C131.188 20.44 130.861 19.1245 130.861 17.6628C130.861 16.2206 131.188 14.9149 131.841 13.7456C132.514 12.5762 133.434 11.6603 134.602 10.9976C135.79 10.3155 137.136 9.97449 138.64 9.97449ZM143.123 16.3765C142.965 15.2267 142.48 14.3205 141.668 13.6579C140.877 12.9952 139.867 12.6639 138.64 12.6639C137.789 12.6639 137.007 12.8393 136.294 13.1901C135.582 13.5214 135.018 13.9794 134.602 14.5641C134.186 15.1293 133.969 15.7334 133.949 16.3765H143.123Z" fill="#16131C"/>
<path d="M151.182 14.3887C151.182 14.8759 151.429 15.2365 151.924 15.4703C152.439 15.6847 153.26 15.9283 154.388 16.2011C155.536 16.4545 156.486 16.7273 157.239 17.0197C157.991 17.2925 158.634 17.731 159.169 18.3352C159.723 18.9393 160 19.7578 160 20.7908C160 21.7262 159.723 22.5447 159.169 23.2463C158.614 23.9284 157.862 24.4546 156.912 24.8249C155.982 25.1757 154.952 25.3511 153.824 25.3511C152.3 25.3511 150.994 25.0588 149.905 24.4741C148.816 23.87 148.025 23.032 147.53 21.9601L150.083 20.6446C150.38 21.3852 150.845 21.9406 151.479 22.3109C152.132 22.6617 152.914 22.8371 153.824 22.8371C154.675 22.8371 155.408 22.6617 156.021 22.3109C156.655 21.9601 156.971 21.4631 156.971 20.82C156.971 20.2548 156.684 19.8455 156.11 19.5922C155.556 19.3194 154.675 19.0368 153.468 18.7444C152.3 18.4521 151.36 18.1793 150.647 17.9259C149.954 17.6531 149.351 17.2438 148.836 16.6981C148.321 16.1329 148.064 15.3924 148.064 14.4764C148.064 13.5799 148.321 12.7906 148.836 12.1085C149.351 11.4264 150.044 10.9002 150.914 10.5299C151.785 10.1596 152.755 9.97449 153.824 9.97449C155.091 9.97449 156.219 10.2473 157.209 10.793C158.218 11.3192 158.99 12.0598 159.525 13.0147L156.971 14.2718C156.417 13.0829 155.368 12.4885 153.824 12.4885C153.013 12.4885 152.369 12.6639 151.894 13.0147C151.419 13.346 151.182 13.804 151.182 14.3887Z" fill="#16131C"/>
<path d="M2.50689 22.5065C1.12804 21.1489 1.12803 18.9479 2.50689 17.5903L17.876 2.45811C19.2549 1.10051 21.4904 1.10051 22.8693 2.4581V2.4581C24.2481 3.8157 24.2481 6.01679 22.8693 7.37438L7.50016 22.5065C6.1213 23.8641 3.88574 23.8641 2.50689 22.5065V22.5065Z" fill="#8031FF"/>
<path d="M15.8545 22.4936C14.4846 21.1448 14.4846 18.9579 15.8545 17.6091L24.559 9.03883C25.9289 7.69001 28.1501 7.69001 29.52 9.03883V9.03883C30.8899 10.3876 30.8899 12.5745 29.52 13.9233L20.8155 22.4936C19.4456 23.8424 17.2245 23.8424 15.8545 22.4936V22.4936Z" fill="#4285F4"/>
<path fill-rule="evenodd" clip-rule="evenodd" d="M15.9065 35.6996C15.8246 35.6324 15.7451 35.561 15.6683 35.4854L9.17754 29.0947C7.80475 27.7431 7.80475 25.5517 9.17754 24.2001C10.5503 22.8485 12.776 22.8485 14.1488 24.2001L18.2767 28.2643L31.2162 15.5244C32.574 14.1875 34.7753 14.1875 36.1331 15.5244C37.4908 16.8612 37.4908 19.0286 36.1331 20.3654L20.6875 35.5728C19.3742 36.8659 17.2715 36.9082 15.9065 35.6996Z" fill="#00D9AD"/>
</svg>
