<svg width="161" height="54" viewBox="0 0 161 54" fill="none" xmlns="http://www.w3.org/2000/svg">
<path d="M68.7637 34.2266L64 16.8161H66.1437L69.7845 30.9961H69.9546L73.6634 16.8161H76.0453L79.7541 30.9961H79.9243L83.565 16.8161H85.7087L80.9451 34.2266H78.7674L74.9224 20.3525H74.7863L70.9414 34.2266H68.7637ZM90.6935 34.5326C89.8656 34.5326 89.1141 34.3767 88.4393 34.065C87.7645 33.7477 87.2286 33.2914 86.8316 32.6964C86.4347 32.0956 86.2362 31.3701 86.2362 30.5201C86.2362 29.7719 86.3836 29.1655 86.6784 28.7008C86.9734 28.2304 87.3675 27.862 87.8609 27.5956C88.3542 27.3293 88.8987 27.1309 89.4941 27.0005C90.0952 26.8645 90.6992 26.7568 91.3061 26.6774C92.1 26.5755 92.7437 26.4989 93.237 26.448C93.7361 26.3913 94.099 26.2977 94.3258 26.1674C94.5584 26.0371 94.6746 25.8104 94.6746 25.4873V25.4192C94.6746 24.5806 94.4449 23.9287 93.9855 23.464C93.5319 22.9993 92.8429 22.7669 91.9185 22.7669C90.9601 22.7669 90.2087 22.9766 89.6643 23.396C89.1198 23.8154 88.737 24.2631 88.5158 24.7393L86.6104 24.0591C86.9507 23.2656 87.4044 22.6479 87.9715 22.2059C88.5442 21.7581 89.1681 21.4464 89.8429 21.2707C90.5234 21.0894 91.1926 20.9987 91.8504 20.9987C92.2701 20.9987 92.7521 21.0497 93.2966 21.1516C93.8466 21.2481 94.3769 21.4492 94.8873 21.7553C95.4033 22.0613 95.8315 22.5233 96.1718 23.141C96.512 23.7588 96.6821 24.5862 96.6821 25.6233V34.2266H94.6746V32.4583H94.5725C94.4365 32.7416 94.2096 33.0449 93.892 33.3679C93.5744 33.691 93.1519 33.9658 92.6245 34.1926C92.0971 34.4192 91.4534 34.5326 90.6935 34.5326ZM90.9998 32.7303C91.7937 32.7303 92.463 32.5745 93.0073 32.2627C93.5574 31.9511 93.9714 31.5486 94.2493 31.0556C94.5328 30.5626 94.6746 30.044 94.6746 29.4999V27.6636C94.5895 27.7657 94.4024 27.8591 94.1132 27.9442C93.8296 28.0235 93.5007 28.0943 93.1264 28.1567C92.7578 28.2133 92.3977 28.2644 92.046 28.3098C91.7002 28.3494 91.4195 28.3834 91.204 28.4117C90.6822 28.4797 90.1945 28.5903 89.7408 28.7433C89.2928 28.8906 88.9299 29.1145 88.6519 29.4148C88.3798 29.7095 88.2437 30.1119 88.2437 30.6221C88.2437 31.3192 88.5017 31.8462 89.0177 32.2032C89.5395 32.5547 90.2002 32.7303 90.9998 32.7303ZM106.029 21.1687V22.8689H99.2574V21.1687H106.029ZM101.231 18.0402H103.239V30.4861C103.239 31.0528 103.321 31.4779 103.485 31.7613C103.655 32.0389 103.871 32.2259 104.132 32.3222C104.398 32.413 104.679 32.4583 104.974 32.4583C105.195 32.4583 105.377 32.4469 105.518 32.4243C105.66 32.396 105.774 32.3733 105.859 32.3563L106.267 34.1585C106.131 34.2096 105.941 34.2605 105.697 34.3116C105.453 34.3683 105.144 34.3965 104.77 34.3965C104.203 34.3965 103.647 34.2748 103.102 34.0311C102.564 33.7873 102.116 33.4162 101.758 32.9174C101.407 32.4187 101.231 31.7895 101.231 31.0301V18.0402ZM114.216 34.4986C112.991 34.4986 111.937 34.2096 111.052 33.6315C110.167 33.0534 109.487 32.2571 109.01 31.2427C108.534 30.2281 108.296 29.0692 108.296 27.7656C108.296 26.4394 108.54 25.2691 109.027 24.2547C109.521 23.2345 110.207 22.4382 111.086 21.8658C111.971 21.2878 113.002 20.9987 114.182 20.9987C115.101 20.9987 115.929 21.1687 116.666 21.5088C117.403 21.8487 118.008 22.3249 118.478 22.937C118.949 23.549 119.241 24.2631 119.355 25.0793H117.347C117.193 24.4841 116.853 23.9571 116.326 23.4981C115.804 23.0333 115.101 22.801 114.216 22.801C113.433 22.801 112.748 23.0049 112.158 23.413C111.573 23.8154 111.117 24.3849 110.788 25.1217C110.465 25.8529 110.303 26.7115 110.303 27.6976C110.303 28.7065 110.462 29.5849 110.779 30.333C111.103 31.0811 111.557 31.6621 112.141 32.0758C112.731 32.4895 113.422 32.6964 114.216 32.6964C114.738 32.6964 115.212 32.6056 115.637 32.4243C116.063 32.2429 116.422 31.9822 116.717 31.6422C117.012 31.3022 117.222 30.8941 117.347 30.418H119.355C119.241 31.1888 118.96 31.883 118.512 32.5009C118.069 33.1129 117.483 33.6003 116.752 33.963C116.025 34.32 115.18 34.4986 114.216 34.4986ZM124.296 26.3715V34.2266H122.289V16.8161H124.296V23.209H124.466C124.773 22.5345 125.233 21.999 125.845 21.6023C126.462 21.1999 127.285 20.9987 128.311 20.9987C129.202 20.9987 129.981 21.1772 130.651 21.5342C131.321 21.8857 131.838 22.4268 132.208 23.158C132.582 23.8834 132.769 24.8072 132.769 25.9294V34.2266H130.762V26.0654C130.762 25.0282 130.492 24.2263 129.953 23.6596C129.42 23.0871 128.68 22.801 127.733 22.801C127.075 22.801 126.485 22.9398 125.964 23.2175C125.447 23.4952 125.04 23.9005 124.739 24.4332C124.444 24.9659 124.296 25.612 124.296 26.3715ZM142.26 21.1687V22.8689H135.217V21.1687H142.26ZM137.326 34.2266V19.3665C137.326 18.6183 137.502 17.995 137.853 17.4962C138.206 16.9975 138.662 16.6233 139.223 16.374C139.784 16.1246 140.378 16 141.002 16C141.494 16 141.897 16.0397 142.209 16.119C142.521 16.1984 142.754 16.272 142.906 16.3401L142.328 18.0743C142.227 18.0402 142.084 17.9977 141.903 17.9467C141.727 17.8958 141.494 17.8702 141.206 17.8702C140.542 17.8702 140.063 18.0374 139.767 18.3718C139.479 18.7062 139.334 19.1964 139.334 19.8425V34.2266H137.326ZM153.308 28.8878V21.1687H155.316V34.2266H153.308V32.0163H153.171C152.866 32.6794 152.389 33.2432 151.743 33.708C151.097 34.167 150.28 34.3965 149.293 34.3965C148.476 34.3965 147.751 34.218 147.116 33.861C146.48 33.4983 145.981 32.9542 145.618 32.2288C145.255 31.4977 145.074 30.5767 145.074 29.4659V21.1687H147.081V29.3298C147.081 30.282 147.348 31.0415 147.881 31.6082C148.419 32.1749 149.106 32.4583 149.94 32.4583C150.438 32.4583 150.946 32.3308 151.462 32.0758C151.984 31.8208 152.421 31.4296 152.772 30.9026C153.129 30.3755 153.308 29.7039 153.308 28.8878ZM161 16.8161V34.2266H158.992V16.8161H161Z" fill="#0E0E16"/>
<path d="M27 54C41.9116 54 54 41.9116 54 27C54 12.0884 41.9116 0 27 0C12.0884 0 0 12.0884 0 27C0 41.9116 12.0884 54 27 54Z" fill="#232331"/>
<path d="M30.9028 7.87514C30.9028 7.87514 31.6967 9.6217 34.2888 10.6076V11.2917C34.2888 11.2917 32.5426 12.8517 30.2798 12.4959C30.2798 12.4959 27.9669 19.612 33.9711 28.8633C33.9711 28.8633 31.379 27.9602 30.03 25.7428C30.03 25.7428 33.486 35.7534 27.7542 38.8255C27.7542 38.8255 24.5549 43.6337 27.8345 44.4279V45.2483H25.3748C25.3748 45.2483 22.6591 41.052 23.8406 36.0614C23.8406 36.0614 20.3633 45.2483 9.85889 45.2483C9.85889 45.2483 21.9099 44.0076 21.9099 30.3411C21.9099 19.6281 25.3103 10.3066 25.3103 10.3066C25.3103 10.3066 23.3294 7.89479 26.4019 7.89479C26.4019 7.89479 28.4692 6.94889 30.9028 7.87514Z" fill="white"/>
<g style="mix-blend-mode:multiply">
<path d="M33.9743 28.8635C33.9743 28.8635 31.3822 27.9603 30.0332 25.7429C30.0332 25.7429 33.4892 35.7535 27.7573 38.8257C31.1502 34.548 29.9152 30.3279 28.5636 24.0638C27.2112 17.7995 29.2689 11.2919 29.2689 11.2919C30.3269 12.0827 34.2913 11.2919 34.2913 11.2919C34.2913 11.2919 32.5458 12.8518 30.2829 12.4961C30.2829 12.4961 27.9701 19.612 33.9743 28.8635Z" fill="white"/>
</g>
</svg>
