<svg width="162" height="38" viewBox="0 0 162 38" fill="none" xmlns="http://www.w3.org/2000/svg">
<path d="M56.42 10.3754H59.5913V24.7218C59.5913 26.1514 59.2389 27.4099 58.5342 28.4971C57.8295 29.5844 56.853 30.4201 55.6046 31.004C54.3763 31.608 52.987 31.91 51.4366 31.91C49.6848 31.91 48.1143 31.5778 46.7249 30.9134C45.3557 30.2489 44.3792 29.363 43.7953 28.2555L46.5135 26.685C46.8356 27.3293 47.4296 27.8729 48.2954 28.3159C49.1814 28.7589 50.2587 28.9803 51.5272 28.9803C52.9568 28.9803 54.1247 28.5878 55.0307 27.8024C55.957 27.0172 56.42 25.9903 56.42 24.7218V23.6647C55.7153 24.3493 54.8999 24.8929 53.9736 25.2956C53.0676 25.6782 52.1211 25.8695 51.1345 25.8695C49.6244 25.8695 48.2954 25.5271 47.1477 24.8426C46.0001 24.1378 45.104 23.1915 44.4597 22.0035C43.8355 20.7954 43.5234 19.4463 43.5234 17.9563C43.5234 16.4663 43.8355 15.1173 44.4597 13.9092C45.104 12.701 46.0001 11.7547 47.1477 11.0701C48.2954 10.3654 49.6244 10.013 51.1345 10.013C52.1211 10.013 53.0676 10.2143 53.9736 10.617C54.8999 10.9997 55.7153 11.5433 56.42 12.248V10.3754ZM51.5272 22.819C52.4333 22.819 53.2588 22.6076 54.0038 22.1847C54.7488 21.7619 55.3327 21.178 55.7556 20.4329C56.1986 19.688 56.42 18.8523 56.42 17.9262C56.42 16.9999 56.1986 16.1744 55.7556 15.4495C55.3327 14.7045 54.7488 14.1306 54.0038 13.728C53.2588 13.3051 52.4333 13.0937 51.5272 13.0937C50.6211 13.0937 49.7955 13.3051 49.0505 13.728C48.3257 14.1306 47.7518 14.7045 47.329 15.4495C46.9061 16.1945 46.6947 17.0301 46.6947 17.9563C46.6947 18.8825 46.9061 19.7182 47.329 20.4632C47.7518 21.2081 48.3257 21.7921 49.0505 22.2149C49.7955 22.6176 50.6211 22.819 51.5272 22.819Z" fill="#16131C"/>
<path d="M75.2091 10.3754H78.3804V31.5174H75.2091V23.6345C74.5043 24.3392 73.6888 24.8929 72.7627 25.2956C71.8565 25.6782 70.9102 25.8695 69.9236 25.8695C68.4135 25.8695 67.0845 25.5271 65.9368 24.8426C64.7891 24.1378 63.8931 23.1814 63.2488 21.9733C62.6245 20.7652 62.3125 19.4161 62.3125 17.9262C62.3125 16.4361 62.6245 15.0871 63.2488 13.8789C63.8931 12.6709 64.7891 11.7244 65.9368 11.0399C67.0845 10.3553 68.4135 10.013 69.9236 10.013C70.9102 10.013 71.8565 10.2143 72.7627 10.617C73.6888 10.9997 74.5043 11.5433 75.2091 12.248V10.3754ZM70.2861 22.7888C71.1921 22.7888 72.0176 22.5874 72.7627 22.1847C73.5278 21.7619 74.1218 21.1881 74.5446 20.4632C74.9876 19.7182 75.2091 18.8825 75.2091 17.9563C75.2091 17.0301 74.9876 16.1945 74.5446 15.4495C74.1218 14.6844 73.5278 14.0903 72.7627 13.6675C72.0176 13.2447 71.1921 13.0333 70.2861 13.0333C69.3799 13.0333 68.5544 13.2447 67.8094 13.6675C67.0845 14.0903 66.5107 14.6743 66.0879 15.4193C65.6852 16.1643 65.4838 16.9999 65.4838 17.9262C65.4838 18.8523 65.6852 19.688 66.0879 20.4329C66.5107 21.1578 67.0845 21.7317 67.8094 22.1546C68.5544 22.5774 69.3799 22.7888 70.2861 22.7888Z" fill="#16131C"/>
<path d="M91.6752 10.3758H94.8469V25.4772H91.6752V23.9671C91.1318 24.5309 90.4973 24.994 89.7725 25.3564C89.0676 25.6988 88.3026 25.8699 87.477 25.8699C86.5911 25.8699 85.685 25.6886 84.7589 25.3262C83.8527 24.9436 83.0674 24.2691 82.4029 23.3027C81.7384 22.3361 81.4062 21.0374 81.4062 19.4065V10.3758H84.5775V19.4065C84.5775 20.6952 84.9299 21.6213 85.6346 22.1851C86.3595 22.7489 87.2052 23.0308 88.1716 23.0308C89.118 23.0308 89.9338 22.6986 90.6185 22.0342C91.3232 21.3696 91.6752 20.2924 91.6752 18.8024V10.3758Z" fill="#16131C"/>
<path d="M105.351 9.98228C106.82 9.98228 108.13 10.3447 109.277 11.0696C110.425 11.7744 111.32 12.7408 111.965 13.9691C112.61 15.1772 112.931 16.5061 112.931 17.9559C112.931 18.1974 112.891 18.58 112.811 19.1036H100.609C100.871 20.3116 101.434 21.2781 102.3 22.003C103.186 22.7279 104.303 23.0904 105.653 23.0904C106.479 23.0904 107.263 22.9091 108.008 22.5466C108.774 22.1842 109.338 21.7111 109.7 21.1271L112.177 22.5769C111.492 23.6239 110.586 24.4394 109.458 25.0233C108.331 25.5871 107.042 25.869 105.592 25.869C103.981 25.869 102.552 25.5267 101.304 24.8421C100.075 24.1575 99.1191 23.2112 98.4339 22.003C97.7702 20.7949 97.4375 19.4358 97.4375 17.9257C97.4375 16.4356 97.7702 15.0866 98.4339 13.8784C99.1191 12.6704 100.055 11.7239 101.243 11.0394C102.452 10.3346 103.82 9.98228 105.351 9.98228ZM109.911 16.5967C109.751 15.4087 109.257 14.4725 108.431 13.7878C107.626 13.1032 106.599 12.761 105.351 12.761C104.485 12.761 103.69 12.9421 102.965 13.3046C102.24 13.6469 101.666 14.1201 101.243 14.7241C100.821 15.308 100.599 15.9323 100.579 16.5967H109.911Z" fill="#16131C"/>
<path d="M125.855 10.3758H129.027V25.4772H125.855V23.9671C125.312 24.5309 124.677 24.994 123.952 25.3564C123.248 25.6988 122.483 25.8699 121.657 25.8699C120.771 25.8699 119.865 25.6886 118.939 25.3262C118.033 24.9436 117.248 24.2691 116.583 23.3027C115.919 22.3361 115.586 21.0374 115.586 19.4065V10.3758H118.758V19.4065C118.758 20.6952 119.109 21.6213 119.814 22.1851C120.54 22.7489 121.385 23.0308 122.351 23.0308C123.298 23.0308 124.114 22.6986 124.798 22.0342C125.503 21.3696 125.855 20.2924 125.855 18.8024V10.3758Z" fill="#16131C"/>
<path d="M139.538 9.98228C141.008 9.98228 142.317 10.3447 143.465 11.0696C144.613 11.7744 145.509 12.7408 146.153 13.9691C146.797 15.1772 147.119 16.5061 147.119 17.9559C147.119 18.1974 147.079 18.58 146.999 19.1036H134.797C135.058 20.3116 135.622 21.2781 136.488 22.003C137.374 22.7279 138.492 23.0904 139.84 23.0904C140.666 23.0904 141.451 22.9091 142.196 22.5466C142.962 22.1842 143.525 21.7111 143.888 21.1271L146.364 22.5769C145.679 23.6239 144.773 24.4394 143.646 25.0233C142.519 25.5871 141.23 25.869 139.78 25.869C138.169 25.869 136.74 25.5267 135.491 24.8421C134.263 24.1575 133.307 23.2112 132.622 22.003C131.958 20.7949 131.625 19.4358 131.625 17.9257C131.625 16.4356 131.958 15.0866 132.622 13.8784C133.307 12.6704 134.243 11.7239 135.431 11.0394C136.639 10.3346 138.009 9.98228 139.538 9.98228ZM144.1 16.5967C143.938 15.4087 143.445 14.4725 142.619 13.7878C141.814 13.1032 140.786 12.761 139.538 12.761C138.672 12.761 137.877 12.9421 137.153 13.3046C136.428 13.6469 135.853 14.1201 135.431 14.7241C135.008 15.308 134.787 15.9323 134.767 16.5967H144.1Z" fill="#16131C"/>
<path d="M152.293 14.543C152.293 15.0463 152.545 15.4188 153.048 15.6604C153.571 15.882 154.407 16.1336 155.555 16.4155C156.723 16.6772 157.689 16.9591 158.454 17.2611C159.219 17.543 159.874 17.9961 160.417 18.6203C160.982 19.2445 161.263 20.0902 161.263 21.1573C161.263 22.1238 160.982 22.9695 160.417 23.6944C159.854 24.3991 159.089 24.9427 158.122 25.3254C157.176 25.6877 156.129 25.869 154.981 25.869C153.431 25.869 152.102 25.567 150.994 24.9629C149.887 24.3387 149.081 23.4729 148.578 22.3655L151.175 21.0063C151.477 21.7714 151.95 22.3453 152.595 22.7279C153.26 23.0904 154.055 23.2715 154.981 23.2715C155.847 23.2715 156.592 23.0904 157.216 22.7279C157.861 22.3655 158.183 21.852 158.183 21.1876C158.183 20.6037 157.891 20.1808 157.307 19.9191C156.743 19.6372 155.847 19.3452 154.619 19.0431C153.431 18.7411 152.475 18.4592 151.75 18.1974C151.045 17.9156 150.431 17.4927 149.907 16.9289C149.383 16.345 149.121 15.5799 149.121 14.6335C149.121 13.7073 149.383 12.8918 149.907 12.1871C150.431 11.4823 151.135 10.9387 152.021 10.5562C152.907 10.1735 153.894 9.98228 154.981 9.98228C156.27 9.98228 157.418 10.2642 158.424 10.8279C159.451 11.3716 160.237 12.1368 160.78 13.1234L158.183 14.4221C157.619 13.1939 156.552 12.5797 154.981 12.5797C154.156 12.5797 153.501 12.761 153.018 13.1234C152.535 13.4657 152.293 13.9389 152.293 14.543Z" fill="#16131C"/>
<path d="M1.05196 22.6188C-0.350655 21.2162 -0.350655 18.9421 1.05196 17.5394L16.6861 1.90534C18.0887 0.502722 20.3628 0.502722 21.7655 1.90535C23.1681 3.30796 23.1681 5.58207 21.7655 6.98469L6.13132 22.6188C4.72869 24.0214 2.45459 24.0214 1.05196 22.6188Z" fill="#8031FF"/>
<path d="M14.6272 22.6067C13.2337 21.2132 13.2337 18.9537 14.6272 17.5601L23.4817 8.70571C24.8753 7.31211 27.1348 7.31211 28.5283 8.70571C29.9219 10.0992 29.9219 12.3586 28.5283 13.7521L19.6737 22.6067C18.2802 24.0003 16.0208 24.0003 14.6272 22.6067Z" fill="#4285F4"/>
<path fill-rule="evenodd" clip-rule="evenodd" d="M14.7866 36.3355C14.6659 36.2425 14.5497 36.1405 14.439 36.0299L7.83636 29.4272C6.43996 28.0307 6.43996 25.7667 7.83636 24.3702C9.23292 22.9737 11.4969 22.9737 12.8934 24.3702L17.0966 28.5735L30.2632 15.4069C31.6443 14.0257 33.8836 14.0257 35.2648 15.4069C36.646 16.788 36.646 19.0274 35.2648 20.4085L19.5529 36.1204C18.2477 37.4256 16.1761 37.4974 14.7866 36.3355Z" fill="#00D9AD"/>
</svg>
