<svg width="176" height="28" viewBox="0 0 176 28" fill="none" xmlns="http://www.w3.org/2000/svg">
<path d="M11.1766 20.1915C11.3915 19.9767 11.5257 19.9498 11.7674 20.1647C12.9224 21.3196 14.0772 22.5013 15.2322 23.6294C15.4739 23.8443 15.4739 24.0054 15.2322 24.2203C14.0772 25.3483 12.9224 26.5032 11.7943 27.6581C11.5526 27.8998 11.4183 27.9267 11.1766 27.685C10.0217 26.53 8.8668 25.3752 7.71194 24.2203C7.49706 24.0054 7.49706 23.8711 7.71194 23.6563C7.87301 23.5219 8.00736 23.3608 8.14161 23.2265L11.1766 20.1915Z" fill="#2B3034"/>
<path d="M2.07173 5.07051C-0.721516 9.12606 -0.694655 14.3902 2.17917 18.419C2.50146 18.8756 2.90433 19.3053 3.28035 19.735C4.62325 18.3921 5.91246 17.103 7.22848 15.7869C4.99926 13.504 4.99926 9.82443 7.2822 7.56835C9.56509 5.28538 13.2715 5.28538 15.5544 7.56835C17.73 9.74381 17.8374 13.1816 15.8768 15.4645C15.8499 15.572 15.823 15.6795 15.7425 15.76C17.0854 17.103 18.3746 18.3921 19.6906 19.7082C19.8249 19.5738 19.9591 19.4396 20.0667 19.3321C22.5107 16.8881 24.9279 14.4439 27.3988 12.0268C27.6944 11.7313 27.6675 11.5701 27.3988 11.2747C24.8205 8.75011 22.2959 6.19856 19.7444 3.6739C19.3146 3.24417 18.8311 2.84129 18.3208 2.46528C13.2178 -1.37542 5.72439 -0.166812 2.07173 5.07051Z" fill="#2E76B5"/>
<path d="M38.0703 14.0608V14.0261C38.0703 8.90867 41.9435 4.72484 47.4767 4.72484C50.8657 4.72484 52.9061 5.86589 54.566 7.49107L52.0416 10.3955C50.6582 9.15074 49.2403 8.35541 47.4421 8.35541C44.3989 8.35541 42.2202 10.8796 42.2202 13.957V13.9916C42.2202 17.0689 44.3643 19.6622 47.4421 19.6622C49.517 19.6622 50.762 18.8324 52.1798 17.5531L54.7044 20.1117C52.8369 22.0826 50.7965 23.3274 47.3038 23.3274C42.0127 23.2929 38.0703 19.2128 38.0703 14.0608Z" fill="#2B3034"/>
<path d="M59.9331 5.00169H73.5239V8.52854H63.8755V12.1938H72.3826V15.7207H63.8755V19.4895H73.6276V23.0164H59.8984V5.00169H59.9331Z" fill="#2B3034"/>
<path d="M79.1914 5.00169H87.4566C89.739 5.00169 91.5375 5.65866 92.713 6.8343C93.7156 7.83706 94.2689 9.25466 94.2689 10.949V10.9835C94.2689 13.8881 92.713 15.7207 90.3961 16.5506L94.7882 22.9819H90.1544L86.2807 17.2075H83.1684V22.9819H79.1914V5.00169ZM87.1799 13.7497C89.1165 13.7497 90.2233 12.7124 90.2233 11.1911V11.1564C90.2233 9.46218 89.0474 8.59774 87.1107 8.59774H83.1684V13.7843H87.1799V13.7497Z" fill="#2B3034"/>
<path d="M104.057 8.6323H98.5938V5.00169H113.534V8.6323H108.069V22.9819H104.057V8.6323Z" fill="#2B3034"/>
<path d="M118.788 5.00169H122.731V23.0164H118.754V5.00169H118.788Z" fill="#2B3034"/>
<path d="M129.301 5.00159H143.03V8.59763H133.278V12.4357H141.855V16.0318H133.278V23.0163H129.301V5.00159Z" fill="#2B3034"/>
<path d="M148.426 5.00169H152.403V23.0164H148.426V5.00169Z" fill="#2E76B5"/>
<path d="M158.938 5.00159H165.958C171.629 5.00159 175.537 8.87426 175.537 13.9571V13.9917C175.537 19.0745 171.629 22.9818 165.958 22.9818H158.938V5.00159ZM162.914 8.56308V19.4203H165.992C169.243 19.4203 171.422 17.2419 171.422 14.0608V14.0263C171.422 10.8451 169.243 8.59763 165.992 8.59763H162.914V8.56308Z" fill="#2E76B5"/>
</svg>
