<svg width="125" height="46" viewBox="0 0 125 46" fill="none" xmlns="http://www.w3.org/2000/svg">
<mask id="mask0_5128_53112" style="mask-type:luminance" maskUnits="userSpaceOnUse" x="0" y="0" width="125" height="46">
<path d="M0 0H124.483V45.0052H0V0Z" fill="white"/>
</mask>
<g mask="url(#mask0_5128_53112)">
<path d="M123.615 18.0195C122.711 15.9923 121.23 14.2759 119.357 13.0841C117.484 11.8922 115.302 11.2776 113.082 11.3166C110.826 11.3163 108.619 11.9753 106.732 13.2125C104.845 14.4498 103.361 16.2113 102.462 18.2807C101.853 19.6735 101.591 21.1533 101.591 22.6332C101.568 24.1561 101.851 25.6682 102.426 27.0788C103 28.4895 103.854 29.7696 104.935 30.8425C106.016 31.9155 107.302 32.7591 108.717 33.323C110.132 33.8868 111.647 34.1592 113.169 34.1239C114.709 34.1182 116.233 33.8075 117.652 33.2099C119.072 32.6122 120.359 31.7394 121.439 30.6419C122.571 29.5102 123.441 28.0303 124.051 26.5505H118.044C117.588 27.2432 116.996 27.8357 116.303 28.2915C115.446 28.7596 114.493 29.0267 113.518 29.0725C112.542 29.1183 111.569 28.9416 110.671 28.5559C109.774 28.1701 108.976 27.5853 108.338 26.8458C107.7 26.1063 107.239 25.2313 106.989 24.2872H124.399L124.573 23.5037C124.743 21.6317 124.443 19.7469 123.702 18.0195H123.615ZM106.815 20.2828C107.37 19.1011 108.25 18.1019 109.352 17.402C110.454 16.7021 111.733 16.3305 113.039 16.3305C114.344 16.3305 115.623 16.7021 116.725 17.402C117.827 18.1019 118.708 19.1011 119.263 20.2828H106.815Z" fill="#000080"/>
<path d="M30.0325 45.0051V32.1216C32.177 33.5401 34.7327 34.2043 37.2965 34.0095C39.8603 33.8148 42.2863 32.7722 44.1919 31.0461C46.0976 29.32 47.3745 27.0087 47.8212 24.4766C48.268 21.9446 47.8591 19.3359 46.6592 17.0619C45.4349 14.797 43.4906 13.0048 41.1336 11.9686C38.7767 10.9325 36.1417 10.7115 33.6451 11.3406C31.1485 11.9698 28.9329 13.4131 27.3485 15.4425C25.764 17.4718 24.9013 19.9714 24.8965 22.546V45.0922H30.0325V45.0051ZM36.4743 16.1043C37.4299 16.113 38.372 16.3313 39.234 16.744C40.0959 17.1566 40.8568 17.7535 41.4629 18.4924C42.069 19.2313 42.5054 20.0942 42.7415 21.0203C42.9775 21.9464 43.0074 22.9129 42.829 23.8518C42.5742 25.1114 41.9486 26.266 41.0324 27.1671C40.1163 28.0683 38.9516 28.6749 37.688 28.9089C36.4244 29.1429 35.1197 28.9936 33.9417 28.4802C32.7636 27.9669 31.766 27.1129 31.0771 26.0281C30.4488 25.0503 30.0968 23.9208 30.0582 22.7592C30.0197 21.5976 30.2962 20.4472 30.8584 19.4299C31.4205 18.4127 32.2474 17.5665 33.2514 16.981C34.2554 16.3955 35.3991 16.0926 36.5613 16.1043H36.4743ZM17.6713 22.0237C17.6713 24.3741 17.0619 26.1151 15.9303 27.4209C15.1335 28.1953 14.1401 28.7372 13.0576 28.9878C12.0783 29.1567 11.0772 29.1567 10.0979 28.9878C9.05327 28.7266 8.09572 28.1173 7.31226 27.4209C6.09355 26.0281 5.4842 24.2871 5.4842 22.0237V10.9683H0V22.3719C0 26.1151 1.13166 29.0748 3.30793 31.077C5.39714 32.9921 8.09572 33.9497 11.4907 34.1238H11.6648C15.1468 33.9497 17.7583 32.9921 19.8476 31.077C22.0238 29.0748 23.1555 26.1151 23.1555 22.3719V11.0554H17.6713V22.0237Z" fill="#33CC99"/>
<path d="M63.5439 18.1063C62.8462 17.3096 61.9909 16.6661 61.032 16.2166C60.073 15.7671 59.0313 15.5214 57.9726 15.4948C56.5798 15.6689 55.7964 15.9301 55.3611 16.5394C55.1797 16.7361 55.0461 16.9719 54.9706 17.2285C54.8952 17.4852 54.8798 17.7558 54.9258 18.0193C55.187 19.238 56.6669 19.4991 57.5374 19.7603L62.3252 20.979C63.8563 21.3158 65.2512 22.1042 66.3295 23.2423C67.3188 24.3375 67.8487 25.7713 67.8094 27.2467C67.8503 28.2331 67.6402 29.2138 67.1986 30.0969C66.7571 30.98 66.0986 31.7365 65.2849 32.2956C63.5439 33.5143 61.3676 34.0366 58.4949 34.0366C56.7539 34.0366 55.0129 33.7755 53.2719 33.1661C52.0532 32.6438 50.9215 31.8603 49.964 30.9028L49.6158 30.5546L49.0935 29.8582L52.9237 27.1596C54.2078 28.4769 55.8908 29.3337 57.7115 29.597C59.6266 29.7711 61.7158 29.51 62.064 27.3337C62.064 25.4186 60.323 25.0704 59.0172 24.8092C59.0172 24.8092 52.1402 23.5035 50.4863 21.3272C49.5765 20.2595 49.082 18.8997 49.0935 17.497C49.0935 16.6265 49.3546 15.756 49.7028 14.8855C50.5733 13.4926 51.9661 12.361 53.533 11.8387C55.0129 11.2293 56.5798 10.9682 58.2338 10.9682C61.1065 10.9682 64.9367 11.8387 67.3741 15.4948L63.5439 18.1063ZM94.621 -0.000216007V12.9703C92.484 11.5365 89.9303 10.8556 87.3631 11.035C84.796 11.2144 82.3618 12.2439 80.4451 13.961C78.5283 15.6781 77.2383 17.9849 76.7787 20.5169C76.3191 23.0489 76.7162 25.6619 77.9072 27.9431C79.1279 30.2017 81.0646 31.9905 83.4129 33.0282C85.7611 34.0659 88.3877 34.2937 90.8795 33.6757C93.3714 33.0578 95.5871 31.6291 97.1784 29.6143C98.7696 27.5996 99.6461 25.1131 99.6699 22.5459V-0.000216007H94.621ZM88.1792 28.9877C87.2162 28.9918 86.2643 28.7828 85.3916 28.3757C84.5188 27.9686 83.747 27.3735 83.1313 26.633C82.5156 25.8925 82.0714 25.025 81.8304 24.0927C81.5894 23.1603 81.5577 22.1862 81.7375 21.2402C81.9796 19.9743 82.5959 18.8103 83.5067 17.8984C84.4174 16.9866 85.5807 16.3688 86.8462 16.1251C88.1117 15.8814 89.4213 16.0229 90.6055 16.5312C91.7898 17.0396 92.7943 17.8915 93.4893 18.9768C94.1327 19.9434 94.5028 21.0659 94.5606 22.2256C94.6184 23.3852 94.3616 24.539 93.8176 25.5647C93.2735 26.5904 92.4623 27.45 91.4697 28.0526C90.4772 28.6551 89.3403 28.9782 88.1792 28.9877ZM71.9878 1.82785C71.5051 1.82093 71.0258 1.90968 70.5776 2.08897C70.1293 2.26826 69.721 2.53455 69.3763 2.87246C69.0053 3.23332 68.7132 3.66719 68.5184 4.14665C68.3237 4.62611 68.2304 5.14076 68.2446 5.65808C68.2401 6.63128 68.6148 7.56799 69.2892 8.2696C70.0215 8.98735 71.006 9.38938 72.0313 9.38938C73.0567 9.38938 74.0412 8.98735 74.7734 8.2696C75.4798 7.58206 75.8864 6.64364 75.9051 5.65808C75.9176 5.14424 75.8241 4.63333 75.6306 4.15719C75.437 3.68104 75.1474 3.24987 74.7799 2.89053C74.4124 2.53119 73.9748 2.25139 73.4945 2.06856C73.0141 1.88573 72.5012 1.80379 71.9878 1.82785ZM69.6374 12.448V32.992H74.6864V12.448H69.5504H69.6374Z" fill="#000080"/>
</g>
</svg>
