<svg width="161" height="43" viewBox="0 0 161 43" fill="none" xmlns="http://www.w3.org/2000/svg">
<path d="M9.5084 18.4522C9.5084 19.0717 9.38886 19.6294 9.14617 20.1177C8.9071 20.6097 8.58473 21.0287 8.18266 21.3823C7.78059 21.7358 7.32418 22.0164 6.81345 22.2278C6.30271 22.4391 5.76662 22.5703 5.21241 22.6178C4.92988 22.6432 4.63286 22.6469 4.32497 22.6287C4.01707 22.6104 3.69107 22.5521 3.34334 22.4501C3.41578 22.2752 3.49909 22.0929 3.59327 21.8998C3.68382 21.7066 3.79612 21.5317 3.92652 21.3677C4.05692 21.2037 4.20543 21.0689 4.37205 20.9595C4.53867 20.8466 4.72703 20.781 4.93712 20.7555C5.1943 20.7299 5.43699 20.6534 5.65795 20.5222C5.87891 20.391 6.07451 20.2233 6.24113 20.0193C6.40776 19.8152 6.53816 19.5747 6.63958 19.305C6.73738 19.0317 6.78809 18.7474 6.78809 18.4486C6.78809 18.1279 6.72651 17.8254 6.60335 17.5447C6.4802 17.2678 6.30271 17.02 6.07451 16.8123C5.84631 16.6008 5.57463 16.4333 5.2595 16.3093C4.94437 16.1854 4.59664 16.1235 4.21267 16.1235C4.03881 16.1235 3.89392 16.1271 3.77801 16.1344C3.66209 16.1416 3.54618 16.1454 3.43751 16.1526C3.32523 16.1599 3.20931 16.1709 3.08616 16.1891C2.96299 16.2073 2.82173 16.2218 2.65873 16.2365V28.0005H0V14.6402C0.492626 14.5527 0.930918 14.4799 1.31488 14.4252C1.69522 14.3705 2.04657 14.3268 2.3617 14.294C2.67684 14.2648 2.98111 14.2429 3.27814 14.2284C3.57516 14.2175 3.89029 14.2101 4.21992 14.2101C4.97334 14.2101 5.66882 14.3086 6.30995 14.509C6.9511 14.7095 7.50892 14.99 7.98344 15.3545C8.45795 15.719 8.83104 16.1635 9.10271 16.6847C9.37075 17.2058 9.5084 17.7962 9.5084 18.4522Z" fill="black"/>
<path d="M17.0349 24.9139L16.0533 27.8731H13.4453L18.2737 14.3416H20.8673L25.6957 27.8731H22.9573L19.6284 17.8038L19.4799 17.1151L19.3133 17.8403L17.7413 22.6617L17.5203 23.0334L17.7992 22.997H19.201C19.4727 22.997 19.7045 23.059 19.9038 23.1828C20.0994 23.3068 20.2732 23.4635 20.4218 23.6494C20.5703 23.8352 20.697 24.0429 20.802 24.2725C20.9072 24.5021 20.9904 24.7172 21.052 24.9139H17.0349Z" fill="black"/>
<path d="M40.9774 18.3612C40.9774 19.1047 40.8108 19.7498 40.4776 20.2964C40.1443 20.8431 39.7024 21.284 39.1446 21.6193L38.6266 21.8234C38.6773 21.8488 38.7425 21.8817 38.8295 21.9181C38.9163 21.9545 38.9852 21.9947 39.0323 22.0311C39.4017 22.3554 39.6915 22.7381 39.9016 23.1755C40.1117 23.6164 40.2928 24.0938 40.4485 24.6076C40.6043 25.1215 40.7565 25.6681 40.9122 26.244C41.068 26.8234 41.2781 27.4066 41.5497 28.0042H38.8295C38.6085 27.5341 38.4309 27.0275 38.3042 26.4882C38.1738 25.9488 38.0361 25.424 37.8876 24.9138C37.7391 24.4035 37.5653 23.9335 37.3696 23.4998C37.1741 23.0661 36.9024 22.7126 36.5546 22.4393C36.2974 22.4648 36.0222 22.4684 35.7324 22.4502C35.4426 22.432 35.1384 22.3737 34.816 22.2716C34.8884 22.0967 34.9718 21.9145 35.0659 21.7213C35.1564 21.5281 35.2687 21.3496 35.3992 21.1819C35.5295 21.0143 35.678 20.8759 35.8447 20.7629C36.0113 20.6499 36.1997 20.5843 36.4097 20.5588C36.6669 20.5333 36.9097 20.464 37.1306 20.3437C37.3516 20.2271 37.5471 20.0705 37.7138 19.8773C37.8804 19.6841 38.0108 19.4581 38.1122 19.1994C38.21 18.9406 38.2607 18.6601 38.2607 18.3612C38.2607 18.0369 38.1919 17.7417 38.0578 17.4683C37.9202 17.1951 37.7391 16.9582 37.5109 16.7614C37.2828 16.5609 37.0111 16.4078 36.696 16.2948C36.3808 16.1819 36.0439 16.1273 35.6889 16.1273C35.5151 16.1273 35.3702 16.1309 35.2543 16.1382C35.1384 16.1454 35.0224 16.1491 34.9138 16.1564C34.8015 16.1637 34.6855 16.1746 34.5624 16.1928C34.4393 16.2111 34.298 16.2256 34.135 16.2403V28.0042H31.4727V14.6403C31.9652 14.5529 32.4035 14.4799 32.7875 14.4253C33.1679 14.3707 33.5192 14.3269 33.8343 14.2941C34.1495 14.265 34.4538 14.2431 34.7508 14.2286C35.0477 14.2176 35.3629 14.2103 35.6926 14.2103C36.4206 14.2103 37.1052 14.305 37.7464 14.4909C38.3876 14.6768 38.9489 14.9465 39.4307 15.3C39.9125 15.6534 40.2928 16.0871 40.5681 16.601C40.8362 17.1185 40.9774 17.7016 40.9774 18.3612Z" fill="black"/>
<path d="M50.4724 24.9139L49.4908 27.8731H46.8828L51.7112 14.3416H54.3012L59.1296 27.8731H56.3912L53.0623 17.8038L52.9139 17.1151L52.7472 17.8403L51.1752 22.6617L50.9542 23.0334L51.2331 22.997H52.6385C52.9102 22.997 53.142 23.059 53.3413 23.1828C53.5369 23.3068 53.7107 23.4635 53.8593 23.6494C54.0078 23.8352 54.1345 24.0429 54.2395 24.2725C54.3447 24.5021 54.4279 24.7172 54.4895 24.9139H50.4724Z" fill="black"/>
<path d="M70.09 26.1857C70.7927 26.1857 71.4012 26.0362 71.9119 25.741C72.4226 25.4422 72.8465 25.0522 73.1797 24.5675C73.5129 24.0829 73.7557 23.5362 73.9113 22.9276C74.0671 22.319 74.1432 21.7067 74.1432 21.0872C74.1432 20.3547 74.0491 19.6805 73.8571 19.0573C73.6651 18.4378 73.3644 17.902 72.9587 17.4575C72.5495 17.0128 72.0278 16.663 71.3903 16.4078C70.7528 16.1527 69.9886 16.0252 69.1011 16.0252C68.8548 16.0252 68.5976 16.0361 68.3296 16.0616C68.0651 16.0872 67.7899 16.1236 67.5037 16.1746V27.8802H64.9102V14.593C65.7361 14.418 66.5076 14.2942 67.2211 14.2212C67.9348 14.1448 68.565 14.1082 69.1084 14.1082C70.3399 14.1082 71.441 14.265 72.4118 14.5821C73.3789 14.8991 74.2011 15.3547 74.8713 15.9487C75.545 16.5463 76.0558 17.2716 76.4071 18.1353C76.7585 18.999 76.936 19.9793 76.936 21.0872C76.936 22.0676 76.7693 22.986 76.436 23.8423C76.1028 24.6988 75.6464 25.4422 75.0669 26.0763C74.4874 26.7104 73.7919 27.2061 72.9841 27.5669C72.1764 27.9276 71.3034 28.1062 70.3652 28.1062C70.1914 28.1062 70.0356 28.1026 69.8943 28.0989C69.7531 28.0917 69.6009 28.077 69.4416 28.0515C69.2822 28.026 69.1047 27.9968 68.9164 27.9568C68.7244 27.9204 68.4926 27.8657 68.2209 27.7891C68.2933 27.6288 68.3875 27.4539 68.4961 27.268C68.6084 27.0822 68.7353 26.9073 68.8838 26.7469C69.0323 26.5866 69.2025 26.4517 69.4018 26.346C69.6009 26.2403 69.8292 26.1857 70.09 26.1857Z" fill="black"/>
<path d="M88.4124 28.139C87.3402 28.139 86.3912 27.9568 85.5653 27.5996C84.7395 27.2389 84.0404 26.7469 83.4643 26.1201C82.8921 25.4932 82.4574 24.7534 82.1604 23.897C81.8634 23.0406 81.7148 22.1113 81.7148 21.1054C81.7148 20.136 81.867 19.2249 82.1677 18.3685C82.4682 17.5121 82.9066 16.765 83.4825 16.1273C84.0548 15.4895 84.7539 14.9865 85.5834 14.6184C86.4093 14.2541 87.3546 14.0681 88.4124 14.0681C89.6186 14.0681 90.6473 14.2796 91.4913 14.7023C92.3353 15.125 93.0271 15.6717 93.5632 16.3496C94.0993 17.0274 94.4869 17.7817 94.7296 18.6199C94.9686 19.4581 95.0918 20.2854 95.0918 21.1054C95.0918 22.0238 94.9433 22.9057 94.6463 23.7475C94.3492 24.5931 93.9218 25.3402 93.3604 25.9888C92.7989 26.6412 92.1034 27.1623 91.2703 27.5523C90.4373 27.9458 89.4845 28.139 88.4124 28.139ZM88.4124 15.9887C87.7712 15.9887 87.2098 16.1273 86.7281 16.3969C86.2463 16.6703 85.8442 17.042 85.5182 17.5121C85.1922 17.9858 84.9459 18.5288 84.7793 19.1521C84.6126 19.7715 84.5293 20.4239 84.5293 21.1054C84.5293 21.7505 84.6126 22.3809 84.7793 22.9932C84.9459 23.6091 85.1922 24.1558 85.5182 24.6331C85.8442 25.1106 86.2499 25.4968 86.7281 25.7884C87.2098 26.0799 87.7712 26.2258 88.4124 26.2258C88.9159 26.2258 89.4049 26.1091 89.8721 25.8832C90.3394 25.6536 90.7524 25.3219 91.1109 24.8882C91.4695 24.4546 91.7557 23.9188 91.9694 23.2884C92.1868 22.6542 92.2918 21.929 92.2918 21.1127C92.2918 20.3801 92.2013 19.7023 92.0237 19.0755C91.8462 18.4486 91.5891 17.9094 91.2558 17.4574C90.9226 17.0055 90.5169 16.6484 90.0352 16.386C89.5606 16.1163 89.0173 15.9887 88.4124 15.9887Z" fill="black"/>
<path d="M102.583 27.8695H99.7539L103.416 21.8199C103.528 21.9803 103.655 22.1916 103.803 22.454C103.952 22.7127 104.071 22.997 104.165 23.2994C104.257 23.602 104.307 23.919 104.314 24.247C104.321 24.575 104.242 24.8847 104.083 25.169L102.583 27.8695ZM99.9561 14.3416H102.879L105.155 18.7914L105.339 19.3673L105.487 18.7914L107.763 14.3416H110.667L106.655 21.0254L110.871 27.8731H108.001L99.9561 14.3416Z" fill="black"/>
<path fill-rule="evenodd" clip-rule="evenodd" d="M153.872 36.0296C162.047 27.7861 162.047 14.4296 153.872 6.18604C152.089 4.38938 149.181 4.38938 147.398 6.18604C145.617 7.98271 145.617 10.9164 147.398 12.7168C151.991 17.3487 151.991 24.867 147.398 29.5027C142.805 34.1345 135.347 34.1345 130.754 29.5027C128.45 27.1775 127.306 24.1454 127.306 21.1097C127.306 11.0367 134.304 2.61093 143.656 0.515428C142.186 0.187436 140.647 0.00521851 139.078 0.00521851C127.52 0.00521851 118.148 9.45138 118.148 21.1097C118.148 23.8138 118.656 26.5179 119.685 29.058C121.909 34.3824 125.93 38.4239 130.932 40.5669C135.166 42.2979 139.517 42.6441 143.653 41.7039C147.398 40.8584 150.962 38.9633 153.872 36.0296Z" fill="#3CC1CA"/>
</svg>
