<svg width="160" height="32" viewBox="0 0 160 32" fill="none" xmlns="http://www.w3.org/2000/svg">
<g clip-path="url(#clip0_5128_52365)">
<mask id="mask0_5128_52365" style="mask-type:luminance" maskUnits="userSpaceOnUse" x="0" y="0" width="160" height="32">
<path d="M160 0H0V32H160V0Z" fill="white"/>
</mask>
<g mask="url(#mask0_5128_52365)">
<path d="M25.8233 4.96419C25.7733 4.91424 25.7068 4.88588 25.6373 4.88487H25.6126C25.5742 4.88891 25.537 4.90136 25.5035 4.92138C25.47 4.9414 25.441 4.96854 25.4184 5.00101L8.98351 29.3206C8.96217 29.3536 8.94773 29.3907 8.94113 29.4297C8.93453 29.4688 8.93592 29.5088 8.9452 29.5472C8.95545 29.5857 8.97342 29.6215 8.99794 29.6522C9.02246 29.683 9.05298 29.708 9.08749 29.7257C11.0764 30.7164 13.2562 31.2277 15.4633 31.2214C18.4028 31.2225 21.276 30.3173 23.7169 28.6215C26.1576 26.9257 28.0553 24.5159 29.168 21.6994C30.2808 18.8828 30.5583 15.7869 29.965 12.8065C29.3719 9.826 27.9348 7.09593 25.837 4.96419H25.8233ZM9.18875 5.69505L14.615 13.7005L14.8312 13.3804L22.1429 2.57614C22.1637 2.54315 22.1776 2.50605 22.1837 2.46719C22.1899 2.42834 22.1881 2.38859 22.1785 2.35047C22.169 2.31235 22.152 2.27671 22.1284 2.24582C22.1048 2.21492 22.0753 2.18946 22.0416 2.17105C19.7784 1.00406 17.2641 0.456952 14.7386 0.581924C12.2131 0.706895 9.7607 1.49977 7.61531 2.88491C7.55532 2.92644 7.51361 2.99083 7.49926 3.06404C7.48491 3.13726 7.49909 3.21338 7.53869 3.27583L9.18875 5.69505ZM9.5992 21.1027L12.1468 17.3407L8.48548 11.9584L4.51222 6.08881C4.48931 6.05403 4.45877 6.02538 4.42309 6.00519C4.38742 5.985 4.34763 5.97386 4.30699 5.97267C4.26792 5.97306 4.22939 5.98212 4.194 5.99923C4.1586 6.01633 4.12715 6.04108 4.10175 6.07181C1.69005 9.05745 0.466671 12.8815 0.680138 16.7672C0.893606 20.6529 2.52791 24.3087 5.25105 26.9921C5.30082 27.0404 5.3662 27.0676 5.43439 27.0686H5.45902C5.4974 27.0657 5.53462 27.0536 5.56783 27.0335C5.60103 27.0134 5.62934 26.9857 5.65056 26.9524L9.5992 21.1027Z" fill="#1B83BD"/>
<path d="M34.8418 28.4848C34.7984 28.4854 34.7556 28.4735 34.7183 28.4503C34.681 28.4272 34.6505 28.3939 34.6305 28.354C34.6103 28.3141 34.6013 28.2692 34.6043 28.2243C34.6073 28.1794 34.6223 28.1362 34.6476 28.0996L41.9209 17.3576L32.7457 3.78565C32.7211 3.74864 32.7065 3.7054 32.7037 3.66052C32.7008 3.61563 32.7097 3.57077 32.7294 3.5307C32.7495 3.49101 32.7799 3.45785 32.817 3.43486C32.8542 3.41187 32.8967 3.39994 32.9401 3.40039H37.2335C37.2733 3.39776 37.313 3.40576 37.349 3.42361C37.385 3.44147 37.4158 3.46859 37.4387 3.50237L44.3782 13.7345L51.2931 3.50237C51.3151 3.47024 51.3442 3.44416 51.3781 3.42638C51.4119 3.4086 51.4495 3.39968 51.4875 3.40039H55.7563C55.7997 3.39985 55.8425 3.41179 55.8798 3.43489C55.9171 3.45798 55.9476 3.49134 55.9677 3.53125C55.9878 3.57116 55.9969 3.61605 55.9938 3.66096C55.9908 3.70587 55.9758 3.74903 55.9505 3.78565L39.3214 28.3688C39.2994 28.4011 39.2704 28.4274 39.2366 28.4457C39.2028 28.4639 39.1652 28.4735 39.1271 28.4735L34.8418 28.4848ZM59.6283 28.5557C59.2155 28.5532 58.8032 28.5229 58.3941 28.4651C53.7915 27.8645 50.5735 23.9864 50.5735 19.0431C50.5735 13.641 54.4646 9.56457 59.6256 9.56457C64.5319 9.56457 68.1084 13.5305 68.1604 18.9638C68.1669 19.342 68.1541 19.7202 68.1221 20.097L68.0646 20.5899C68.0592 20.6497 68.0323 20.7052 67.9892 20.7456C67.9461 20.786 67.8901 20.8082 67.832 20.8079H54.6562L54.689 20.9241C54.9678 22.07 55.6161 23.0829 56.5268 23.7954C57.4374 24.5078 58.5558 24.877 59.6967 24.8419C61.4836 24.8419 62.9283 24.1082 63.5605 22.8815C63.5805 22.8424 63.6103 22.8094 63.647 22.7865C63.6836 22.7635 63.7256 22.7513 63.7685 22.7513H67.4763C67.514 22.7513 67.5512 22.7609 67.5845 22.7791C67.618 22.7975 67.6465 22.8238 67.6678 22.856C67.6906 22.8872 67.7056 22.9237 67.7113 22.9622C67.717 23.0008 67.7133 23.0403 67.7007 23.077L67.6049 23.3603C66.6937 26.1195 64.2173 28.0232 60.9828 28.4593C60.5337 28.5211 60.0813 28.5532 59.6283 28.5557ZM59.4997 13.2727C56.7387 13.3265 55.209 15.3322 54.6945 17.1933L54.6617 17.3123H64.116L64.0914 17.199C63.5632 14.7826 61.9022 13.318 59.6556 13.2783H59.4997V13.2727ZM77.4724 28.6265C76.8217 28.627 76.1719 28.5731 75.5296 28.4651C72.3663 27.9353 70.3303 26.0656 69.6737 23.0543C69.6654 23.0186 69.6653 22.9812 69.6734 22.9453C69.6814 22.9095 69.6975 22.876 69.7202 22.8476C69.7422 22.8183 69.7705 22.7948 69.8027 22.7786C69.835 22.7624 69.8704 22.754 69.9062 22.7541H73.3651C73.4111 22.7541 73.4561 22.7681 73.4945 22.7943C73.5329 22.8204 73.563 22.8577 73.5812 22.9014C74.175 24.3179 75.4721 24.9864 77.5408 24.9864C79.6752 24.9864 81.1118 24.1365 81.1118 22.8618C81.1118 21.5162 79.6451 21.1451 79.013 21.0487L75.3763 20.4029C70.9378 19.689 70.002 17.1735 70.002 15.1877C70.002 11.7883 72.8779 9.49375 77.1577 9.49375C80.0447 9.49375 83.5746 10.7118 84.5679 14.0801C84.6599 14.3874 84.7366 14.6994 84.7977 15.0149C84.8035 15.0501 84.8014 15.0861 84.7919 15.1204C84.7825 15.1547 84.7658 15.1864 84.743 15.2132C84.7214 15.2411 84.6939 15.2635 84.6626 15.2787C84.6312 15.294 84.597 15.3015 84.5625 15.301H81.2213C81.1728 15.301 81.1254 15.2855 81.0857 15.2566C81.0461 15.2277 81.016 15.1868 80.9996 15.1395C80.9134 14.9039 80.8043 14.6781 80.674 14.4653C79.9325 13.3322 78.4001 13.0489 77.1659 13.0489C75.1957 13.0489 73.8822 13.8308 73.8822 14.9922C73.8822 15.3378 73.8822 16.3803 76.3615 16.7712L79.5493 17.3378C83.134 17.944 84.951 19.7485 84.951 22.6975C84.951 25.7172 82.8823 27.8645 79.4125 28.4452C78.7716 28.5602 78.1228 28.6208 77.4724 28.6265ZM91.7318 28.1279C91.6843 28.1268 91.6382 28.1111 91.5992 28.0829C91.5602 28.0547 91.5302 28.0151 91.5129 27.9692L85.0988 10.3323C85.0855 10.2955 85.0812 10.2559 85.0859 10.2169C85.0907 10.1779 85.1044 10.1407 85.1262 10.1085C85.1472 10.0751 85.1761 10.0478 85.21 10.029C85.244 10.0102 85.2819 10.0005 85.3204 10.0009H89.0447C89.0932 10.0008 89.1405 10.0163 89.1802 10.0452C89.2198 10.0741 89.25 10.115 89.2663 10.1623L93.0973 21.0742L96.6546 10.1679C96.6706 10.1194 96.7008 10.0772 96.741 10.0472C96.7812 10.0172 96.8294 10.0011 96.879 10.0009H99.7746C99.8231 10.0016 99.8706 10.0181 99.9104 10.048C99.9501 10.078 99.9802 10.1198 99.9957 10.1679L103.548 21.0658L107.447 10.1765C107.463 10.1292 107.493 10.0882 107.533 10.0593C107.573 10.0304 107.62 10.0149 107.669 10.015H111.368C111.407 10.0146 111.445 10.024 111.479 10.0423C111.513 10.0606 111.542 10.0873 111.564 10.1199C111.586 10.1526 111.6 10.1903 111.604 10.2298C111.609 10.2693 111.604 10.3093 111.59 10.3465L105.176 27.9806C105.158 28.0269 105.128 28.0668 105.089 28.095C105.049 28.1233 105.002 28.1387 104.954 28.1392H102.046C101.996 28.1388 101.949 28.1226 101.909 28.0926C101.869 28.0626 101.839 28.0204 101.824 27.9722L98.3433 17.2641L94.8458 27.9722C94.8299 28.0207 94.7998 28.0629 94.7595 28.0929C94.7193 28.1228 94.671 28.139 94.6214 28.1392H91.7318V28.1279ZM120.273 28.55C119.877 28.5492 119.482 28.5208 119.09 28.4651C114.625 27.8446 111.256 23.7937 111.256 19.0375C111.256 13.8138 115.3 9.56173 120.273 9.5589C121.978 9.54193 123.654 10.0114 125.119 10.9158L125.255 11.0008V10.134C125.256 10.0691 125.282 10.0072 125.326 9.96149C125.371 9.91591 125.431 9.89031 125.494 9.89031H128.914C128.945 9.88993 128.976 9.89604 129.004 9.90816C129.033 9.92018 129.059 9.93812 129.082 9.96081C129.103 9.9835 129.121 10.0106 129.132 10.0403C129.144 10.07 129.15 10.1019 129.15 10.134V27.9495C129.15 27.9816 129.144 28.0134 129.132 28.0431C129.121 28.0729 129.103 28.0999 129.082 28.1226C129.059 28.1452 129.033 28.1632 129.004 28.1753C128.976 28.1874 128.945 28.1934 128.914 28.1931H125.494C125.463 28.1934 125.432 28.1874 125.403 28.1754C125.374 28.1633 125.347 28.1454 125.325 28.1228C125.303 28.1001 125.285 28.0731 125.274 28.0433C125.262 28.0136 125.255 27.9817 125.255 27.9495V27.0996L125.119 27.1846C124.033 27.8631 122.82 28.2956 121.562 28.4537C121.134 28.5144 120.704 28.5466 120.273 28.55ZM120.584 13.3068C119.135 13.3268 117.752 13.9416 116.74 15.016C115.728 16.0905 115.169 17.5368 115.186 19.0375C115.17 20.5623 115.731 22.0331 116.751 23.1337C117.248 23.6654 117.843 24.0875 118.501 24.3743C119.16 24.661 119.868 24.8066 120.581 24.8022C121.495 24.8143 122.397 24.5972 123.21 24.1695C124.025 23.7418 124.726 23.1161 125.255 22.3462V15.7599C124.727 14.9905 124.025 14.3655 123.211 13.9382C122.399 13.511 121.497 13.2942 120.584 13.3068ZM132.17 28.196C132.108 28.196 132.048 28.1704 132.003 28.1247C131.959 28.0791 131.933 28.0171 131.933 27.9523V10.1368C131.933 10.0715 131.958 10.0087 132.002 9.96256C132.047 9.9163 132.107 9.89031 132.17 9.89031H135.591C135.653 9.89109 135.714 9.91737 135.757 9.96353C135.802 10.0097 135.826 10.0719 135.826 10.1368V11.6127L135.974 11.4881C137.477 10.2256 139.359 9.54449 141.294 9.56173H141.841C141.904 9.56173 141.964 9.58731 142.009 9.63292C142.052 9.67852 142.079 9.7405 142.079 9.80537V13.2274C142.079 13.291 142.055 13.3521 142.012 13.3977C141.969 13.4432 141.911 13.4696 141.849 13.471L141.324 13.4852C140.22 13.5097 139.138 13.8202 138.179 14.3883C137.22 14.9563 136.415 15.7639 135.835 16.7372V27.9523C135.835 27.9844 135.829 28.0163 135.817 28.0459C135.806 28.0757 135.788 28.1027 135.767 28.1254C135.745 28.1481 135.718 28.166 135.689 28.1781C135.661 28.1902 135.63 28.1963 135.599 28.196H132.17ZM151.071 28.55C150.67 28.5483 150.27 28.5198 149.872 28.4651C145.248 27.8758 142.018 24.0006 142.018 19.0375C142.018 13.6353 145.91 9.56173 151.071 9.5589C155.977 9.5589 159.554 13.5248 159.603 18.961C159.61 19.3391 159.597 19.7173 159.565 20.0941L159.51 20.5927C159.503 20.6525 159.476 20.7078 159.432 20.7479C159.389 20.7882 159.332 20.8105 159.274 20.8107H146.099L146.132 20.9297C146.775 23.3433 148.696 24.8447 151.139 24.8447C152.924 24.8447 154.369 24.1138 155.001 22.8901C155.02 22.8508 155.05 22.8179 155.087 22.7949C155.124 22.772 155.166 22.7598 155.208 22.7597H158.916C158.954 22.7598 158.992 22.7694 159.026 22.7877C159.059 22.8059 159.088 22.8323 159.11 22.8646C159.132 22.8963 159.146 22.9328 159.151 22.9712C159.157 23.0097 159.153 23.0489 159.14 23.0856L159.047 23.3688C158.142 26.1053 155.586 28.0599 152.373 28.4679C151.941 28.5237 151.506 28.552 151.071 28.5528V28.55ZM151 13.2727C148.209 13.2727 146.658 15.2953 146.135 17.1877L146.102 17.3067H155.555L155.528 17.1933C154.981 14.7372 153.301 13.2727 151 13.2727Z" fill="#333333"/>
</g>
</g>
<defs>
<clipPath id="clip0_5128_52365">
<rect width="160" height="32" fill="white"/>
</clipPath>
</defs>
</svg>
