<svg width="226" height="86" viewBox="0 0 226 86" fill="none" xmlns="http://www.w3.org/2000/svg">
<rect width="226" height="86" fill="white"/>
<mask id="mask0_5128_51952" style="mask-type:luminance" maskUnits="userSpaceOnUse" x="51" y="20" width="125" height="46">
<path d="M51 20H175.483V65.0052H51V20Z" fill="white"/>
</mask>
<g mask="url(#mask0_5128_51952)">
<path d="M174.615 38.0195C173.711 35.9923 172.23 34.2759 170.357 33.0841C168.484 31.8923 166.302 31.2776 164.082 31.3166C161.826 31.3164 159.619 31.9753 157.732 33.2126C155.845 34.4498 154.361 36.2113 153.462 38.2807C152.853 39.6735 152.592 41.1534 152.592 42.6332C152.568 44.1562 152.852 45.6682 153.426 47.0789C154.001 48.4895 154.854 49.7696 155.935 50.8425C157.016 51.9155 158.303 52.7592 159.718 53.323C161.132 53.8868 162.647 54.1593 164.169 54.1239C165.709 54.1182 167.233 53.8075 168.652 53.2099C170.072 52.6123 171.359 51.7395 172.439 50.6419C173.571 49.5102 174.441 48.0304 175.051 46.5505H169.044C168.588 47.2433 167.996 47.8357 167.303 48.2915C166.446 48.7596 165.493 49.0267 164.518 49.0725C163.542 49.1183 162.569 48.9416 161.672 48.5559C160.774 48.1701 159.976 47.5854 159.338 46.8458C158.7 46.1063 158.239 45.2314 157.989 44.2872H175.399L175.573 43.5037C175.743 41.6317 175.444 39.7469 174.702 38.0195H174.615ZM157.815 40.2829C158.37 39.1012 159.25 38.102 160.352 37.4021C161.454 36.7022 162.733 36.3305 164.039 36.3305C165.344 36.3305 166.623 36.7022 167.725 37.4021C168.827 38.102 169.708 39.1012 170.263 40.2829H157.815Z" fill="#000080"/>
<path d="M81.0325 65.0051V52.1216C83.177 53.5401 85.7327 54.2043 88.2965 54.0096C90.8603 53.8148 93.2863 52.7722 95.1919 51.0461C97.0976 49.32 98.3745 47.0087 98.8212 44.4767C99.268 41.9446 98.8591 39.3359 97.6592 37.0619C96.4349 34.797 94.4906 33.0048 92.1336 31.9686C89.7767 30.9325 87.1417 30.7115 84.6451 31.3406C82.1485 31.9698 79.9329 33.4131 78.3485 35.4425C76.764 37.4719 75.9013 39.9714 75.8965 42.5461V65.0922H81.0325V65.0051ZM87.4743 36.1043C88.4299 36.113 89.372 36.3314 90.234 36.744C91.0959 37.1566 91.8568 37.7535 92.4629 38.4924C93.069 39.2313 93.5054 40.0942 93.7415 41.0203C93.9775 41.9464 94.0074 42.913 93.829 43.8518C93.5742 45.1114 92.9486 46.266 92.0324 47.1671C91.1163 48.0683 89.9516 48.6749 88.688 48.9089C87.4244 49.1429 86.1197 48.9936 84.9417 48.4802C83.7636 47.9669 82.766 47.1129 82.0771 46.0281C81.4488 45.0503 81.0968 43.9208 81.0582 42.7592C81.0197 41.5976 81.2962 40.4472 81.8584 39.43C82.4205 38.4127 83.2474 37.5665 84.2514 36.981C85.2554 36.3956 86.3991 36.0926 87.5613 36.1043H87.4743ZM68.6713 42.0238C68.6713 44.3741 68.0619 46.1151 66.9303 47.4209C66.1335 48.1954 65.1401 48.7372 64.0576 48.9878C63.0783 49.1568 62.0772 49.1568 61.0979 48.9878C60.0533 48.7267 59.0957 48.1173 58.3123 47.4209C57.0935 46.0281 56.4842 44.2871 56.4842 42.0238V30.9683H51V42.372C51 46.1151 52.1317 49.0749 54.3079 51.077C56.3971 52.9922 59.0957 53.9497 62.4907 54.1238H62.6648C66.1468 53.9497 68.7583 52.9922 70.8476 51.077C73.0238 49.0749 74.1555 46.1151 74.1555 42.372V31.0554H68.6713V42.0238Z" fill="#33CC99"/>
<path d="M114.544 38.1063C113.846 37.3095 112.991 36.6661 112.032 36.2166C111.073 35.7671 110.031 35.5213 108.973 35.4948C107.58 35.6689 106.796 35.93 106.361 36.5394C106.18 36.736 106.046 36.9718 105.971 37.2285C105.895 37.4851 105.88 37.7557 105.926 38.0193C106.187 39.238 107.667 39.4991 108.537 39.7603L113.325 40.979C114.856 41.3158 116.251 42.1042 117.329 43.2423C118.319 44.3375 118.849 45.7713 118.809 47.2466C118.85 48.2331 118.64 49.2138 118.199 50.0969C117.757 50.9799 117.098 51.7365 116.285 52.2956C114.544 53.5143 112.367 54.0366 109.495 54.0366C107.754 54.0366 106.013 53.7754 104.272 53.1661C103.053 52.6438 101.921 51.8603 100.964 50.9028L100.616 50.5546L100.093 49.8582L103.924 47.1596C105.208 48.4769 106.891 49.3337 108.711 49.597C110.626 49.7711 112.716 49.5099 113.064 47.3337C113.064 45.4186 111.323 45.0704 110.017 44.8092C110.017 44.8092 103.14 43.5034 101.486 41.3272C100.576 40.2595 100.082 38.8996 100.093 37.4969C100.093 36.6264 100.354 35.7559 100.703 34.8854C101.573 33.4926 102.966 32.361 104.533 31.8387C106.013 31.2293 107.58 30.9681 109.234 30.9681C112.106 30.9681 115.937 31.8387 118.374 35.4948L114.544 38.1063ZM145.621 19.9998V32.9703C143.484 31.5365 140.93 30.8555 138.363 31.0349C135.796 31.2144 133.362 32.2439 131.445 33.961C129.528 35.6781 128.238 37.9848 127.779 40.5169C127.319 43.0489 127.716 45.6619 128.907 47.943C130.128 50.2016 132.064 51.9904 134.413 53.0282C136.761 54.0659 139.388 54.2937 141.879 53.6757C144.371 53.0577 146.587 51.629 148.178 49.6143C149.769 47.5996 150.646 45.1131 150.67 42.5459V19.9998H145.621ZM139.179 48.9876C138.216 48.9917 137.264 48.7827 136.391 48.3757C135.519 47.9686 134.747 47.3735 134.131 46.633C133.516 45.8925 133.071 45.025 132.83 44.0927C132.589 43.1603 132.558 42.1862 132.737 41.2401C132.98 39.9743 133.596 38.8102 134.507 37.8984C135.417 36.9865 136.581 36.3688 137.846 36.1251C139.112 35.8814 140.421 36.0228 141.605 36.5312C142.79 37.0396 143.794 37.8915 144.489 38.9768C145.133 39.9434 145.503 41.0659 145.56 42.2255C145.618 43.3852 145.362 44.5389 144.817 45.5647C144.273 46.5904 143.462 47.45 142.47 48.0526C141.477 48.6551 140.34 48.9782 139.179 48.9876ZM122.988 21.8278C122.505 21.8209 122.026 21.9097 121.577 22.0889C121.129 22.2682 120.721 22.5345 120.376 22.8724C120.005 23.2333 119.713 23.6672 119.518 24.1466C119.324 24.6261 119.23 25.1407 119.244 25.6581C119.24 26.6313 119.615 27.568 120.289 28.2696C121.021 28.9873 122.006 29.3894 123.031 29.3894C124.057 29.3894 125.041 28.9873 125.773 28.2696C126.48 27.582 126.886 26.6436 126.905 25.6581C126.917 25.1442 126.824 24.6333 126.63 24.1572C126.437 23.681 126.147 23.2498 125.78 22.8905C125.412 22.5312 124.975 22.2514 124.494 22.0685C124.014 21.8857 123.501 21.8038 122.988 21.8278ZM120.637 32.448V52.992H125.686V32.448H120.55H120.637Z" fill="#000080"/>
</g>
</svg>
