<svg width="20" height="20" viewBox="0 0 20 20" fill="none" xmlns="http://www.w3.org/2000/svg">
<g clip-path="url(#clip0_6251_58347)">
<path d="M14.8966 6.58528V4.20365C15.2113 4.05655 15.4778 3.82309 15.665 3.53043C15.8522 3.23778 15.9525 2.89797 15.9541 2.55057V2.49592C15.9541 1.48301 15.1329 0.661877 14.1201 0.661877H14.0654C13.0525 0.661877 12.2313 1.48301 12.2313 2.49592V2.55057C12.2329 2.89797 12.3332 3.23778 12.5204 3.53043C12.7076 3.82309 12.9741 4.05655 13.2888 4.20365V6.58528C12.3842 6.7238 11.5323 7.09888 10.8194 7.67253L4.2876 2.58495C4.33417 2.41682 4.35847 2.24393 4.36121 2.07038C4.36201 1.66164 4.24157 1.26184 4.01512 0.921562C3.78867 0.581281 3.46638 0.315802 3.08903 0.158709C2.71168 0.00161459 2.29622 -0.0400374 1.8952 0.0390212C1.49417 0.11808 1.1256 0.314297 0.836107 0.602853C0.546614 0.891409 0.349202 1.25934 0.268844 1.66011C0.188485 2.06087 0.228789 2.47647 0.384658 2.85433C0.540528 3.23218 0.804959 3.55533 1.1445 3.78288C1.48405 4.01043 1.88345 4.13217 2.2922 4.1327C2.64977 4.13101 3.00065 4.03555 3.30979 3.85584L9.74171 8.86084C8.55921 10.6472 8.59085 12.9753 9.82138 14.729L7.86513 16.6858C7.70692 16.6352 7.54226 16.6084 7.37622 16.6061C6.43934 16.6069 5.68036 17.3667 5.68061 18.3036C5.68085 19.2404 6.44031 19.9998 7.37711 20C8.31399 20.0002 9.07378 19.2413 9.07458 18.3044C9.07238 18.1384 9.0455 17.9736 8.99484 17.8156L10.9301 15.8796C12.6593 17.2108 15.0342 17.3254 16.8837 16.1671C18.7331 15.0086 19.6664 12.8217 19.2233 10.685C18.7801 8.54815 17.0542 6.91283 14.8966 6.58528ZM14.0944 14.4183C13.7369 14.4279 13.3811 14.3658 13.048 14.2356C12.7148 14.1054 12.4112 13.9098 12.1549 13.6603C11.8986 13.4109 11.6949 13.1126 11.5558 12.7831C11.4167 12.4536 11.3451 12.0995 11.3451 11.7419C11.3451 11.3842 11.4167 11.0302 11.5558 10.7007C11.6949 10.3712 11.8986 10.0729 12.1549 9.82339C12.4112 9.57391 12.7148 9.37831 13.048 9.24813C13.3811 9.11795 13.7369 9.05584 14.0944 9.06546C15.5352 9.11591 16.6774 10.2982 16.6782 11.7399C16.6788 13.1815 15.5379 14.365 14.0971 14.4169" fill="#FF7A59"/>
</g>
<defs>
<clipPath id="clip0_6251_58347">
<rect width="20" height="20" fill="white"/>
</clipPath>
</defs>
</svg>
