<svg width="10" height="21" viewBox="0 0 10 21" fill="none" xmlns="http://www.w3.org/2000/svg">
<path fill-rule="evenodd" clip-rule="evenodd" d="M7.63364 0.800049C6.89419 0.800049 6.27227 1.39164 6.27227 2.125C6.27227 2.28147 6.29833 2.42938 6.32107 2.55217L6.32496 2.57317C6.34725 2.69329 6.36331 2.77985 6.36331 2.85331C6.36331 2.97345 6.32175 3.05447 6.24971 3.11079C6.17101 3.17232 6.03305 3.22167 5.81287 3.22167C5.69483 3.22167 5.56441 3.21061 5.41315 3.19778L5.38102 3.19505C5.21933 3.18139 5.03903 3.16705 4.84787 3.16705C2.84733 3.16705 1.21054 4.78293 1.21054 6.78617C1.21054 7.82729 1.63616 8.71321 2.32401 9.40106C2.64383 9.72088 3.02607 9.94339 3.34082 10.1266C3.40606 10.1646 3.46847 10.2009 3.52675 10.236C3.70334 10.3424 3.83811 10.4346 3.92887 10.5296C4.01495 10.6197 4.05093 10.701 4.05093 10.7919C4.05093 10.9337 4.00048 11.0202 3.89582 11.1017C3.77513 11.1957 3.59454 11.2729 3.33791 11.3772L3.30164 11.3919C2.80529 11.5934 2.12889 11.868 1.46825 12.5286C0.57881 13.418 0.0270386 14.5957 0.0270386 15.9628C0.0270386 18.6582 2.19211 20.8 4.90249 20.8C7.61297 20.8 9.77794 18.6563 9.77794 15.961C9.77794 14.5938 9.22617 13.4162 8.33673 12.5268C7.67608 11.8661 6.99969 11.5916 6.50334 11.3901L6.46706 11.3754C6.21044 11.2711 6.02984 11.1939 5.90915 11.0999C5.80449 11.0184 5.75404 10.9319 5.75404 10.79C5.75404 10.6992 5.79003 10.6179 5.87611 10.5278C5.96687 10.4328 6.10164 10.3406 6.27822 10.2342C6.33651 10.1991 6.39886 10.1628 6.4641 10.1248C6.77885 9.9416 7.16114 9.71906 7.48096 9.39924C8.16795 8.71225 8.59444 7.82656 8.59444 6.82076C8.59444 5.90698 8.29426 5.28794 7.99936 4.82441C7.92653 4.70994 7.85395 4.60484 7.788 4.50937C7.72116 4.41261 7.66231 4.32742 7.61237 4.24713C7.51002 4.08258 7.46556 3.96918 7.46556 3.87294C7.46556 3.76969 7.5017 3.70405 7.56657 3.64764C7.64084 3.58306 7.75571 3.52912 7.91414 3.47631L7.91914 3.47457C8.33632 3.32286 8.9768 2.96749 8.9768 2.16142C8.9768 1.4199 8.3832 0.800049 7.63364 0.800049ZM3.0411 6.78435C3.0411 5.74219 3.88524 4.88654 4.90249 4.88654C5.91974 4.88654 6.76388 5.74219 6.76388 6.78435C6.76388 7.8265 5.91974 8.68215 4.90249 8.68215C3.88524 8.68215 3.0411 7.8265 3.0411 6.78435ZM1.96685 15.9628C1.96685 14.2582 3.21834 12.8997 4.90249 12.8997C6.58663 12.8997 7.83813 14.2582 7.83813 15.9628C7.83813 17.6483 6.58587 19.0259 4.90249 19.0259C3.21903 19.0259 1.96685 17.65 1.96685 15.9628Z" fill="#23A47F"/>
</svg>
