<svg width="20" height="15" viewBox="0 0 20 15" fill="none" xmlns="http://www.w3.org/2000/svg">
<path fill-rule="evenodd" clip-rule="evenodd" d="M8.32219 1.5248C8.96744 0.85309 9.86551 0.437128 10.8576 0.437128C12.1805 0.437128 13.327 1.17204 13.9443 2.26707C14.4923 2.0221 15.0858 1.89563 15.686 1.89594C18.0672 1.89594 20 3.84346 20 6.24664C20 8.64981 18.0672 10.5973 15.686 10.5973C15.395 10.5973 15.1113 10.5681 14.8335 10.5128C14.2934 11.4756 13.2608 12.1296 12.085 12.1296C11.6062 12.1306 11.1336 12.022 10.7033 11.8122C10.1558 13.0983 8.88072 14.0022 7.39619 14.0022C5.84552 14.0022 4.53002 13.0248 4.02293 11.6505C3.79723 11.6981 3.56718 11.722 3.33652 11.7219C1.49188 11.7219 0 10.208 0 8.34864C0 7.09929 0.671713 6.01161 1.66826 5.42368C1.45684 4.93665 1.34802 4.41129 1.34857 3.88036C1.34857 1.7344 3.09032 0 5.23628 0C6.49298 0 7.6174 0.598956 8.32292 1.52862" fill="#00A1E0"/>
</svg>
