<svg width="18" height="18" viewBox="0 0 18 18" fill="none" xmlns="http://www.w3.org/2000/svg">
<path d="M9.00464 0.136353C5.30345 0.136353 4.221 0.140171 4.01059 0.157625C3.25105 0.220762 2.77841 0.340353 2.2635 0.596716C1.86668 0.793762 1.55373 1.02217 1.24486 1.34235C0.682365 1.92626 0.341455 2.64463 0.218046 3.49853C0.158046 3.91308 0.140592 3.99763 0.137046 6.11508C0.135683 6.8209 0.137046 7.74981 0.137046 8.99576C0.137046 12.6939 0.141137 13.7753 0.158865 13.9853C0.220228 14.7244 0.336137 15.1894 0.581592 15.698C1.05068 16.6717 1.94659 17.4026 3.00205 17.6753C3.3675 17.7694 3.77114 17.8212 4.28932 17.8458C4.50886 17.8553 6.74659 17.8621 8.98568 17.8621C11.2248 17.8621 13.4639 17.8594 13.678 17.8485C14.278 17.8203 14.6264 17.7735 15.0116 17.6739C16.0739 17.3999 16.9534 16.6799 17.432 15.6926C17.6727 15.1962 17.7948 14.7135 17.85 14.013C17.862 13.8603 17.867 11.4252 17.867 8.99344C17.867 6.56126 17.8616 4.13072 17.8496 3.97799C17.7937 3.26617 17.6716 2.78753 17.4232 2.28163C17.2193 1.86749 16.993 1.55822 16.6643 1.24199C16.0778 0.681807 15.3605 0.340898 14.5058 0.217625C14.0917 0.157762 14.0092 0.140034 11.8901 0.136353H9.00464Z" fill="url(#paint0_radial_6251_58379)"/>
<path d="M9.00464 0.136353C5.30345 0.136353 4.221 0.140171 4.01059 0.157625C3.25105 0.220762 2.77841 0.340353 2.2635 0.596716C1.86668 0.793762 1.55373 1.02217 1.24486 1.34235C0.682365 1.92626 0.341455 2.64463 0.218046 3.49853C0.158046 3.91308 0.140592 3.99763 0.137046 6.11508C0.135683 6.8209 0.137046 7.74981 0.137046 8.99576C0.137046 12.6939 0.141137 13.7753 0.158865 13.9853C0.220228 14.7244 0.336137 15.1894 0.581592 15.698C1.05068 16.6717 1.94659 17.4026 3.00205 17.6753C3.3675 17.7694 3.77114 17.8212 4.28932 17.8458C4.50886 17.8553 6.74659 17.8621 8.98568 17.8621C11.2248 17.8621 13.4639 17.8594 13.678 17.8485C14.278 17.8203 14.6264 17.7735 15.0116 17.6739C16.0739 17.3999 16.9534 16.6799 17.432 15.6926C17.6727 15.1962 17.7948 14.7135 17.85 14.013C17.862 13.8603 17.867 11.4252 17.867 8.99344C17.867 6.56126 17.8616 4.13072 17.8496 3.97799C17.7937 3.26617 17.6716 2.78753 17.4232 2.28163C17.2193 1.86749 16.993 1.55822 16.6643 1.24199C16.0778 0.681807 15.3605 0.340898 14.5058 0.217625C14.0917 0.157762 14.0092 0.140034 11.8901 0.136353H9.00464Z" fill="url(#paint1_radial_6251_58379)"/>
<path d="M9.00054 2.45459C7.22291 2.45459 6.99982 2.46236 6.30164 2.49414C5.60482 2.52604 5.12918 2.63636 4.713 2.79823C4.2825 2.96541 3.91732 3.18904 3.5535 3.553C3.18941 3.91682 2.96577 4.282 2.79804 4.71236C2.63577 5.12868 2.52532 5.60445 2.49395 6.301C2.46273 6.99918 2.45454 7.22241 2.45454 9.00004C2.45454 10.7777 2.46245 11.0001 2.49409 11.6983C2.52614 12.3951 2.63645 12.8707 2.79818 13.2869C2.9655 13.7174 3.18913 14.0826 3.55309 14.4464C3.91677 14.8105 4.28195 15.0347 4.71218 15.2019C5.12864 15.3637 5.60441 15.474 6.30109 15.506C6.99927 15.5377 7.22223 15.5455 8.99973 15.5455C10.7775 15.5455 10.9999 15.5377 11.6981 15.506C12.3949 15.474 12.8711 15.3637 13.2875 15.2019C13.7179 15.0347 14.0825 14.8105 14.4462 14.4464C14.8103 14.0826 15.034 13.7174 15.2017 13.287C15.3626 12.8707 15.473 12.395 15.5058 11.6984C15.5371 11.0002 15.5453 10.7777 15.5453 9.00004C15.5453 7.22241 15.5371 6.99932 15.5058 6.30114C15.473 5.60432 15.3626 5.12868 15.2017 4.7125C15.034 4.282 14.8103 3.91682 14.4462 3.553C14.0821 3.18891 13.718 2.96527 13.2871 2.79823C12.8699 2.63636 12.394 2.52604 11.6971 2.49414C10.999 2.46236 10.7767 2.45459 8.9985 2.45459H9.00054ZM8.41336 3.63414C8.58764 3.63386 8.78209 3.63414 9.00054 3.63414C10.7482 3.63414 10.9553 3.64041 11.6455 3.67177C12.2836 3.70095 12.63 3.80759 12.8607 3.89718C13.1662 4.01582 13.384 4.15764 13.6129 4.38673C13.842 4.61582 13.9838 4.834 14.1027 5.13945C14.1923 5.36991 14.2991 5.71627 14.3281 6.35445C14.3595 7.04445 14.3663 7.25173 14.3663 8.99854C14.3663 10.7454 14.3595 10.9526 14.3281 11.6426C14.299 12.2808 14.1923 12.6272 14.1027 12.8576C13.9841 13.1631 13.842 13.3806 13.6129 13.6095C13.3838 13.8386 13.1663 13.9805 12.8607 14.0991C12.6303 14.1891 12.2836 14.2955 11.6455 14.3246C10.9555 14.356 10.7482 14.3628 9.00054 14.3628C7.25277 14.3628 7.04564 14.356 6.35564 14.3246C5.71745 14.2952 5.37109 14.1885 5.14023 14.099C4.83477 13.9803 4.61659 13.8385 4.3875 13.6094C4.15841 13.3803 4.01659 13.1627 3.89768 12.8571C3.80809 12.6266 3.70132 12.2803 3.67227 11.6421C3.64091 10.9521 3.63463 10.7448 3.63463 8.99691C3.63463 7.249 3.64091 7.04282 3.67227 6.35282C3.70145 5.71464 3.80809 5.36827 3.89768 5.13754C4.01632 4.83209 4.15841 4.61391 4.3875 4.38482C4.61659 4.15573 4.83477 4.01391 5.14023 3.895C5.37095 3.805 5.71745 3.69864 6.35564 3.66932C6.95945 3.64204 7.19345 3.63386 8.41336 3.6325V3.63414ZM12.4945 4.72095C12.0608 4.72095 11.709 5.07236 11.709 5.50614C11.709 5.93977 12.0608 6.29159 12.4945 6.29159C12.9281 6.29159 13.2799 5.93977 13.2799 5.50614C13.2799 5.0725 12.9281 4.72068 12.4945 4.72068V4.72095ZM9.00054 5.63868C7.14423 5.63868 5.63918 7.14373 5.63918 9.00004C5.63918 10.8564 7.14423 12.3607 9.00054 12.3607C10.8569 12.3607 12.3614 10.8564 12.3614 9.00004C12.3614 7.14373 10.8569 5.63868 9.00054 5.63868ZM9.00054 6.81823C10.2055 6.81823 11.1824 7.795 11.1824 9.00004C11.1824 10.205 10.2055 11.1819 9.00054 11.1819C7.7955 11.1819 6.81873 10.205 6.81873 9.00004C6.81873 7.795 7.7955 6.81823 9.00054 6.81823Z" fill="white"/>
<defs>
<radialGradient id="paint0_radial_6251_58379" cx="0" cy="0" r="1" gradientUnits="userSpaceOnUse" gradientTransform="translate(4.84615 19.2274) rotate(-90) scale(17.5676 16.3437)">
<stop stop-color="#FFDD55"/>
<stop offset="0.1" stop-color="#FFDD55"/>
<stop offset="0.5" stop-color="#FF543E"/>
<stop offset="1" stop-color="#C837AB"/>
</radialGradient>
<radialGradient id="paint1_radial_6251_58379" cx="0" cy="0" r="1" gradientUnits="userSpaceOnUse" gradientTransform="translate(-2.83353 1.41329) rotate(78.6776) scale(7.85285 32.3779)">
<stop stop-color="#3771C8"/>
<stop offset="0.128" stop-color="#3771C8"/>
<stop offset="1" stop-color="#6600FF" stop-opacity="0"/>
</radialGradient>
</defs>
</svg>
