<svg width="17" height="18" viewBox="0 0 17 18" fill="none" xmlns="http://www.w3.org/2000/svg">
<g clip-path="url(#clip0_6251_58389)">
<path d="M8.96732 7.47876V10.7192H13.4705C13.2727 11.7613 12.6793 12.6438 11.7894 13.2371L14.505 15.3442C16.0872 13.8837 17 11.7386 17 9.19036C17 8.59704 16.9467 8.02648 16.8478 7.47885L8.96732 7.47876Z" fill="#4285F4"/>
<path d="M4.278 10.5928L3.66553 11.0616L1.49758 12.7503C2.87439 15.4811 5.69628 17.3676 8.96714 17.3676C11.2263 17.3676 13.1203 16.6221 14.5048 15.3442L11.7892 13.2371C11.0437 13.7392 10.0929 14.0435 8.96714 14.0435C6.79163 14.0435 4.94325 12.5754 4.28142 10.5976L4.278 10.5928Z" fill="#34A853"/>
<path d="M1.49758 5.25C0.927111 6.37575 0.600056 7.64609 0.600056 9.00006C0.600056 10.354 0.927111 11.6244 1.49758 12.7501C1.49758 12.7577 4.28169 10.5898 4.28169 10.5898C4.11434 10.0878 4.01543 9.55534 4.01543 8.99998C4.01543 8.44461 4.11434 7.91218 4.28169 7.41013L1.49758 5.25Z" fill="#FBBC05"/>
<path d="M8.96731 3.96443C10.1996 3.96443 11.295 4.3904 12.1697 5.21194L14.5658 2.81585C13.1129 1.46187 11.2265 0.63269 8.96731 0.63269C5.69645 0.63269 2.87439 2.51155 1.49758 5.24998L4.2816 7.41029C4.94335 5.43252 6.7918 3.96443 8.96731 3.96443Z" fill="#EA4335"/>
</g>
<defs>
<clipPath id="clip0_6251_58389">
<rect width="16.4" height="16.7347" fill="white" transform="translate(0.599976 0.63269)"/>
</clipPath>
</defs>
</svg>
