<svg width="19" height="19" viewBox="0 0 19 19" fill="none" xmlns="http://www.w3.org/2000/svg">
<path d="M18.8309 17.0544L15.442 13.6649C15.335 13.56 15.1911 13.5012 15.0412 13.5012C14.8913 13.5012 14.7474 13.56 14.6403 13.6649L11.2514 17.0544C11.1706 17.1315 11.1151 17.2313 11.0924 17.3407C11.0697 17.45 11.0809 17.5637 11.1244 17.6665C11.1679 17.7694 11.2416 17.8565 11.3359 17.9164C11.4301 17.9763 11.5404 18.0061 11.652 18.0018H18.4304C18.5413 18.0046 18.6505 17.9739 18.7438 17.9137C18.8371 17.8536 18.9101 17.7667 18.9533 17.6645C18.9965 17.5623 19.0079 17.4494 18.9861 17.3406C18.9643 17.2318 18.9102 17.1321 18.8309 17.0544Z" fill="#C3C6CC"/>
<path d="M18.9437 4.88036L17.8822 1.72882C17.8343 1.5863 17.7579 1.455 17.6577 1.3429L1.12704 17.873C1.22405 17.9598 1.35077 18.0059 1.4809 18.0018H6.17614C6.30736 18.0025 6.43742 17.9772 6.55887 17.9275C6.68031 17.8778 6.79075 17.8046 6.88385 17.7121L18.7187 5.87724C18.8473 5.7498 18.9369 5.58826 18.9767 5.41164C19.0166 5.23502 19.0052 5.05069 18.9437 4.88036Z" fill="#E1E3E6"/>
<path d="M17.2714 1.11732L14.1199 0.056303C13.9496 -0.00511031 13.7652 -0.0165578 13.5886 0.0233111C13.412 0.0631801 13.2505 0.152704 13.123 0.281332L1.28762 12.1162C1.10144 12.3046 0.997467 12.559 0.998455 12.8239V17.5191C0.994322 17.6492 1.04046 17.776 1.12728 17.873L17.6579 1.34293C17.5457 1.24238 17.4142 1.16563 17.2714 1.11732Z" fill="#C3C6CC"/>
</svg>
