<svg width="18" height="18" viewBox="0 0 18 18" fill="none" xmlns="http://www.w3.org/2000/svg">
<path d="M17.8065 7.38992C17.7479 7.3573 17.6816 7.34107 17.6146 7.34292C17.5475 7.34476 17.4822 7.36463 17.4255 7.40042L10.788 12.0174C10.2512 12.3507 9.63187 12.5273 9 12.5273C8.36813 12.5273 7.74883 12.3507 7.212 12.0174L0.574501 7.40042C0.517723 7.36475 0.452417 7.34495 0.385389 7.3431C0.31836 7.34124 0.252059 7.35739 0.193393 7.38986C0.134726 7.42233 0.08584 7.46994 0.0518263 7.52773C0.0178126 7.58552 -8.39339e-05 7.65137 2.95952e-07 7.71842V14.0769C2.95952e-07 14.6737 0.237053 15.246 0.65901 15.6679C1.08097 16.0899 1.65326 16.3269 2.25 16.3269H15.75C16.3467 16.3269 16.919 16.0899 17.341 15.6679C17.7629 15.246 18 14.6737 18 14.0769V7.71842C18.0002 7.65134 17.9824 7.58543 17.9483 7.52762C17.9143 7.46982 17.8653 7.42225 17.8065 7.38992V7.38992Z" fill="#2388FF"/>
<path d="M18 4.3269C18 3.73017 17.7629 3.15787 17.341 2.73591C16.919 2.31396 16.3467 2.0769 15.75 2.0769H2.25C1.65326 2.0769 1.08097 2.31396 0.65901 2.73591C0.237053 3.15787 1.25248e-07 3.73017 1.25248e-07 4.3269C-2.82955e-05 4.34582 0.00478056 4.36444 0.0139691 4.38098C0.0231576 4.39752 0.0364205 4.41143 0.0524999 4.4214L8.4 10.1094C8.57875 10.2205 8.78503 10.2794 8.9955 10.2794C9.20597 10.2794 9.41225 10.2205 9.591 10.1094L17.943 4.4214C17.9598 4.41188 17.9739 4.39818 17.9839 4.38162C17.9939 4.36507 17.9994 4.34623 18 4.3269V4.3269Z" fill="#2388FF"/>
</svg>
