<svg width="32" height="32" viewBox="0 0 32 32" fill="none" xmlns="http://www.w3.org/2000/svg">
<path opacity="0.35" d="M21.0869 29.2175H7.17391C4.86852 29.2175 3 27.3489 3 25.0436V6.95662C3 4.65124 4.86852 2.78271 7.17391 2.78271H21.0869C23.3923 2.78271 25.2609 4.65124 25.2609 6.95662V25.0436C25.2609 27.3489 23.3923 29.2175 21.0869 29.2175Z" fill="#1470F9"/>
<path d="M16.9132 5.56521H11.348C9.81064 5.56521 8.56543 4.32 8.56543 2.78261C8.56543 1.24522 9.81064 0 11.348 0H16.9132C18.4506 0 19.6958 1.24522 19.6958 2.78261C19.6958 4.32 18.4506 5.56521 16.9132 5.56521Z" fill="#1470F9"/>
<path d="M19.6956 13.913H8.56513C7.79713 13.913 7.17383 13.2897 7.17383 12.5217C7.17383 11.7537 7.79713 11.1304 8.56513 11.1304H19.6956C20.4636 11.1304 21.0869 11.7537 21.0869 12.5217C21.0869 13.2897 20.4636 13.913 19.6956 13.913Z" fill="#1470F9"/>
<path d="M14.1304 19.4784H8.56513C7.79713 19.4784 7.17383 18.8551 7.17383 18.0871C7.17383 17.3191 7.79713 16.6958 8.56513 16.6958H14.1304C14.8984 16.6958 15.5217 17.3191 15.5217 18.0871C15.5217 18.8551 14.8984 19.4784 14.1304 19.4784Z" fill="#1470F9"/>
<path d="M21.7831 31.9999C21.2488 31.9999 20.7145 31.7967 20.3069 31.3891L16.133 27.2152C15.3177 26.4013 15.3177 25.0781 16.133 24.2642C16.9483 23.4489 18.2686 23.4489 19.0839 24.2642L21.7817 26.962L27.262 21.4816C28.0773 20.6663 29.3977 20.6663 30.213 21.4816C31.0283 22.2955 31.0283 23.6187 30.213 24.4326L23.2564 31.3891C22.8516 31.7967 22.3173 31.9999 21.7831 31.9999Z" fill="#1470F9"/>
</svg>
