<svg width="22" height="22" viewBox="0 0 22 22" fill="none" xmlns="http://www.w3.org/2000/svg">
<g clip-path="url(#clip0_6145_2943)">
<mask id="mask0_6145_2943" style="mask-type:luminance" maskUnits="userSpaceOnUse" x="0" y="0" width="22" height="22">
<path d="M22 0H0V22H22V0Z" fill="white"/>
</mask>
<g mask="url(#mask0_6145_2943)">
<path opacity="0.35" d="M17.0275 21.7127H4.00003C2.20116 21.7127 0.743164 20.2547 0.743164 18.4558V11.9421C0.743164 11.3428 1.22952 10.8564 1.82879 10.8564H19.1988C19.798 10.8564 20.2844 11.3428 20.2844 11.9421V18.4558C20.2844 20.2547 18.8264 21.7127 17.0275 21.7127Z" fill="#1470F9"/>
<path d="M20.2287 15.1987H0.6875V17.37H20.2287V15.1987Z" fill="#1470F9"/>
<path d="M16.7513 2.51561C16.151 3.11596 16.1879 4.11148 16.8621 4.66297C17.4483 5.14282 18.3211 5.03968 18.8563 4.50447L20.2676 3.09316C20.5695 2.79028 21.096 2.92923 21.1948 3.34503C21.3402 3.95081 21.3576 4.60544 21.21 5.28395C20.8441 6.96992 19.4643 8.31284 17.7653 8.61464C14.7473 9.14985 12.1624 6.56498 12.6976 3.54695C12.9994 1.84796 14.3423 0.46813 16.0283 0.102275C16.7068 -0.0453691 17.3614 -0.0269135 17.9672 0.117474C18.383 0.217351 18.5231 0.741707 18.2202 1.0446C17.4961 1.77196 16.9109 2.35603 16.7513 2.51561Z" fill="#1470F9"/>
<path d="M18.0577 7.59961H14.8008V10.8565H18.0577V7.59961Z" fill="#1470F9"/>
<path d="M7.2012 3.25732H3.94434V10.8567H7.2012V3.25732Z" fill="#1470F9"/>
<path d="M11.1822 3.77628L9.96088 1.23158C9.60046 0.479248 8.83944 0.000488281 8.00351 0.000488281H1.77312C1.17386 0.000488281 0.6875 0.486847 0.6875 1.08611V4.34298C0.6875 4.94224 1.17386 5.4286 1.77312 5.4286H10.1433C10.9922 5.4286 11.5502 4.54165 11.1822 3.77628Z" fill="#1470F9"/>
</g>
</g>
<defs>
<clipPath id="clip0_6145_2943">
<rect width="22" height="22" fill="white"/>
</clipPath>
</defs>
</svg>
